G04 #@! TF.GenerationSoftware,KiCad,Pcbnew,(5.1.4-0)*
G04 #@! TF.CreationDate,2021-02-22T20:17:48-07:00*
G04 #@! TF.ProjectId,electrolyte,656c6563-7472-46f6-9c79-74652e6b6963,rev?*
G04 #@! TF.SameCoordinates,Original*
G04 #@! TF.FileFunction,Copper,L1,Top*
G04 #@! TF.FilePolarity,Positive*
%FSLAX46Y46*%
G04 Gerber Fmt 4.6, Leading zero omitted, Abs format (unit mm)*
G04 Created by KiCad (PCBNEW (5.1.4-0)) date 2021-02-22 20:17:48*
%MOMM*%
%LPD*%
G04 APERTURE LIST*
%ADD10C,4.400000*%
%ADD11C,2.250000*%
%ADD12C,1.752600*%
%ADD13R,1.752600X1.752600*%
%ADD14R,1.600000X1.600000*%
%ADD15C,1.600000*%
%ADD16C,0.250000*%
G04 APERTURE END LIST*
D10*
X111633000Y-54229000D03*
X187833000Y-35179000D03*
X187960000Y-73279000D03*
X35306000Y-73279000D03*
X33528000Y-35179000D03*
D11*
X199929750Y-77755750D03*
X193579750Y-80295750D03*
X199929750Y-58705750D03*
X193579750Y-61245750D03*
X199929750Y-39655750D03*
X193579750Y-42195750D03*
X199929750Y-20605750D03*
X193579750Y-23145750D03*
X180879750Y-77755750D03*
X174529750Y-80295750D03*
X180879750Y-58705750D03*
X174529750Y-61245750D03*
X180879750Y-39655750D03*
X174529750Y-42195750D03*
X180879750Y-20605750D03*
X174529750Y-23145750D03*
X161829750Y-77755750D03*
X155479750Y-80295750D03*
X161829750Y-58705750D03*
X155479750Y-61245750D03*
X161829750Y-39655750D03*
X155479750Y-42195750D03*
X161829750Y-20605750D03*
X155479750Y-23145750D03*
X142779750Y-77755750D03*
X136429750Y-80295750D03*
X142779750Y-58705750D03*
X136429750Y-61245750D03*
X142779750Y-39655750D03*
X136429750Y-42195750D03*
X142779750Y-20605750D03*
X136429750Y-23145750D03*
X123729750Y-77755750D03*
X117379750Y-80295750D03*
X123729750Y-58705750D03*
X117379750Y-61245750D03*
X123729750Y-39655750D03*
X117379750Y-42195750D03*
X123729750Y-20605750D03*
X117379750Y-23145750D03*
X104679750Y-77755750D03*
X98329750Y-80295750D03*
X104679750Y-58705750D03*
X98329750Y-61245750D03*
X104679750Y-39655750D03*
X98329750Y-42195750D03*
X104679750Y-20605750D03*
X98329750Y-23145750D03*
X85629750Y-77755750D03*
X79279750Y-80295750D03*
X85629750Y-58705750D03*
X79279750Y-61245750D03*
X85629750Y-39655750D03*
X79279750Y-42195750D03*
X85629750Y-20605750D03*
X79279750Y-23145750D03*
X66579750Y-77755750D03*
X60229750Y-80295750D03*
X66579750Y-58705750D03*
X60229750Y-61245750D03*
X66579750Y-39655750D03*
X60229750Y-42195750D03*
X66579750Y-20605750D03*
X60229750Y-23145750D03*
X47529750Y-77755750D03*
X41179750Y-80295750D03*
X47529750Y-58705750D03*
X41179750Y-61245750D03*
X47529750Y-39655750D03*
X41179750Y-42195750D03*
X47529750Y-20605750D03*
X41179750Y-23145750D03*
X28479750Y-77755750D03*
X22129750Y-80295750D03*
X28479750Y-58705750D03*
X22129750Y-61245750D03*
X28479750Y-39655750D03*
X22129750Y-42195750D03*
X28479750Y-20605750D03*
X22129750Y-23145750D03*
D12*
X52609750Y-21240750D03*
X37369750Y-49180750D03*
X52609750Y-23780750D03*
X52609750Y-26320750D03*
X52609750Y-28860750D03*
X52609750Y-31400750D03*
X52609750Y-33940750D03*
X52609750Y-36480750D03*
X52609750Y-39020750D03*
X52609750Y-41560750D03*
X52609750Y-44100750D03*
X52609750Y-46640750D03*
X52609750Y-49180750D03*
X37369750Y-46640750D03*
X37369750Y-44100750D03*
X37369750Y-41560750D03*
X37369750Y-39020750D03*
X37369750Y-36480750D03*
X37369750Y-33940750D03*
X37369750Y-31400750D03*
X37369750Y-28860750D03*
X37369750Y-26320750D03*
X37369750Y-23780750D03*
D13*
X37369750Y-21240750D03*
D14*
X189261750Y-86862750D03*
D15*
X189261750Y-79062750D03*
D14*
X189261750Y-67812750D03*
D15*
X189261750Y-60012750D03*
D14*
X189261750Y-48762750D03*
D15*
X189261750Y-40962750D03*
D14*
X189261750Y-29712750D03*
D15*
X189261750Y-21912750D03*
D14*
X186467750Y-86862750D03*
D15*
X186467750Y-79062750D03*
D14*
X186467750Y-67812750D03*
D15*
X186467750Y-60012750D03*
D14*
X186467750Y-48762750D03*
D15*
X186467750Y-40962750D03*
D14*
X186467750Y-29712750D03*
D15*
X186467750Y-21912750D03*
D14*
X167417750Y-86862750D03*
D15*
X167417750Y-79062750D03*
D14*
X167417750Y-67812750D03*
D15*
X167417750Y-60012750D03*
D14*
X167417750Y-48762750D03*
D15*
X167417750Y-40962750D03*
D14*
X167417750Y-29712750D03*
D15*
X167417750Y-21912750D03*
D14*
X148367750Y-86862750D03*
D15*
X148367750Y-79062750D03*
D14*
X148367750Y-67812750D03*
D15*
X148367750Y-60012750D03*
D14*
X148367750Y-48762750D03*
D15*
X148367750Y-40962750D03*
D14*
X148367750Y-29712750D03*
D15*
X148367750Y-21912750D03*
D14*
X129317750Y-86862750D03*
D15*
X129317750Y-79062750D03*
D14*
X129317750Y-67812750D03*
D15*
X129317750Y-60012750D03*
D14*
X129317750Y-48762750D03*
D15*
X129317750Y-40962750D03*
D14*
X129317750Y-29712750D03*
D15*
X129317750Y-21912750D03*
D14*
X110267750Y-86862750D03*
D15*
X110267750Y-79062750D03*
D14*
X110267750Y-67812750D03*
D15*
X110267750Y-60012750D03*
D14*
X110267750Y-48762750D03*
D15*
X110267750Y-40962750D03*
D14*
X110267750Y-29712750D03*
D15*
X110267750Y-21912750D03*
D14*
X91217750Y-86862750D03*
D15*
X91217750Y-79062750D03*
D14*
X91217750Y-67812750D03*
D15*
X91217750Y-60012750D03*
D14*
X91217750Y-48762750D03*
D15*
X91217750Y-40962750D03*
D14*
X91217750Y-29712750D03*
D15*
X91217750Y-21912750D03*
D14*
X72167750Y-86862750D03*
D15*
X72167750Y-79062750D03*
D14*
X72167750Y-67812750D03*
D15*
X72167750Y-60012750D03*
D14*
X72167750Y-48762750D03*
D15*
X72167750Y-40962750D03*
D14*
X72167750Y-29712750D03*
D15*
X72167750Y-21912750D03*
D14*
X55911750Y-86862750D03*
D15*
X55911750Y-79062750D03*
D14*
X55911750Y-67812750D03*
D15*
X55911750Y-60012750D03*
D14*
X55911750Y-48762750D03*
D15*
X55911750Y-40962750D03*
D14*
X55911750Y-29712750D03*
D15*
X55911750Y-21912750D03*
D14*
X34067750Y-86862750D03*
D15*
X34067750Y-79062750D03*
D14*
X34067750Y-67812750D03*
D15*
X34067750Y-60012750D03*
D14*
X34067750Y-48762750D03*
D15*
X34067750Y-40962750D03*
D14*
X34067750Y-29712750D03*
D15*
X34067750Y-21912750D03*
D16*
X36493451Y-47517049D02*
X37369750Y-46640750D01*
X36168449Y-66762051D02*
X36168449Y-47842051D01*
X35117750Y-67812750D02*
X36168449Y-66762051D01*
X36168449Y-47842051D02*
X36493451Y-47517049D01*
X34067750Y-67812750D02*
X35117750Y-67812750D01*
X38246049Y-44977049D02*
X37369750Y-44100750D01*
X38571051Y-81309449D02*
X38571051Y-45302051D01*
X34067750Y-85812750D02*
X38571051Y-81309449D01*
X38571051Y-45302051D02*
X38246049Y-44977049D01*
X34067750Y-86862750D02*
X34067750Y-85812750D01*
X49120740Y-39655750D02*
X47529750Y-39655750D01*
X54039681Y-40222051D02*
X49687041Y-40222051D01*
X49687041Y-40222051D02*
X49120740Y-39655750D01*
X54780380Y-40962750D02*
X54039681Y-40222051D01*
X55911750Y-40962750D02*
X54780380Y-40962750D01*
X22129750Y-64291752D02*
X22129750Y-80295750D01*
X22129750Y-23145750D02*
X22129750Y-64291752D01*
X41179750Y-23145750D02*
X41179750Y-80295750D01*
X60229750Y-23145750D02*
X60229750Y-80295750D01*
X79279750Y-23145750D02*
X79279750Y-80295750D01*
X98329750Y-23145750D02*
X98329750Y-80295750D01*
X117379750Y-23145750D02*
X117379750Y-80295750D01*
X136429750Y-64291752D02*
X136429750Y-80295750D01*
X136429750Y-23145750D02*
X136429750Y-64291752D01*
X155479750Y-64291752D02*
X155479750Y-80295750D01*
X155479750Y-23145750D02*
X155479750Y-64291752D01*
X174529750Y-23145750D02*
X174529750Y-80295750D01*
X193579750Y-23145750D02*
X193579750Y-80295750D01*
M02*
