M48
; DRILL file {KiCad (5.1.4-0)} date Monday, February 22, 2021 at 08:19:32 PM
; FORMAT={-:-/ absolute / inch / decimal}
; #@! TF.CreationDate,2021-02-22T20:19:32-07:00
; #@! TF.GenerationSoftware,Kicad,Pcbnew,(5.1.4-0)
; #@! TF.FileFunction,Plated,1,2,PTH
FMAT,2
INCH
T1C0.0394
T2C0.0430
T3C0.0579
T4C0.0866
%
G90
G05
T1
X2.8413Y-1.6127
X2.8413Y-1.9198
X2.2012Y-3.4198
X1.3413Y-2.3627
X1.3413Y-2.6698
X1.3413Y-3.1127
X1.3413Y-3.4198
X2.2012Y-1.6127
X2.2012Y-1.9198
X2.2012Y-0.8627
X2.2012Y-1.1698
X2.2012Y-2.3627
X2.2012Y-2.6698
X2.2012Y-3.1127
X7.4512Y-2.3627
X1.3413Y-1.9198
X1.3413Y-1.6127
X7.4512Y-3.1127
X7.4512Y-3.4198
X1.3413Y-1.1698
X7.4512Y-2.6698
X1.3413Y-0.8627
X7.4512Y-1.6127
X7.4512Y-1.9198
X7.4512Y-0.8627
X7.4512Y-1.1698
X7.3412Y-3.1127
X7.3412Y-3.4198
X7.3412Y-2.3627
X7.3412Y-2.6698
X7.3412Y-1.6127
X7.3412Y-1.9198
X7.3412Y-0.8627
X7.3412Y-1.1698
X6.5912Y-3.1127
X6.5912Y-3.4198
X6.5912Y-1.6127
X6.5912Y-1.9198
X6.5912Y-0.8627
X6.5912Y-1.1698
X5.0912Y-0.8627
X5.0912Y-1.1698
X5.0912Y-1.6127
X5.0912Y-1.9198
X5.0912Y-3.1127
X5.0912Y-3.4198
X5.0912Y-2.3627
X5.0912Y-2.6698
X5.8412Y-0.8627
X5.8412Y-1.1698
X5.8412Y-1.6127
X5.8412Y-1.9198
X6.5912Y-2.3627
X6.5912Y-2.6698
X5.8412Y-2.3627
X5.8412Y-2.6698
X5.8412Y-3.1127
X5.8412Y-3.4198
X4.3412Y-3.1127
X4.3412Y-3.4198
X4.3412Y-0.8627
X4.3412Y-1.6127
X4.3412Y-1.9198
X4.3412Y-1.1698
X3.5913Y-1.6127
X4.3412Y-2.3627
X3.5913Y-3.1127
X3.5913Y-3.4198
X3.5913Y-2.3627
X3.5913Y-2.6698
X3.5913Y-1.9198
X4.3412Y-2.6698
X3.5913Y-0.8627
X3.5913Y-1.1698
X2.8413Y-3.1127
X2.8413Y-3.4198
X2.8413Y-2.3627
X2.8413Y-2.6698
X2.8413Y-0.8627
X2.8413Y-1.1698
T2
X1.4712Y-0.8362
X1.4712Y-0.9363
X1.4712Y-1.0362
X1.4712Y-1.1362
X1.4712Y-1.2363
X1.4712Y-1.3362
X1.4712Y-1.4363
X1.4712Y-1.5362
X1.4712Y-1.6362
X1.4712Y-1.7363
X1.4712Y-1.8362
X1.4712Y-1.9363
X2.0713Y-0.8362
X2.0713Y-0.9363
X2.0713Y-1.0362
X2.0713Y-1.1362
X2.0713Y-1.2363
X2.0713Y-1.3362
X2.0713Y-1.4363
X2.0713Y-1.5362
X2.0713Y-1.6362
X2.0713Y-1.7363
X2.0713Y-1.8362
X2.0713Y-1.9363
T3
X4.6212Y-3.1612
X4.8712Y-3.0612
X3.1212Y-3.1612
X3.3712Y-3.0612
X6.1212Y-0.9113
X6.3712Y-0.8113
X4.6212Y-2.4112
X4.8712Y-2.3112
X3.1212Y-2.4112
X3.3712Y-2.3112
X5.3712Y-3.1612
X5.6212Y-3.0612
X6.8712Y-0.9113
X7.1212Y-0.8113
X2.3712Y-0.9113
X2.6212Y-0.8113
X6.1212Y-3.1612
X6.3712Y-3.0612
X3.8712Y-3.1612
X2.3712Y-1.6612
X4.1212Y-3.0612
X1.6212Y-3.1612
X1.8712Y-3.0612
X0.8712Y-1.6612
X1.1213Y-1.5613
X7.6212Y-3.1612
X7.8712Y-3.0612
X3.1212Y-1.6612
X3.3712Y-1.5613
X1.6212Y-2.4112
X1.8712Y-2.3112
X0.8712Y-0.9113
X1.1213Y-0.8113
X4.6212Y-1.6612
X4.8712Y-1.5613
X7.6212Y-2.4112
X7.8712Y-2.3112
X6.8712Y-3.1612
X7.1212Y-3.0612
X4.6212Y-0.9113
X2.6212Y-1.5613
X4.8712Y-0.8113
X3.8712Y-2.4112
X4.1212Y-2.3112
X1.6212Y-1.6612
X1.8712Y-1.5613
X7.6212Y-1.6612
X7.8712Y-1.5613
X3.1212Y-0.9113
X3.3712Y-0.8113
X3.8712Y-1.6612
X4.1212Y-1.5613
X6.8712Y-2.4112
X7.1212Y-2.3112
X5.3712Y-2.4112
X5.6212Y-2.3112
X2.3712Y-3.1612
X2.6212Y-3.0612
X6.1212Y-1.6612
X6.1212Y-2.4112
X6.3712Y-2.3112
X6.3712Y-1.5613
X2.3712Y-2.4112
X2.6212Y-2.3112
X1.6212Y-0.9113
X1.8712Y-0.8113
X7.6212Y-0.9113
X7.8712Y-0.8113
X5.3712Y-1.6612
X5.6212Y-1.5613
X5.3712Y-0.9113
X5.6212Y-0.8113
X6.8712Y-1.6612
X7.1212Y-1.5613
X3.8712Y-0.9113
X4.1212Y-0.8113
X0.8712Y-3.1612
X1.1213Y-3.0612
X0.8712Y-2.4112
X1.1213Y-2.3112
T4
X7.4Y-2.885
X1.39Y-2.885
X4.395Y-2.135
X1.32Y-1.385
X7.395Y-1.385
T0
M30
