M48
; DRILL file {KiCad (5.1.4-0)} date Monday, February 22, 2021 at 08:19:32 PM
; FORMAT={-:-/ absolute / inch / decimal}
; #@! TF.CreationDate,2021-02-22T20:19:32-07:00
; #@! TF.GenerationSoftware,Kicad,Pcbnew,(5.1.4-0)
; #@! TF.FileFunction,NonPlated,1,2,NPTH
FMAT,2
INCH
T1C0.0689
T2C0.1570
%
G90
G05
T1
X6.8213Y-2.5112
X7.2212Y-2.5112
X5.3213Y-1.7612
X5.7212Y-1.7612
X0.8213Y-3.2612
X1.2212Y-3.2612
X6.0713Y-1.7612
X6.4712Y-1.7612
X5.3213Y-1.0112
X2.3213Y-2.5112
X2.7212Y-2.5112
X1.5713Y-1.0112
X1.9712Y-1.0112
X7.5713Y-1.0112
X7.9712Y-1.0112
X5.7212Y-1.0112
X6.8213Y-1.7612
X7.2212Y-1.7612
X3.8213Y-1.0112
X4.2212Y-1.0112
X3.0713Y-3.2612
X3.4712Y-3.2612
X0.8213Y-2.5112
X1.2212Y-2.5112
X4.9712Y-3.2612
X2.3213Y-1.7612
X2.7212Y-1.7612
X6.0713Y-1.0112
X6.4712Y-1.0112
X6.8213Y-1.0112
X7.2212Y-1.0112
X2.3213Y-1.0112
X3.0713Y-2.5112
X3.4712Y-2.5112
X5.3213Y-3.2612
X5.7212Y-3.2612
X2.7212Y-1.0112
X0.8213Y-1.7612
X1.2212Y-1.7612
X4.5713Y-3.2612
X0.8213Y-1.0112
X1.2212Y-1.0112
X4.5713Y-2.5112
X4.9712Y-2.5112
X2.3213Y-3.2612
X2.7212Y-3.2612
X3.8213Y-1.7612
X4.2212Y-1.7612
X6.4712Y-2.5112
X5.7212Y-2.5112
X6.0713Y-2.5112
X1.5713Y-3.2612
X7.5713Y-3.2612
X7.9712Y-3.2612
X4.5713Y-1.7612
X4.9712Y-1.7612
X7.5713Y-2.5112
X7.9712Y-2.5112
X6.0713Y-3.2612
X1.9712Y-3.2612
X6.4712Y-3.2612
X3.8213Y-3.2612
X4.2212Y-3.2612
X3.0713Y-1.7612
X3.4712Y-1.7612
X3.0713Y-1.0112
X3.4712Y-1.0112
X1.5713Y-2.5112
X1.9712Y-2.5112
X3.8213Y-2.5112
X4.2212Y-2.5112
X6.8213Y-3.2612
X7.2212Y-3.2612
X5.3213Y-2.5112
X4.5713Y-1.0112
X4.9712Y-1.0112
X1.5713Y-1.7612
X1.9712Y-1.7612
X7.5713Y-1.7612
X7.9712Y-1.7612
T2
X4.0213Y-1.7612
X3.2712Y-3.2612
X7.0213Y-1.7612
X4.0213Y-1.0112
X6.2713Y-1.0112
X5.5213Y-1.0112
X2.5212Y-2.5112
X2.5212Y-1.7612
X1.0212Y-3.2612
X6.2713Y-1.7612
X7.0213Y-1.0112
X5.5213Y-3.2612
X1.0212Y-2.5112
X1.0212Y-1.7612
X4.7713Y-2.5112
X2.5212Y-1.0112
X4.7713Y-3.2612
X1.7712Y-3.2612
X7.7713Y-3.2612
X3.2712Y-2.5112
X3.2712Y-1.7612
X4.7713Y-1.7612
X1.7712Y-2.5112
X3.2712Y-1.0112
X6.2713Y-3.2612
X1.0212Y-1.0112
X7.7713Y-2.5112
X4.0213Y-3.2612
X1.7712Y-1.7612
X4.0213Y-2.5112
X7.0213Y-3.2612
X4.7713Y-1.0112
X1.7712Y-1.0112
X5.5213Y-2.5112
X2.5212Y-3.2612
X6.2713Y-2.5112
X7.7713Y-1.7612
X7.0213Y-2.5112
X7.7713Y-1.0112
X5.5213Y-1.7612
T0
M30
