G04 #@! TF.GenerationSoftware,KiCad,Pcbnew,(5.1.4-0)*
G04 #@! TF.CreationDate,2021-02-22T20:17:48-07:00*
G04 #@! TF.ProjectId,electrolyte,656c6563-7472-46f6-9c79-74652e6b6963,rev?*
G04 #@! TF.SameCoordinates,Original*
G04 #@! TF.FileFunction,Legend,Bot*
G04 #@! TF.FilePolarity,Positive*
%FSLAX46Y46*%
G04 Gerber Fmt 4.6, Leading zero omitted, Abs format (unit mm)*
G04 Created by KiCad (PCBNEW (5.1.4-0)) date 2021-02-22 20:17:48*
%MOMM*%
%LPD*%
G04 APERTURE LIST*
%ADD10C,0.150000*%
%ADD11C,0.381000*%
%ADD12C,4.502000*%
%ADD13C,2.352000*%
%ADD14C,4.089800*%
%ADD15C,1.852000*%
%ADD16C,1.854600*%
%ADD17R,1.854600X1.854600*%
%ADD18R,1.702000X1.702000*%
%ADD19C,1.702000*%
%ADD20R,1.302000X1.702000*%
G04 APERTURE END LIST*
D10*
X126515190Y-54157571D02*
X126181857Y-54157571D01*
X126039000Y-54681380D02*
X126515190Y-54681380D01*
X126515190Y-53681380D01*
X126039000Y-53681380D01*
X125467571Y-54681380D02*
X125562809Y-54633761D01*
X125610428Y-54538523D01*
X125610428Y-53681380D01*
X124705666Y-54633761D02*
X124800904Y-54681380D01*
X124991380Y-54681380D01*
X125086619Y-54633761D01*
X125134238Y-54538523D01*
X125134238Y-54157571D01*
X125086619Y-54062333D01*
X124991380Y-54014714D01*
X124800904Y-54014714D01*
X124705666Y-54062333D01*
X124658047Y-54157571D01*
X124658047Y-54252809D01*
X125134238Y-54348047D01*
X123800904Y-54633761D02*
X123896142Y-54681380D01*
X124086619Y-54681380D01*
X124181857Y-54633761D01*
X124229476Y-54586142D01*
X124277095Y-54490904D01*
X124277095Y-54205190D01*
X124229476Y-54109952D01*
X124181857Y-54062333D01*
X124086619Y-54014714D01*
X123896142Y-54014714D01*
X123800904Y-54062333D01*
X123515190Y-54014714D02*
X123134238Y-54014714D01*
X123372333Y-53681380D02*
X123372333Y-54538523D01*
X123324714Y-54633761D01*
X123229476Y-54681380D01*
X123134238Y-54681380D01*
X122800904Y-54681380D02*
X122800904Y-54014714D01*
X122800904Y-54205190D02*
X122753285Y-54109952D01*
X122705666Y-54062333D01*
X122610428Y-54014714D01*
X122515190Y-54014714D01*
X122039000Y-54681380D02*
X122134238Y-54633761D01*
X122181857Y-54586142D01*
X122229476Y-54490904D01*
X122229476Y-54205190D01*
X122181857Y-54109952D01*
X122134238Y-54062333D01*
X122039000Y-54014714D01*
X121896142Y-54014714D01*
X121800904Y-54062333D01*
X121753285Y-54109952D01*
X121705666Y-54205190D01*
X121705666Y-54490904D01*
X121753285Y-54586142D01*
X121800904Y-54633761D01*
X121896142Y-54681380D01*
X122039000Y-54681380D01*
X121134238Y-54681380D02*
X121229476Y-54633761D01*
X121277095Y-54538523D01*
X121277095Y-53681380D01*
X120848523Y-54014714D02*
X120610428Y-54681380D01*
X120372333Y-54014714D02*
X120610428Y-54681380D01*
X120705666Y-54919476D01*
X120753285Y-54967095D01*
X120848523Y-55014714D01*
X120134238Y-54014714D02*
X119753285Y-54014714D01*
X119991380Y-53681380D02*
X119991380Y-54538523D01*
X119943761Y-54633761D01*
X119848523Y-54681380D01*
X119753285Y-54681380D01*
X119039000Y-54633761D02*
X119134238Y-54681380D01*
X119324714Y-54681380D01*
X119419952Y-54633761D01*
X119467571Y-54538523D01*
X119467571Y-54157571D01*
X119419952Y-54062333D01*
X119324714Y-54014714D01*
X119134238Y-54014714D01*
X119039000Y-54062333D01*
X118991380Y-54157571D01*
X118991380Y-54252809D01*
X119467571Y-54348047D01*
X117896142Y-54014714D02*
X117658047Y-54681380D01*
X117419952Y-54014714D01*
X116515190Y-54681380D02*
X117086619Y-54681380D01*
X116800904Y-54681380D02*
X116800904Y-53681380D01*
X116896142Y-53824238D01*
X116991380Y-53919476D01*
X117086619Y-53967095D01*
X106933047Y-54681380D02*
X106933047Y-53681380D01*
X106694952Y-53681380D01*
X106552095Y-53729000D01*
X106456857Y-53824238D01*
X106409238Y-53919476D01*
X106361619Y-54109952D01*
X106361619Y-54252809D01*
X106409238Y-54443285D01*
X106456857Y-54538523D01*
X106552095Y-54633761D01*
X106694952Y-54681380D01*
X106933047Y-54681380D01*
X105552095Y-54633761D02*
X105647333Y-54681380D01*
X105837809Y-54681380D01*
X105933047Y-54633761D01*
X105980666Y-54538523D01*
X105980666Y-54157571D01*
X105933047Y-54062333D01*
X105837809Y-54014714D01*
X105647333Y-54014714D01*
X105552095Y-54062333D01*
X105504476Y-54157571D01*
X105504476Y-54252809D01*
X105980666Y-54348047D01*
X105123523Y-54633761D02*
X105028285Y-54681380D01*
X104837809Y-54681380D01*
X104742571Y-54633761D01*
X104694952Y-54538523D01*
X104694952Y-54490904D01*
X104742571Y-54395666D01*
X104837809Y-54348047D01*
X104980666Y-54348047D01*
X105075904Y-54300428D01*
X105123523Y-54205190D01*
X105123523Y-54157571D01*
X105075904Y-54062333D01*
X104980666Y-54014714D01*
X104837809Y-54014714D01*
X104742571Y-54062333D01*
X104266380Y-54681380D02*
X104266380Y-54014714D01*
X104266380Y-53681380D02*
X104314000Y-53729000D01*
X104266380Y-53776619D01*
X104218761Y-53729000D01*
X104266380Y-53681380D01*
X104266380Y-53776619D01*
X103361619Y-54014714D02*
X103361619Y-54824238D01*
X103409238Y-54919476D01*
X103456857Y-54967095D01*
X103552095Y-55014714D01*
X103694952Y-55014714D01*
X103790190Y-54967095D01*
X103361619Y-54633761D02*
X103456857Y-54681380D01*
X103647333Y-54681380D01*
X103742571Y-54633761D01*
X103790190Y-54586142D01*
X103837809Y-54490904D01*
X103837809Y-54205190D01*
X103790190Y-54109952D01*
X103742571Y-54062333D01*
X103647333Y-54014714D01*
X103456857Y-54014714D01*
X103361619Y-54062333D01*
X102885428Y-54014714D02*
X102885428Y-54681380D01*
X102885428Y-54109952D02*
X102837809Y-54062333D01*
X102742571Y-54014714D01*
X102599714Y-54014714D01*
X102504476Y-54062333D01*
X102456857Y-54157571D01*
X102456857Y-54681380D01*
X101599714Y-54633761D02*
X101694952Y-54681380D01*
X101885428Y-54681380D01*
X101980666Y-54633761D01*
X102028285Y-54538523D01*
X102028285Y-54157571D01*
X101980666Y-54062333D01*
X101885428Y-54014714D01*
X101694952Y-54014714D01*
X101599714Y-54062333D01*
X101552095Y-54157571D01*
X101552095Y-54252809D01*
X102028285Y-54348047D01*
X100694952Y-54681380D02*
X100694952Y-53681380D01*
X100694952Y-54633761D02*
X100790190Y-54681380D01*
X100980666Y-54681380D01*
X101075904Y-54633761D01*
X101123523Y-54586142D01*
X101171142Y-54490904D01*
X101171142Y-54205190D01*
X101123523Y-54109952D01*
X101075904Y-54062333D01*
X100980666Y-54014714D01*
X100790190Y-54014714D01*
X100694952Y-54062333D01*
X99456857Y-54681380D02*
X99456857Y-53681380D01*
X99456857Y-54062333D02*
X99361619Y-54014714D01*
X99171142Y-54014714D01*
X99075904Y-54062333D01*
X99028285Y-54109952D01*
X98980666Y-54205190D01*
X98980666Y-54490904D01*
X99028285Y-54586142D01*
X99075904Y-54633761D01*
X99171142Y-54681380D01*
X99361619Y-54681380D01*
X99456857Y-54633761D01*
X98647333Y-54014714D02*
X98409238Y-54681380D01*
X98171142Y-54014714D02*
X98409238Y-54681380D01*
X98504476Y-54919476D01*
X98552095Y-54967095D01*
X98647333Y-55014714D01*
X97028285Y-54681380D02*
X97028285Y-54014714D01*
X97028285Y-54205190D02*
X96980666Y-54109952D01*
X96933047Y-54062333D01*
X96837809Y-54014714D01*
X96742571Y-54014714D01*
X96266380Y-54681380D02*
X96361619Y-54633761D01*
X96409238Y-54538523D01*
X96409238Y-53681380D01*
X95885428Y-54681380D02*
X95885428Y-53681380D01*
X95885428Y-54062333D02*
X95790190Y-54014714D01*
X95599714Y-54014714D01*
X95504476Y-54062333D01*
X95456857Y-54109952D01*
X95409238Y-54205190D01*
X95409238Y-54490904D01*
X95456857Y-54586142D01*
X95504476Y-54633761D01*
X95599714Y-54681380D01*
X95790190Y-54681380D01*
X95885428Y-54633761D01*
X94552095Y-54681380D02*
X94552095Y-54157571D01*
X94599714Y-54062333D01*
X94694952Y-54014714D01*
X94885428Y-54014714D01*
X94980666Y-54062333D01*
X94552095Y-54633761D02*
X94647333Y-54681380D01*
X94885428Y-54681380D01*
X94980666Y-54633761D01*
X95028285Y-54538523D01*
X95028285Y-54443285D01*
X94980666Y-54348047D01*
X94885428Y-54300428D01*
X94647333Y-54300428D01*
X94552095Y-54252809D01*
X94171142Y-54681380D02*
X93647333Y-54014714D01*
X94171142Y-54014714D02*
X93647333Y-54681380D01*
X93409238Y-54014714D02*
X93028285Y-54014714D01*
X93266380Y-53681380D02*
X93266380Y-54538523D01*
X93218761Y-54633761D01*
X93123523Y-54681380D01*
X93028285Y-54681380D01*
X92314000Y-54633761D02*
X92409238Y-54681380D01*
X92599714Y-54681380D01*
X92694952Y-54633761D01*
X92742571Y-54538523D01*
X92742571Y-54157571D01*
X92694952Y-54062333D01*
X92599714Y-54014714D01*
X92409238Y-54014714D01*
X92314000Y-54062333D01*
X92266380Y-54157571D01*
X92266380Y-54252809D01*
X92742571Y-54348047D01*
X91837809Y-54681380D02*
X91837809Y-54014714D01*
X91837809Y-54205190D02*
X91790190Y-54109952D01*
X91742571Y-54062333D01*
X91647333Y-54014714D01*
X91552095Y-54014714D01*
D11*
X38639750Y-19970750D02*
X36099750Y-19970750D01*
X53879750Y-17430750D02*
X36099750Y-17430750D01*
X36099750Y-17430750D02*
X36099750Y-50450750D01*
X36099750Y-50450750D02*
X53879750Y-50450750D01*
X53879750Y-50450750D02*
X53879750Y-17430750D01*
D10*
G36*
X50834385Y-25859780D02*
G01*
X50834385Y-25959780D01*
X51334385Y-25959780D01*
X51334385Y-25859780D01*
X50834385Y-25859780D01*
G37*
X50834385Y-25859780D02*
X50834385Y-25959780D01*
X51334385Y-25959780D01*
X51334385Y-25859780D01*
X50834385Y-25859780D01*
G36*
X50834385Y-25859780D02*
G01*
X50834385Y-26159780D01*
X50934385Y-26159780D01*
X50934385Y-25859780D01*
X50834385Y-25859780D01*
G37*
X50834385Y-25859780D02*
X50834385Y-26159780D01*
X50934385Y-26159780D01*
X50934385Y-25859780D01*
X50834385Y-25859780D01*
G36*
X50834385Y-26459780D02*
G01*
X50834385Y-26659780D01*
X50934385Y-26659780D01*
X50934385Y-26459780D01*
X50834385Y-26459780D01*
G37*
X50834385Y-26459780D02*
X50834385Y-26659780D01*
X50934385Y-26659780D01*
X50934385Y-26459780D01*
X50834385Y-26459780D01*
G36*
X51234385Y-25859780D02*
G01*
X51234385Y-26659780D01*
X51334385Y-26659780D01*
X51334385Y-25859780D01*
X51234385Y-25859780D01*
G37*
X51234385Y-25859780D02*
X51234385Y-26659780D01*
X51334385Y-26659780D01*
X51334385Y-25859780D01*
X51234385Y-25859780D01*
G36*
X51034385Y-26259780D02*
G01*
X51034385Y-26359780D01*
X51134385Y-26359780D01*
X51134385Y-26259780D01*
X51034385Y-26259780D01*
G37*
X51034385Y-26259780D02*
X51034385Y-26359780D01*
X51134385Y-26359780D01*
X51134385Y-26259780D01*
X51034385Y-26259780D01*
D11*
X38639750Y-19970750D02*
X38639750Y-22510750D01*
X38639750Y-22510750D02*
X36099750Y-22510750D01*
D10*
X188499750Y-80422750D02*
X188499750Y-85502750D01*
X188499750Y-85502750D02*
X190023750Y-85502750D01*
X190023750Y-85502750D02*
X190023750Y-80422750D01*
X190023750Y-80422750D02*
X188499750Y-80422750D01*
X188499750Y-85121750D02*
X190023750Y-85121750D01*
X190023750Y-85248750D02*
X188499750Y-85248750D01*
X188499750Y-85375750D02*
X190023750Y-85375750D01*
X190023750Y-84994750D02*
X188499750Y-84994750D01*
X188499750Y-84867750D02*
X190023750Y-84867750D01*
X188499750Y-84740750D02*
X190023750Y-84740750D01*
X188499750Y-61372750D02*
X188499750Y-66452750D01*
X188499750Y-66452750D02*
X190023750Y-66452750D01*
X190023750Y-66452750D02*
X190023750Y-61372750D01*
X190023750Y-61372750D02*
X188499750Y-61372750D01*
X188499750Y-66071750D02*
X190023750Y-66071750D01*
X190023750Y-66198750D02*
X188499750Y-66198750D01*
X188499750Y-66325750D02*
X190023750Y-66325750D01*
X190023750Y-65944750D02*
X188499750Y-65944750D01*
X188499750Y-65817750D02*
X190023750Y-65817750D01*
X188499750Y-65690750D02*
X190023750Y-65690750D01*
X188499750Y-42322750D02*
X188499750Y-47402750D01*
X188499750Y-47402750D02*
X190023750Y-47402750D01*
X190023750Y-47402750D02*
X190023750Y-42322750D01*
X190023750Y-42322750D02*
X188499750Y-42322750D01*
X188499750Y-47021750D02*
X190023750Y-47021750D01*
X190023750Y-47148750D02*
X188499750Y-47148750D01*
X188499750Y-47275750D02*
X190023750Y-47275750D01*
X190023750Y-46894750D02*
X188499750Y-46894750D01*
X188499750Y-46767750D02*
X190023750Y-46767750D01*
X188499750Y-46640750D02*
X190023750Y-46640750D01*
X188499750Y-23272750D02*
X188499750Y-28352750D01*
X188499750Y-28352750D02*
X190023750Y-28352750D01*
X190023750Y-28352750D02*
X190023750Y-23272750D01*
X190023750Y-23272750D02*
X188499750Y-23272750D01*
X188499750Y-27971750D02*
X190023750Y-27971750D01*
X190023750Y-28098750D02*
X188499750Y-28098750D01*
X188499750Y-28225750D02*
X190023750Y-28225750D01*
X190023750Y-27844750D02*
X188499750Y-27844750D01*
X188499750Y-27717750D02*
X190023750Y-27717750D01*
X188499750Y-27590750D02*
X190023750Y-27590750D01*
X185705750Y-80422750D02*
X185705750Y-85502750D01*
X185705750Y-85502750D02*
X187229750Y-85502750D01*
X187229750Y-85502750D02*
X187229750Y-80422750D01*
X187229750Y-80422750D02*
X185705750Y-80422750D01*
X185705750Y-85121750D02*
X187229750Y-85121750D01*
X187229750Y-85248750D02*
X185705750Y-85248750D01*
X185705750Y-85375750D02*
X187229750Y-85375750D01*
X187229750Y-84994750D02*
X185705750Y-84994750D01*
X185705750Y-84867750D02*
X187229750Y-84867750D01*
X185705750Y-84740750D02*
X187229750Y-84740750D01*
X185705750Y-61372750D02*
X185705750Y-66452750D01*
X185705750Y-66452750D02*
X187229750Y-66452750D01*
X187229750Y-66452750D02*
X187229750Y-61372750D01*
X187229750Y-61372750D02*
X185705750Y-61372750D01*
X185705750Y-66071750D02*
X187229750Y-66071750D01*
X187229750Y-66198750D02*
X185705750Y-66198750D01*
X185705750Y-66325750D02*
X187229750Y-66325750D01*
X187229750Y-65944750D02*
X185705750Y-65944750D01*
X185705750Y-65817750D02*
X187229750Y-65817750D01*
X185705750Y-65690750D02*
X187229750Y-65690750D01*
X185705750Y-42322750D02*
X185705750Y-47402750D01*
X185705750Y-47402750D02*
X187229750Y-47402750D01*
X187229750Y-47402750D02*
X187229750Y-42322750D01*
X187229750Y-42322750D02*
X185705750Y-42322750D01*
X185705750Y-47021750D02*
X187229750Y-47021750D01*
X187229750Y-47148750D02*
X185705750Y-47148750D01*
X185705750Y-47275750D02*
X187229750Y-47275750D01*
X187229750Y-46894750D02*
X185705750Y-46894750D01*
X185705750Y-46767750D02*
X187229750Y-46767750D01*
X185705750Y-46640750D02*
X187229750Y-46640750D01*
X185705750Y-23272750D02*
X185705750Y-28352750D01*
X185705750Y-28352750D02*
X187229750Y-28352750D01*
X187229750Y-28352750D02*
X187229750Y-23272750D01*
X187229750Y-23272750D02*
X185705750Y-23272750D01*
X185705750Y-27971750D02*
X187229750Y-27971750D01*
X187229750Y-28098750D02*
X185705750Y-28098750D01*
X185705750Y-28225750D02*
X187229750Y-28225750D01*
X187229750Y-27844750D02*
X185705750Y-27844750D01*
X185705750Y-27717750D02*
X187229750Y-27717750D01*
X185705750Y-27590750D02*
X187229750Y-27590750D01*
X166655750Y-80422750D02*
X166655750Y-85502750D01*
X166655750Y-85502750D02*
X168179750Y-85502750D01*
X168179750Y-85502750D02*
X168179750Y-80422750D01*
X168179750Y-80422750D02*
X166655750Y-80422750D01*
X166655750Y-85121750D02*
X168179750Y-85121750D01*
X168179750Y-85248750D02*
X166655750Y-85248750D01*
X166655750Y-85375750D02*
X168179750Y-85375750D01*
X168179750Y-84994750D02*
X166655750Y-84994750D01*
X166655750Y-84867750D02*
X168179750Y-84867750D01*
X166655750Y-84740750D02*
X168179750Y-84740750D01*
X166655750Y-61372750D02*
X166655750Y-66452750D01*
X166655750Y-66452750D02*
X168179750Y-66452750D01*
X168179750Y-66452750D02*
X168179750Y-61372750D01*
X168179750Y-61372750D02*
X166655750Y-61372750D01*
X166655750Y-66071750D02*
X168179750Y-66071750D01*
X168179750Y-66198750D02*
X166655750Y-66198750D01*
X166655750Y-66325750D02*
X168179750Y-66325750D01*
X168179750Y-65944750D02*
X166655750Y-65944750D01*
X166655750Y-65817750D02*
X168179750Y-65817750D01*
X166655750Y-65690750D02*
X168179750Y-65690750D01*
X166655750Y-42322750D02*
X166655750Y-47402750D01*
X166655750Y-47402750D02*
X168179750Y-47402750D01*
X168179750Y-47402750D02*
X168179750Y-42322750D01*
X168179750Y-42322750D02*
X166655750Y-42322750D01*
X166655750Y-47021750D02*
X168179750Y-47021750D01*
X168179750Y-47148750D02*
X166655750Y-47148750D01*
X166655750Y-47275750D02*
X168179750Y-47275750D01*
X168179750Y-46894750D02*
X166655750Y-46894750D01*
X166655750Y-46767750D02*
X168179750Y-46767750D01*
X166655750Y-46640750D02*
X168179750Y-46640750D01*
X166655750Y-23272750D02*
X166655750Y-28352750D01*
X166655750Y-28352750D02*
X168179750Y-28352750D01*
X168179750Y-28352750D02*
X168179750Y-23272750D01*
X168179750Y-23272750D02*
X166655750Y-23272750D01*
X166655750Y-27971750D02*
X168179750Y-27971750D01*
X168179750Y-28098750D02*
X166655750Y-28098750D01*
X166655750Y-28225750D02*
X168179750Y-28225750D01*
X168179750Y-27844750D02*
X166655750Y-27844750D01*
X166655750Y-27717750D02*
X168179750Y-27717750D01*
X166655750Y-27590750D02*
X168179750Y-27590750D01*
X147605750Y-80422750D02*
X147605750Y-85502750D01*
X147605750Y-85502750D02*
X149129750Y-85502750D01*
X149129750Y-85502750D02*
X149129750Y-80422750D01*
X149129750Y-80422750D02*
X147605750Y-80422750D01*
X147605750Y-85121750D02*
X149129750Y-85121750D01*
X149129750Y-85248750D02*
X147605750Y-85248750D01*
X147605750Y-85375750D02*
X149129750Y-85375750D01*
X149129750Y-84994750D02*
X147605750Y-84994750D01*
X147605750Y-84867750D02*
X149129750Y-84867750D01*
X147605750Y-84740750D02*
X149129750Y-84740750D01*
X147605750Y-61372750D02*
X147605750Y-66452750D01*
X147605750Y-66452750D02*
X149129750Y-66452750D01*
X149129750Y-66452750D02*
X149129750Y-61372750D01*
X149129750Y-61372750D02*
X147605750Y-61372750D01*
X147605750Y-66071750D02*
X149129750Y-66071750D01*
X149129750Y-66198750D02*
X147605750Y-66198750D01*
X147605750Y-66325750D02*
X149129750Y-66325750D01*
X149129750Y-65944750D02*
X147605750Y-65944750D01*
X147605750Y-65817750D02*
X149129750Y-65817750D01*
X147605750Y-65690750D02*
X149129750Y-65690750D01*
X147605750Y-42322750D02*
X147605750Y-47402750D01*
X147605750Y-47402750D02*
X149129750Y-47402750D01*
X149129750Y-47402750D02*
X149129750Y-42322750D01*
X149129750Y-42322750D02*
X147605750Y-42322750D01*
X147605750Y-47021750D02*
X149129750Y-47021750D01*
X149129750Y-47148750D02*
X147605750Y-47148750D01*
X147605750Y-47275750D02*
X149129750Y-47275750D01*
X149129750Y-46894750D02*
X147605750Y-46894750D01*
X147605750Y-46767750D02*
X149129750Y-46767750D01*
X147605750Y-46640750D02*
X149129750Y-46640750D01*
X147605750Y-23272750D02*
X147605750Y-28352750D01*
X147605750Y-28352750D02*
X149129750Y-28352750D01*
X149129750Y-28352750D02*
X149129750Y-23272750D01*
X149129750Y-23272750D02*
X147605750Y-23272750D01*
X147605750Y-27971750D02*
X149129750Y-27971750D01*
X149129750Y-28098750D02*
X147605750Y-28098750D01*
X147605750Y-28225750D02*
X149129750Y-28225750D01*
X149129750Y-27844750D02*
X147605750Y-27844750D01*
X147605750Y-27717750D02*
X149129750Y-27717750D01*
X147605750Y-27590750D02*
X149129750Y-27590750D01*
X128555750Y-80422750D02*
X128555750Y-85502750D01*
X128555750Y-85502750D02*
X130079750Y-85502750D01*
X130079750Y-85502750D02*
X130079750Y-80422750D01*
X130079750Y-80422750D02*
X128555750Y-80422750D01*
X128555750Y-85121750D02*
X130079750Y-85121750D01*
X130079750Y-85248750D02*
X128555750Y-85248750D01*
X128555750Y-85375750D02*
X130079750Y-85375750D01*
X130079750Y-84994750D02*
X128555750Y-84994750D01*
X128555750Y-84867750D02*
X130079750Y-84867750D01*
X128555750Y-84740750D02*
X130079750Y-84740750D01*
X128555750Y-61372750D02*
X128555750Y-66452750D01*
X128555750Y-66452750D02*
X130079750Y-66452750D01*
X130079750Y-66452750D02*
X130079750Y-61372750D01*
X130079750Y-61372750D02*
X128555750Y-61372750D01*
X128555750Y-66071750D02*
X130079750Y-66071750D01*
X130079750Y-66198750D02*
X128555750Y-66198750D01*
X128555750Y-66325750D02*
X130079750Y-66325750D01*
X130079750Y-65944750D02*
X128555750Y-65944750D01*
X128555750Y-65817750D02*
X130079750Y-65817750D01*
X128555750Y-65690750D02*
X130079750Y-65690750D01*
X128555750Y-42322750D02*
X128555750Y-47402750D01*
X128555750Y-47402750D02*
X130079750Y-47402750D01*
X130079750Y-47402750D02*
X130079750Y-42322750D01*
X130079750Y-42322750D02*
X128555750Y-42322750D01*
X128555750Y-47021750D02*
X130079750Y-47021750D01*
X130079750Y-47148750D02*
X128555750Y-47148750D01*
X128555750Y-47275750D02*
X130079750Y-47275750D01*
X130079750Y-46894750D02*
X128555750Y-46894750D01*
X128555750Y-46767750D02*
X130079750Y-46767750D01*
X128555750Y-46640750D02*
X130079750Y-46640750D01*
X128555750Y-23272750D02*
X128555750Y-28352750D01*
X128555750Y-28352750D02*
X130079750Y-28352750D01*
X130079750Y-28352750D02*
X130079750Y-23272750D01*
X130079750Y-23272750D02*
X128555750Y-23272750D01*
X128555750Y-27971750D02*
X130079750Y-27971750D01*
X130079750Y-28098750D02*
X128555750Y-28098750D01*
X128555750Y-28225750D02*
X130079750Y-28225750D01*
X130079750Y-27844750D02*
X128555750Y-27844750D01*
X128555750Y-27717750D02*
X130079750Y-27717750D01*
X128555750Y-27590750D02*
X130079750Y-27590750D01*
X109505750Y-80422750D02*
X109505750Y-85502750D01*
X109505750Y-85502750D02*
X111029750Y-85502750D01*
X111029750Y-85502750D02*
X111029750Y-80422750D01*
X111029750Y-80422750D02*
X109505750Y-80422750D01*
X109505750Y-85121750D02*
X111029750Y-85121750D01*
X111029750Y-85248750D02*
X109505750Y-85248750D01*
X109505750Y-85375750D02*
X111029750Y-85375750D01*
X111029750Y-84994750D02*
X109505750Y-84994750D01*
X109505750Y-84867750D02*
X111029750Y-84867750D01*
X109505750Y-84740750D02*
X111029750Y-84740750D01*
X109505750Y-61372750D02*
X109505750Y-66452750D01*
X109505750Y-66452750D02*
X111029750Y-66452750D01*
X111029750Y-66452750D02*
X111029750Y-61372750D01*
X111029750Y-61372750D02*
X109505750Y-61372750D01*
X109505750Y-66071750D02*
X111029750Y-66071750D01*
X111029750Y-66198750D02*
X109505750Y-66198750D01*
X109505750Y-66325750D02*
X111029750Y-66325750D01*
X111029750Y-65944750D02*
X109505750Y-65944750D01*
X109505750Y-65817750D02*
X111029750Y-65817750D01*
X109505750Y-65690750D02*
X111029750Y-65690750D01*
X109505750Y-42322750D02*
X109505750Y-47402750D01*
X109505750Y-47402750D02*
X111029750Y-47402750D01*
X111029750Y-47402750D02*
X111029750Y-42322750D01*
X111029750Y-42322750D02*
X109505750Y-42322750D01*
X109505750Y-47021750D02*
X111029750Y-47021750D01*
X111029750Y-47148750D02*
X109505750Y-47148750D01*
X109505750Y-47275750D02*
X111029750Y-47275750D01*
X111029750Y-46894750D02*
X109505750Y-46894750D01*
X109505750Y-46767750D02*
X111029750Y-46767750D01*
X109505750Y-46640750D02*
X111029750Y-46640750D01*
X109505750Y-23272750D02*
X109505750Y-28352750D01*
X109505750Y-28352750D02*
X111029750Y-28352750D01*
X111029750Y-28352750D02*
X111029750Y-23272750D01*
X111029750Y-23272750D02*
X109505750Y-23272750D01*
X109505750Y-27971750D02*
X111029750Y-27971750D01*
X111029750Y-28098750D02*
X109505750Y-28098750D01*
X109505750Y-28225750D02*
X111029750Y-28225750D01*
X111029750Y-27844750D02*
X109505750Y-27844750D01*
X109505750Y-27717750D02*
X111029750Y-27717750D01*
X109505750Y-27590750D02*
X111029750Y-27590750D01*
X90455750Y-80422750D02*
X90455750Y-85502750D01*
X90455750Y-85502750D02*
X91979750Y-85502750D01*
X91979750Y-85502750D02*
X91979750Y-80422750D01*
X91979750Y-80422750D02*
X90455750Y-80422750D01*
X90455750Y-85121750D02*
X91979750Y-85121750D01*
X91979750Y-85248750D02*
X90455750Y-85248750D01*
X90455750Y-85375750D02*
X91979750Y-85375750D01*
X91979750Y-84994750D02*
X90455750Y-84994750D01*
X90455750Y-84867750D02*
X91979750Y-84867750D01*
X90455750Y-84740750D02*
X91979750Y-84740750D01*
X90455750Y-61372750D02*
X90455750Y-66452750D01*
X90455750Y-66452750D02*
X91979750Y-66452750D01*
X91979750Y-66452750D02*
X91979750Y-61372750D01*
X91979750Y-61372750D02*
X90455750Y-61372750D01*
X90455750Y-66071750D02*
X91979750Y-66071750D01*
X91979750Y-66198750D02*
X90455750Y-66198750D01*
X90455750Y-66325750D02*
X91979750Y-66325750D01*
X91979750Y-65944750D02*
X90455750Y-65944750D01*
X90455750Y-65817750D02*
X91979750Y-65817750D01*
X90455750Y-65690750D02*
X91979750Y-65690750D01*
X90455750Y-42322750D02*
X90455750Y-47402750D01*
X90455750Y-47402750D02*
X91979750Y-47402750D01*
X91979750Y-47402750D02*
X91979750Y-42322750D01*
X91979750Y-42322750D02*
X90455750Y-42322750D01*
X90455750Y-47021750D02*
X91979750Y-47021750D01*
X91979750Y-47148750D02*
X90455750Y-47148750D01*
X90455750Y-47275750D02*
X91979750Y-47275750D01*
X91979750Y-46894750D02*
X90455750Y-46894750D01*
X90455750Y-46767750D02*
X91979750Y-46767750D01*
X90455750Y-46640750D02*
X91979750Y-46640750D01*
X90455750Y-23272750D02*
X90455750Y-28352750D01*
X90455750Y-28352750D02*
X91979750Y-28352750D01*
X91979750Y-28352750D02*
X91979750Y-23272750D01*
X91979750Y-23272750D02*
X90455750Y-23272750D01*
X90455750Y-27971750D02*
X91979750Y-27971750D01*
X91979750Y-28098750D02*
X90455750Y-28098750D01*
X90455750Y-28225750D02*
X91979750Y-28225750D01*
X91979750Y-27844750D02*
X90455750Y-27844750D01*
X90455750Y-27717750D02*
X91979750Y-27717750D01*
X90455750Y-27590750D02*
X91979750Y-27590750D01*
X71405750Y-80422750D02*
X71405750Y-85502750D01*
X71405750Y-85502750D02*
X72929750Y-85502750D01*
X72929750Y-85502750D02*
X72929750Y-80422750D01*
X72929750Y-80422750D02*
X71405750Y-80422750D01*
X71405750Y-85121750D02*
X72929750Y-85121750D01*
X72929750Y-85248750D02*
X71405750Y-85248750D01*
X71405750Y-85375750D02*
X72929750Y-85375750D01*
X72929750Y-84994750D02*
X71405750Y-84994750D01*
X71405750Y-84867750D02*
X72929750Y-84867750D01*
X71405750Y-84740750D02*
X72929750Y-84740750D01*
X71405750Y-61372750D02*
X71405750Y-66452750D01*
X71405750Y-66452750D02*
X72929750Y-66452750D01*
X72929750Y-66452750D02*
X72929750Y-61372750D01*
X72929750Y-61372750D02*
X71405750Y-61372750D01*
X71405750Y-66071750D02*
X72929750Y-66071750D01*
X72929750Y-66198750D02*
X71405750Y-66198750D01*
X71405750Y-66325750D02*
X72929750Y-66325750D01*
X72929750Y-65944750D02*
X71405750Y-65944750D01*
X71405750Y-65817750D02*
X72929750Y-65817750D01*
X71405750Y-65690750D02*
X72929750Y-65690750D01*
X71405750Y-42322750D02*
X71405750Y-47402750D01*
X71405750Y-47402750D02*
X72929750Y-47402750D01*
X72929750Y-47402750D02*
X72929750Y-42322750D01*
X72929750Y-42322750D02*
X71405750Y-42322750D01*
X71405750Y-47021750D02*
X72929750Y-47021750D01*
X72929750Y-47148750D02*
X71405750Y-47148750D01*
X71405750Y-47275750D02*
X72929750Y-47275750D01*
X72929750Y-46894750D02*
X71405750Y-46894750D01*
X71405750Y-46767750D02*
X72929750Y-46767750D01*
X71405750Y-46640750D02*
X72929750Y-46640750D01*
X71405750Y-23272750D02*
X71405750Y-28352750D01*
X71405750Y-28352750D02*
X72929750Y-28352750D01*
X72929750Y-28352750D02*
X72929750Y-23272750D01*
X72929750Y-23272750D02*
X71405750Y-23272750D01*
X71405750Y-27971750D02*
X72929750Y-27971750D01*
X72929750Y-28098750D02*
X71405750Y-28098750D01*
X71405750Y-28225750D02*
X72929750Y-28225750D01*
X72929750Y-27844750D02*
X71405750Y-27844750D01*
X71405750Y-27717750D02*
X72929750Y-27717750D01*
X71405750Y-27590750D02*
X72929750Y-27590750D01*
X55149750Y-80422750D02*
X55149750Y-85502750D01*
X55149750Y-85502750D02*
X56673750Y-85502750D01*
X56673750Y-85502750D02*
X56673750Y-80422750D01*
X56673750Y-80422750D02*
X55149750Y-80422750D01*
X55149750Y-85121750D02*
X56673750Y-85121750D01*
X56673750Y-85248750D02*
X55149750Y-85248750D01*
X55149750Y-85375750D02*
X56673750Y-85375750D01*
X56673750Y-84994750D02*
X55149750Y-84994750D01*
X55149750Y-84867750D02*
X56673750Y-84867750D01*
X55149750Y-84740750D02*
X56673750Y-84740750D01*
X55149750Y-61372750D02*
X55149750Y-66452750D01*
X55149750Y-66452750D02*
X56673750Y-66452750D01*
X56673750Y-66452750D02*
X56673750Y-61372750D01*
X56673750Y-61372750D02*
X55149750Y-61372750D01*
X55149750Y-66071750D02*
X56673750Y-66071750D01*
X56673750Y-66198750D02*
X55149750Y-66198750D01*
X55149750Y-66325750D02*
X56673750Y-66325750D01*
X56673750Y-65944750D02*
X55149750Y-65944750D01*
X55149750Y-65817750D02*
X56673750Y-65817750D01*
X55149750Y-65690750D02*
X56673750Y-65690750D01*
X55149750Y-42322750D02*
X55149750Y-47402750D01*
X55149750Y-47402750D02*
X56673750Y-47402750D01*
X56673750Y-47402750D02*
X56673750Y-42322750D01*
X56673750Y-42322750D02*
X55149750Y-42322750D01*
X55149750Y-47021750D02*
X56673750Y-47021750D01*
X56673750Y-47148750D02*
X55149750Y-47148750D01*
X55149750Y-47275750D02*
X56673750Y-47275750D01*
X56673750Y-46894750D02*
X55149750Y-46894750D01*
X55149750Y-46767750D02*
X56673750Y-46767750D01*
X55149750Y-46640750D02*
X56673750Y-46640750D01*
X55149750Y-23272750D02*
X55149750Y-28352750D01*
X55149750Y-28352750D02*
X56673750Y-28352750D01*
X56673750Y-28352750D02*
X56673750Y-23272750D01*
X56673750Y-23272750D02*
X55149750Y-23272750D01*
X55149750Y-27971750D02*
X56673750Y-27971750D01*
X56673750Y-28098750D02*
X55149750Y-28098750D01*
X55149750Y-28225750D02*
X56673750Y-28225750D01*
X56673750Y-27844750D02*
X55149750Y-27844750D01*
X55149750Y-27717750D02*
X56673750Y-27717750D01*
X55149750Y-27590750D02*
X56673750Y-27590750D01*
X33305750Y-80422750D02*
X33305750Y-85502750D01*
X33305750Y-85502750D02*
X34829750Y-85502750D01*
X34829750Y-85502750D02*
X34829750Y-80422750D01*
X34829750Y-80422750D02*
X33305750Y-80422750D01*
X33305750Y-85121750D02*
X34829750Y-85121750D01*
X34829750Y-85248750D02*
X33305750Y-85248750D01*
X33305750Y-85375750D02*
X34829750Y-85375750D01*
X34829750Y-84994750D02*
X33305750Y-84994750D01*
X33305750Y-84867750D02*
X34829750Y-84867750D01*
X33305750Y-84740750D02*
X34829750Y-84740750D01*
X33305750Y-61372750D02*
X33305750Y-66452750D01*
X33305750Y-66452750D02*
X34829750Y-66452750D01*
X34829750Y-66452750D02*
X34829750Y-61372750D01*
X34829750Y-61372750D02*
X33305750Y-61372750D01*
X33305750Y-66071750D02*
X34829750Y-66071750D01*
X34829750Y-66198750D02*
X33305750Y-66198750D01*
X33305750Y-66325750D02*
X34829750Y-66325750D01*
X34829750Y-65944750D02*
X33305750Y-65944750D01*
X33305750Y-65817750D02*
X34829750Y-65817750D01*
X33305750Y-65690750D02*
X34829750Y-65690750D01*
X33305750Y-42322750D02*
X33305750Y-47402750D01*
X33305750Y-47402750D02*
X34829750Y-47402750D01*
X34829750Y-47402750D02*
X34829750Y-42322750D01*
X34829750Y-42322750D02*
X33305750Y-42322750D01*
X33305750Y-47021750D02*
X34829750Y-47021750D01*
X34829750Y-47148750D02*
X33305750Y-47148750D01*
X33305750Y-47275750D02*
X34829750Y-47275750D01*
X34829750Y-46894750D02*
X33305750Y-46894750D01*
X33305750Y-46767750D02*
X34829750Y-46767750D01*
X33305750Y-46640750D02*
X34829750Y-46640750D01*
X33305750Y-23272750D02*
X33305750Y-28352750D01*
X33305750Y-28352750D02*
X34829750Y-28352750D01*
X34829750Y-28352750D02*
X34829750Y-23272750D01*
X34829750Y-23272750D02*
X33305750Y-23272750D01*
X33305750Y-27971750D02*
X34829750Y-27971750D01*
X34829750Y-28098750D02*
X33305750Y-28098750D01*
X33305750Y-28225750D02*
X34829750Y-28225750D01*
X34829750Y-27844750D02*
X33305750Y-27844750D01*
X33305750Y-27717750D02*
X34829750Y-27717750D01*
X33305750Y-27590750D02*
X34829750Y-27590750D01*
X50563083Y-26624559D02*
X50448797Y-26662654D01*
X50258321Y-26662654D01*
X50182130Y-26624559D01*
X50144035Y-26586464D01*
X50105940Y-26510273D01*
X50105940Y-26434083D01*
X50144035Y-26357892D01*
X50182130Y-26319797D01*
X50258321Y-26281702D01*
X50410702Y-26243607D01*
X50486892Y-26205511D01*
X50524988Y-26167416D01*
X50563083Y-26091226D01*
X50563083Y-26015035D01*
X50524988Y-25938845D01*
X50486892Y-25900750D01*
X50410702Y-25862654D01*
X50220226Y-25862654D01*
X50105940Y-25900750D01*
X49877369Y-25862654D02*
X49420226Y-25862654D01*
X49648797Y-26662654D02*
X49648797Y-25862654D01*
X43608354Y-20802654D02*
X43151211Y-20802654D01*
X43379782Y-21602654D02*
X43379782Y-20802654D01*
X42960735Y-20802654D02*
X42427401Y-21602654D01*
X42427401Y-20802654D02*
X42960735Y-21602654D01*
X41970258Y-20802654D02*
X41894068Y-20802654D01*
X41817878Y-20840750D01*
X41779782Y-20878845D01*
X41741687Y-20955035D01*
X41703592Y-21107416D01*
X41703592Y-21297892D01*
X41741687Y-21450273D01*
X41779782Y-21526464D01*
X41817878Y-21564559D01*
X41894068Y-21602654D01*
X41970258Y-21602654D01*
X42046449Y-21564559D01*
X42084544Y-21526464D01*
X42122639Y-21450273D01*
X42160735Y-21297892D01*
X42160735Y-21107416D01*
X42122639Y-20955035D01*
X42084544Y-20878845D01*
X42046449Y-20840750D01*
X41970258Y-20802654D01*
X40789306Y-20764559D02*
X41475020Y-21793130D01*
X40522639Y-21602654D02*
X40522639Y-20802654D01*
X40332163Y-20802654D01*
X40217878Y-20840750D01*
X40141687Y-20916940D01*
X40103592Y-20993130D01*
X40065497Y-21145511D01*
X40065497Y-21259797D01*
X40103592Y-21412178D01*
X40141687Y-21488369D01*
X40217878Y-21564559D01*
X40332163Y-21602654D01*
X40522639Y-21602654D01*
X39798830Y-20802654D02*
X39303592Y-20802654D01*
X39570258Y-21107416D01*
X39455973Y-21107416D01*
X39379782Y-21145511D01*
X39341687Y-21183607D01*
X39303592Y-21259797D01*
X39303592Y-21450273D01*
X39341687Y-21526464D01*
X39379782Y-21564559D01*
X39455973Y-21602654D01*
X39684544Y-21602654D01*
X39760735Y-21564559D01*
X39798830Y-21526464D01*
X50774559Y-46583607D02*
X50660273Y-46621702D01*
X50622178Y-46659797D01*
X50584083Y-46735988D01*
X50584083Y-46850273D01*
X50622178Y-46926464D01*
X50660273Y-46964559D01*
X50736464Y-47002654D01*
X51041226Y-47002654D01*
X51041226Y-46202654D01*
X50774559Y-46202654D01*
X50698369Y-46240750D01*
X50660273Y-46278845D01*
X50622178Y-46355035D01*
X50622178Y-46431226D01*
X50660273Y-46507416D01*
X50698369Y-46545511D01*
X50774559Y-46583607D01*
X51041226Y-46583607D01*
X50279321Y-46278845D02*
X50241226Y-46240750D01*
X50165035Y-46202654D01*
X49974559Y-46202654D01*
X49898369Y-46240750D01*
X49860273Y-46278845D01*
X49822178Y-46355035D01*
X49822178Y-46431226D01*
X49860273Y-46545511D01*
X50317416Y-47002654D01*
X49822178Y-47002654D01*
X50717416Y-38963607D02*
X50984083Y-38963607D01*
X50984083Y-39382654D02*
X50984083Y-38582654D01*
X50603130Y-38582654D01*
X50374559Y-38582654D02*
X49841226Y-38582654D01*
X50184083Y-39382654D01*
X50717416Y-36423607D02*
X50984083Y-36423607D01*
X50984083Y-36842654D02*
X50984083Y-36042654D01*
X50603130Y-36042654D01*
X49955511Y-36042654D02*
X50107892Y-36042654D01*
X50184083Y-36080750D01*
X50222178Y-36118845D01*
X50298369Y-36233130D01*
X50336464Y-36385511D01*
X50336464Y-36690273D01*
X50298369Y-36766464D01*
X50260273Y-36804559D01*
X50184083Y-36842654D01*
X50031702Y-36842654D01*
X49955511Y-36804559D01*
X49917416Y-36766464D01*
X49879321Y-36690273D01*
X49879321Y-36499797D01*
X49917416Y-36423607D01*
X49955511Y-36385511D01*
X50031702Y-36347416D01*
X50184083Y-36347416D01*
X50260273Y-36385511D01*
X50298369Y-36423607D01*
X50336464Y-36499797D01*
X50717416Y-33883607D02*
X50984083Y-33883607D01*
X50984083Y-34302654D02*
X50984083Y-33502654D01*
X50603130Y-33502654D01*
X49917416Y-33502654D02*
X50298369Y-33502654D01*
X50336464Y-33883607D01*
X50298369Y-33845511D01*
X50222178Y-33807416D01*
X50031702Y-33807416D01*
X49955511Y-33845511D01*
X49917416Y-33883607D01*
X49879321Y-33959797D01*
X49879321Y-34150273D01*
X49917416Y-34226464D01*
X49955511Y-34264559D01*
X50031702Y-34302654D01*
X50222178Y-34302654D01*
X50298369Y-34264559D01*
X50336464Y-34226464D01*
X51003130Y-21602654D02*
X51269797Y-21221702D01*
X51460273Y-21602654D02*
X51460273Y-20802654D01*
X51155511Y-20802654D01*
X51079321Y-20840750D01*
X51041226Y-20878845D01*
X51003130Y-20955035D01*
X51003130Y-21069321D01*
X51041226Y-21145511D01*
X51079321Y-21183607D01*
X51155511Y-21221702D01*
X51460273Y-21221702D01*
X50698369Y-21374083D02*
X50317416Y-21374083D01*
X50774559Y-21602654D02*
X50507892Y-20802654D01*
X50241226Y-21602654D01*
X50050750Y-20802654D02*
X49860273Y-21602654D01*
X49707892Y-21031226D01*
X49555511Y-21602654D01*
X49365035Y-20802654D01*
X51060273Y-23380750D02*
X51136464Y-23342654D01*
X51250750Y-23342654D01*
X51365035Y-23380750D01*
X51441226Y-23456940D01*
X51479321Y-23533130D01*
X51517416Y-23685511D01*
X51517416Y-23799797D01*
X51479321Y-23952178D01*
X51441226Y-24028369D01*
X51365035Y-24104559D01*
X51250750Y-24142654D01*
X51174559Y-24142654D01*
X51060273Y-24104559D01*
X51022178Y-24066464D01*
X51022178Y-23799797D01*
X51174559Y-23799797D01*
X50679321Y-24142654D02*
X50679321Y-23342654D01*
X50222178Y-24142654D01*
X50222178Y-23342654D01*
X49841226Y-24142654D02*
X49841226Y-23342654D01*
X49650750Y-23342654D01*
X49536464Y-23380750D01*
X49460273Y-23456940D01*
X49422178Y-23533130D01*
X49384083Y-23685511D01*
X49384083Y-23799797D01*
X49422178Y-23952178D01*
X49460273Y-24028369D01*
X49536464Y-24104559D01*
X49650750Y-24142654D01*
X49841226Y-24142654D01*
X51517416Y-28422654D02*
X51250750Y-29222654D01*
X50984083Y-28422654D01*
X50260273Y-29146464D02*
X50298369Y-29184559D01*
X50412654Y-29222654D01*
X50488845Y-29222654D01*
X50603130Y-29184559D01*
X50679321Y-29108369D01*
X50717416Y-29032178D01*
X50755511Y-28879797D01*
X50755511Y-28765511D01*
X50717416Y-28613130D01*
X50679321Y-28536940D01*
X50603130Y-28460750D01*
X50488845Y-28422654D01*
X50412654Y-28422654D01*
X50298369Y-28460750D01*
X50260273Y-28498845D01*
X49460273Y-29146464D02*
X49498369Y-29184559D01*
X49612654Y-29222654D01*
X49688845Y-29222654D01*
X49803130Y-29184559D01*
X49879321Y-29108369D01*
X49917416Y-29032178D01*
X49955511Y-28879797D01*
X49955511Y-28765511D01*
X49917416Y-28613130D01*
X49879321Y-28536940D01*
X49803130Y-28460750D01*
X49688845Y-28422654D01*
X49612654Y-28422654D01*
X49498369Y-28460750D01*
X49460273Y-28498845D01*
X50717416Y-31343607D02*
X50984083Y-31343607D01*
X50984083Y-31762654D02*
X50984083Y-30962654D01*
X50603130Y-30962654D01*
X49955511Y-31229321D02*
X49955511Y-31762654D01*
X50145988Y-30924559D02*
X50336464Y-31495988D01*
X49841226Y-31495988D01*
X50774559Y-41503607D02*
X50660273Y-41541702D01*
X50622178Y-41579797D01*
X50584083Y-41655988D01*
X50584083Y-41770273D01*
X50622178Y-41846464D01*
X50660273Y-41884559D01*
X50736464Y-41922654D01*
X51041226Y-41922654D01*
X51041226Y-41122654D01*
X50774559Y-41122654D01*
X50698369Y-41160750D01*
X50660273Y-41198845D01*
X50622178Y-41275035D01*
X50622178Y-41351226D01*
X50660273Y-41427416D01*
X50698369Y-41465511D01*
X50774559Y-41503607D01*
X51041226Y-41503607D01*
X49822178Y-41922654D02*
X50279321Y-41922654D01*
X50050750Y-41922654D02*
X50050750Y-41122654D01*
X50126940Y-41236940D01*
X50203130Y-41313130D01*
X50279321Y-41351226D01*
X50774559Y-44043607D02*
X50660273Y-44081702D01*
X50622178Y-44119797D01*
X50584083Y-44195988D01*
X50584083Y-44310273D01*
X50622178Y-44386464D01*
X50660273Y-44424559D01*
X50736464Y-44462654D01*
X51041226Y-44462654D01*
X51041226Y-43662654D01*
X50774559Y-43662654D01*
X50698369Y-43700750D01*
X50660273Y-43738845D01*
X50622178Y-43815035D01*
X50622178Y-43891226D01*
X50660273Y-43967416D01*
X50698369Y-44005511D01*
X50774559Y-44043607D01*
X51041226Y-44043607D01*
X50317416Y-43662654D02*
X49822178Y-43662654D01*
X50088845Y-43967416D01*
X49974559Y-43967416D01*
X49898369Y-44005511D01*
X49860273Y-44043607D01*
X49822178Y-44119797D01*
X49822178Y-44310273D01*
X49860273Y-44386464D01*
X49898369Y-44424559D01*
X49974559Y-44462654D01*
X50203130Y-44462654D01*
X50279321Y-44424559D01*
X50317416Y-44386464D01*
X50774559Y-49123607D02*
X50660273Y-49161702D01*
X50622178Y-49199797D01*
X50584083Y-49275988D01*
X50584083Y-49390273D01*
X50622178Y-49466464D01*
X50660273Y-49504559D01*
X50736464Y-49542654D01*
X51041226Y-49542654D01*
X51041226Y-48742654D01*
X50774559Y-48742654D01*
X50698369Y-48780750D01*
X50660273Y-48818845D01*
X50622178Y-48895035D01*
X50622178Y-48971226D01*
X50660273Y-49047416D01*
X50698369Y-49085511D01*
X50774559Y-49123607D01*
X51041226Y-49123607D01*
X49898369Y-48742654D02*
X50050750Y-48742654D01*
X50126940Y-48780750D01*
X50165035Y-48818845D01*
X50241226Y-48933130D01*
X50279321Y-49085511D01*
X50279321Y-49390273D01*
X50241226Y-49466464D01*
X50203130Y-49504559D01*
X50126940Y-49542654D01*
X49974559Y-49542654D01*
X49898369Y-49504559D01*
X49860273Y-49466464D01*
X49822178Y-49390273D01*
X49822178Y-49199797D01*
X49860273Y-49123607D01*
X49898369Y-49085511D01*
X49974559Y-49047416D01*
X50126940Y-49047416D01*
X50203130Y-49085511D01*
X50241226Y-49123607D01*
X50279321Y-49199797D01*
X39852559Y-49123607D02*
X39738273Y-49161702D01*
X39700178Y-49199797D01*
X39662083Y-49275988D01*
X39662083Y-49390273D01*
X39700178Y-49466464D01*
X39738273Y-49504559D01*
X39814464Y-49542654D01*
X40119226Y-49542654D01*
X40119226Y-48742654D01*
X39852559Y-48742654D01*
X39776369Y-48780750D01*
X39738273Y-48818845D01*
X39700178Y-48895035D01*
X39700178Y-48971226D01*
X39738273Y-49047416D01*
X39776369Y-49085511D01*
X39852559Y-49123607D01*
X40119226Y-49123607D01*
X38938273Y-48742654D02*
X39319226Y-48742654D01*
X39357321Y-49123607D01*
X39319226Y-49085511D01*
X39243035Y-49047416D01*
X39052559Y-49047416D01*
X38976369Y-49085511D01*
X38938273Y-49123607D01*
X38900178Y-49199797D01*
X38900178Y-49390273D01*
X38938273Y-49466464D01*
X38976369Y-49504559D01*
X39052559Y-49542654D01*
X39243035Y-49542654D01*
X39319226Y-49504559D01*
X39357321Y-49466464D01*
X39852559Y-46583607D02*
X39738273Y-46621702D01*
X39700178Y-46659797D01*
X39662083Y-46735988D01*
X39662083Y-46850273D01*
X39700178Y-46926464D01*
X39738273Y-46964559D01*
X39814464Y-47002654D01*
X40119226Y-47002654D01*
X40119226Y-46202654D01*
X39852559Y-46202654D01*
X39776369Y-46240750D01*
X39738273Y-46278845D01*
X39700178Y-46355035D01*
X39700178Y-46431226D01*
X39738273Y-46507416D01*
X39776369Y-46545511D01*
X39852559Y-46583607D01*
X40119226Y-46583607D01*
X38976369Y-46469321D02*
X38976369Y-47002654D01*
X39166845Y-46164559D02*
X39357321Y-46735988D01*
X38862083Y-46735988D01*
X40081130Y-44043607D02*
X39814464Y-44043607D01*
X39700178Y-44462654D02*
X40081130Y-44462654D01*
X40081130Y-43662654D01*
X39700178Y-43662654D01*
X39014464Y-43662654D02*
X39166845Y-43662654D01*
X39243035Y-43700750D01*
X39281130Y-43738845D01*
X39357321Y-43853130D01*
X39395416Y-44005511D01*
X39395416Y-44310273D01*
X39357321Y-44386464D01*
X39319226Y-44424559D01*
X39243035Y-44462654D01*
X39090654Y-44462654D01*
X39014464Y-44424559D01*
X38976369Y-44386464D01*
X38938273Y-44310273D01*
X38938273Y-44119797D01*
X38976369Y-44043607D01*
X39014464Y-44005511D01*
X39090654Y-43967416D01*
X39243035Y-43967416D01*
X39319226Y-44005511D01*
X39357321Y-44043607D01*
X39395416Y-44119797D01*
X40119226Y-41922654D02*
X40119226Y-41122654D01*
X39928750Y-41122654D01*
X39814464Y-41160750D01*
X39738273Y-41236940D01*
X39700178Y-41313130D01*
X39662083Y-41465511D01*
X39662083Y-41579797D01*
X39700178Y-41732178D01*
X39738273Y-41808369D01*
X39814464Y-41884559D01*
X39928750Y-41922654D01*
X40119226Y-41922654D01*
X39395416Y-41122654D02*
X38862083Y-41122654D01*
X39204940Y-41922654D01*
X39662083Y-39306464D02*
X39700178Y-39344559D01*
X39814464Y-39382654D01*
X39890654Y-39382654D01*
X40004940Y-39344559D01*
X40081130Y-39268369D01*
X40119226Y-39192178D01*
X40157321Y-39039797D01*
X40157321Y-38925511D01*
X40119226Y-38773130D01*
X40081130Y-38696940D01*
X40004940Y-38620750D01*
X39890654Y-38582654D01*
X39814464Y-38582654D01*
X39700178Y-38620750D01*
X39662083Y-38658845D01*
X38976369Y-38582654D02*
X39128750Y-38582654D01*
X39204940Y-38620750D01*
X39243035Y-38658845D01*
X39319226Y-38773130D01*
X39357321Y-38925511D01*
X39357321Y-39230273D01*
X39319226Y-39306464D01*
X39281130Y-39344559D01*
X39204940Y-39382654D01*
X39052559Y-39382654D01*
X38976369Y-39344559D01*
X38938273Y-39306464D01*
X38900178Y-39230273D01*
X38900178Y-39039797D01*
X38938273Y-38963607D01*
X38976369Y-38925511D01*
X39052559Y-38887416D01*
X39204940Y-38887416D01*
X39281130Y-38925511D01*
X39319226Y-38963607D01*
X39357321Y-39039797D01*
X40119226Y-36842654D02*
X40119226Y-36042654D01*
X39928750Y-36042654D01*
X39814464Y-36080750D01*
X39738273Y-36156940D01*
X39700178Y-36233130D01*
X39662083Y-36385511D01*
X39662083Y-36499797D01*
X39700178Y-36652178D01*
X39738273Y-36728369D01*
X39814464Y-36804559D01*
X39928750Y-36842654D01*
X40119226Y-36842654D01*
X38976369Y-36309321D02*
X38976369Y-36842654D01*
X39166845Y-36004559D02*
X39357321Y-36575988D01*
X38862083Y-36575988D01*
X40138273Y-25920750D02*
X40214464Y-25882654D01*
X40328750Y-25882654D01*
X40443035Y-25920750D01*
X40519226Y-25996940D01*
X40557321Y-26073130D01*
X40595416Y-26225511D01*
X40595416Y-26339797D01*
X40557321Y-26492178D01*
X40519226Y-26568369D01*
X40443035Y-26644559D01*
X40328750Y-26682654D01*
X40252559Y-26682654D01*
X40138273Y-26644559D01*
X40100178Y-26606464D01*
X40100178Y-26339797D01*
X40252559Y-26339797D01*
X39757321Y-26682654D02*
X39757321Y-25882654D01*
X39300178Y-26682654D01*
X39300178Y-25882654D01*
X38919226Y-26682654D02*
X38919226Y-25882654D01*
X38728750Y-25882654D01*
X38614464Y-25920750D01*
X38538273Y-25996940D01*
X38500178Y-26073130D01*
X38462083Y-26225511D01*
X38462083Y-26339797D01*
X38500178Y-26492178D01*
X38538273Y-26568369D01*
X38614464Y-26644559D01*
X38728750Y-26682654D01*
X38919226Y-26682654D01*
X40138273Y-28460750D02*
X40214464Y-28422654D01*
X40328750Y-28422654D01*
X40443035Y-28460750D01*
X40519226Y-28536940D01*
X40557321Y-28613130D01*
X40595416Y-28765511D01*
X40595416Y-28879797D01*
X40557321Y-29032178D01*
X40519226Y-29108369D01*
X40443035Y-29184559D01*
X40328750Y-29222654D01*
X40252559Y-29222654D01*
X40138273Y-29184559D01*
X40100178Y-29146464D01*
X40100178Y-28879797D01*
X40252559Y-28879797D01*
X39757321Y-29222654D02*
X39757321Y-28422654D01*
X39300178Y-29222654D01*
X39300178Y-28422654D01*
X38919226Y-29222654D02*
X38919226Y-28422654D01*
X38728750Y-28422654D01*
X38614464Y-28460750D01*
X38538273Y-28536940D01*
X38500178Y-28613130D01*
X38462083Y-28765511D01*
X38462083Y-28879797D01*
X38500178Y-29032178D01*
X38538273Y-29108369D01*
X38614464Y-29184559D01*
X38728750Y-29222654D01*
X38919226Y-29222654D01*
X40119226Y-31762654D02*
X40119226Y-30962654D01*
X39928750Y-30962654D01*
X39814464Y-31000750D01*
X39738273Y-31076940D01*
X39700178Y-31153130D01*
X39662083Y-31305511D01*
X39662083Y-31419797D01*
X39700178Y-31572178D01*
X39738273Y-31648369D01*
X39814464Y-31724559D01*
X39928750Y-31762654D01*
X40119226Y-31762654D01*
X38900178Y-31762654D02*
X39357321Y-31762654D01*
X39128750Y-31762654D02*
X39128750Y-30962654D01*
X39204940Y-31076940D01*
X39281130Y-31153130D01*
X39357321Y-31191226D01*
X40119226Y-34302654D02*
X40119226Y-33502654D01*
X39928750Y-33502654D01*
X39814464Y-33540750D01*
X39738273Y-33616940D01*
X39700178Y-33693130D01*
X39662083Y-33845511D01*
X39662083Y-33959797D01*
X39700178Y-34112178D01*
X39738273Y-34188369D01*
X39814464Y-34264559D01*
X39928750Y-34302654D01*
X40119226Y-34302654D01*
X39166845Y-33502654D02*
X39090654Y-33502654D01*
X39014464Y-33540750D01*
X38976369Y-33578845D01*
X38938273Y-33655035D01*
X38900178Y-33807416D01*
X38900178Y-33997892D01*
X38938273Y-34150273D01*
X38976369Y-34226464D01*
X39014464Y-34264559D01*
X39090654Y-34302654D01*
X39166845Y-34302654D01*
X39243035Y-34264559D01*
X39281130Y-34226464D01*
X39319226Y-34150273D01*
X39357321Y-33997892D01*
X39357321Y-33807416D01*
X39319226Y-33655035D01*
X39281130Y-33578845D01*
X39243035Y-33540750D01*
X39166845Y-33502654D01*
X40119226Y-24142654D02*
X40119226Y-23342654D01*
X39928750Y-23342654D01*
X39814464Y-23380750D01*
X39738273Y-23456940D01*
X39700178Y-23533130D01*
X39662083Y-23685511D01*
X39662083Y-23799797D01*
X39700178Y-23952178D01*
X39738273Y-24028369D01*
X39814464Y-24104559D01*
X39928750Y-24142654D01*
X40119226Y-24142654D01*
X39357321Y-23418845D02*
X39319226Y-23380750D01*
X39243035Y-23342654D01*
X39052559Y-23342654D01*
X38976369Y-23380750D01*
X38938273Y-23418845D01*
X38900178Y-23495035D01*
X38900178Y-23571226D01*
X38938273Y-23685511D01*
X39395416Y-24142654D01*
X38900178Y-24142654D01*
X188223654Y-81965921D02*
X187423654Y-81965921D01*
X187423654Y-82156397D01*
X187461750Y-82270683D01*
X187537940Y-82346873D01*
X187614130Y-82384969D01*
X187766511Y-82423064D01*
X187880797Y-82423064D01*
X188033178Y-82384969D01*
X188109369Y-82346873D01*
X188185559Y-82270683D01*
X188223654Y-82156397D01*
X188223654Y-81965921D01*
X187690321Y-83108778D02*
X188223654Y-83108778D01*
X187385559Y-82918302D02*
X187956988Y-82727826D01*
X187956988Y-83223064D01*
X187423654Y-83680207D02*
X187423654Y-83756397D01*
X187461750Y-83832588D01*
X187499845Y-83870683D01*
X187576035Y-83908778D01*
X187728416Y-83946873D01*
X187918892Y-83946873D01*
X188071273Y-83908778D01*
X188147464Y-83870683D01*
X188185559Y-83832588D01*
X188223654Y-83756397D01*
X188223654Y-83680207D01*
X188185559Y-83604016D01*
X188147464Y-83565921D01*
X188071273Y-83527826D01*
X187918892Y-83489730D01*
X187728416Y-83489730D01*
X187576035Y-83527826D01*
X187499845Y-83565921D01*
X187461750Y-83604016D01*
X187423654Y-83680207D01*
X188223654Y-62915921D02*
X187423654Y-62915921D01*
X187423654Y-63106397D01*
X187461750Y-63220683D01*
X187537940Y-63296873D01*
X187614130Y-63334969D01*
X187766511Y-63373064D01*
X187880797Y-63373064D01*
X188033178Y-63334969D01*
X188109369Y-63296873D01*
X188185559Y-63220683D01*
X188223654Y-63106397D01*
X188223654Y-62915921D01*
X187423654Y-63639730D02*
X187423654Y-64134969D01*
X187728416Y-63868302D01*
X187728416Y-63982588D01*
X187766511Y-64058778D01*
X187804607Y-64096873D01*
X187880797Y-64134969D01*
X188071273Y-64134969D01*
X188147464Y-64096873D01*
X188185559Y-64058778D01*
X188223654Y-63982588D01*
X188223654Y-63754016D01*
X188185559Y-63677826D01*
X188147464Y-63639730D01*
X188223654Y-64515921D02*
X188223654Y-64668302D01*
X188185559Y-64744492D01*
X188147464Y-64782588D01*
X188033178Y-64858778D01*
X187880797Y-64896873D01*
X187576035Y-64896873D01*
X187499845Y-64858778D01*
X187461750Y-64820683D01*
X187423654Y-64744492D01*
X187423654Y-64592111D01*
X187461750Y-64515921D01*
X187499845Y-64477826D01*
X187576035Y-64439730D01*
X187766511Y-64439730D01*
X187842702Y-64477826D01*
X187880797Y-64515921D01*
X187918892Y-64592111D01*
X187918892Y-64744492D01*
X187880797Y-64820683D01*
X187842702Y-64858778D01*
X187766511Y-64896873D01*
X188223654Y-43865921D02*
X187423654Y-43865921D01*
X187423654Y-44056397D01*
X187461750Y-44170683D01*
X187537940Y-44246873D01*
X187614130Y-44284969D01*
X187766511Y-44323064D01*
X187880797Y-44323064D01*
X188033178Y-44284969D01*
X188109369Y-44246873D01*
X188185559Y-44170683D01*
X188223654Y-44056397D01*
X188223654Y-43865921D01*
X187423654Y-44589730D02*
X187423654Y-45084969D01*
X187728416Y-44818302D01*
X187728416Y-44932588D01*
X187766511Y-45008778D01*
X187804607Y-45046873D01*
X187880797Y-45084969D01*
X188071273Y-45084969D01*
X188147464Y-45046873D01*
X188185559Y-45008778D01*
X188223654Y-44932588D01*
X188223654Y-44704016D01*
X188185559Y-44627826D01*
X188147464Y-44589730D01*
X187766511Y-45542111D02*
X187728416Y-45465921D01*
X187690321Y-45427826D01*
X187614130Y-45389730D01*
X187576035Y-45389730D01*
X187499845Y-45427826D01*
X187461750Y-45465921D01*
X187423654Y-45542111D01*
X187423654Y-45694492D01*
X187461750Y-45770683D01*
X187499845Y-45808778D01*
X187576035Y-45846873D01*
X187614130Y-45846873D01*
X187690321Y-45808778D01*
X187728416Y-45770683D01*
X187766511Y-45694492D01*
X187766511Y-45542111D01*
X187804607Y-45465921D01*
X187842702Y-45427826D01*
X187918892Y-45389730D01*
X188071273Y-45389730D01*
X188147464Y-45427826D01*
X188185559Y-45465921D01*
X188223654Y-45542111D01*
X188223654Y-45694492D01*
X188185559Y-45770683D01*
X188147464Y-45808778D01*
X188071273Y-45846873D01*
X187918892Y-45846873D01*
X187842702Y-45808778D01*
X187804607Y-45770683D01*
X187766511Y-45694492D01*
X188223654Y-24815921D02*
X187423654Y-24815921D01*
X187423654Y-25006397D01*
X187461750Y-25120683D01*
X187537940Y-25196873D01*
X187614130Y-25234969D01*
X187766511Y-25273064D01*
X187880797Y-25273064D01*
X188033178Y-25234969D01*
X188109369Y-25196873D01*
X188185559Y-25120683D01*
X188223654Y-25006397D01*
X188223654Y-24815921D01*
X187423654Y-25539730D02*
X187423654Y-26034969D01*
X187728416Y-25768302D01*
X187728416Y-25882588D01*
X187766511Y-25958778D01*
X187804607Y-25996873D01*
X187880797Y-26034969D01*
X188071273Y-26034969D01*
X188147464Y-25996873D01*
X188185559Y-25958778D01*
X188223654Y-25882588D01*
X188223654Y-25654016D01*
X188185559Y-25577826D01*
X188147464Y-25539730D01*
X187423654Y-26301635D02*
X187423654Y-26834969D01*
X188223654Y-26492111D01*
X185429654Y-81965921D02*
X184629654Y-81965921D01*
X184629654Y-82156397D01*
X184667750Y-82270683D01*
X184743940Y-82346873D01*
X184820130Y-82384969D01*
X184972511Y-82423064D01*
X185086797Y-82423064D01*
X185239178Y-82384969D01*
X185315369Y-82346873D01*
X185391559Y-82270683D01*
X185429654Y-82156397D01*
X185429654Y-81965921D01*
X184629654Y-82689730D02*
X184629654Y-83184969D01*
X184934416Y-82918302D01*
X184934416Y-83032588D01*
X184972511Y-83108778D01*
X185010607Y-83146873D01*
X185086797Y-83184969D01*
X185277273Y-83184969D01*
X185353464Y-83146873D01*
X185391559Y-83108778D01*
X185429654Y-83032588D01*
X185429654Y-82804016D01*
X185391559Y-82727826D01*
X185353464Y-82689730D01*
X184629654Y-83870683D02*
X184629654Y-83718302D01*
X184667750Y-83642111D01*
X184705845Y-83604016D01*
X184820130Y-83527826D01*
X184972511Y-83489730D01*
X185277273Y-83489730D01*
X185353464Y-83527826D01*
X185391559Y-83565921D01*
X185429654Y-83642111D01*
X185429654Y-83794492D01*
X185391559Y-83870683D01*
X185353464Y-83908778D01*
X185277273Y-83946873D01*
X185086797Y-83946873D01*
X185010607Y-83908778D01*
X184972511Y-83870683D01*
X184934416Y-83794492D01*
X184934416Y-83642111D01*
X184972511Y-83565921D01*
X185010607Y-83527826D01*
X185086797Y-83489730D01*
X185429654Y-62915921D02*
X184629654Y-62915921D01*
X184629654Y-63106397D01*
X184667750Y-63220683D01*
X184743940Y-63296873D01*
X184820130Y-63334969D01*
X184972511Y-63373064D01*
X185086797Y-63373064D01*
X185239178Y-63334969D01*
X185315369Y-63296873D01*
X185391559Y-63220683D01*
X185429654Y-63106397D01*
X185429654Y-62915921D01*
X184629654Y-63639730D02*
X184629654Y-64134969D01*
X184934416Y-63868302D01*
X184934416Y-63982588D01*
X184972511Y-64058778D01*
X185010607Y-64096873D01*
X185086797Y-64134969D01*
X185277273Y-64134969D01*
X185353464Y-64096873D01*
X185391559Y-64058778D01*
X185429654Y-63982588D01*
X185429654Y-63754016D01*
X185391559Y-63677826D01*
X185353464Y-63639730D01*
X184629654Y-64858778D02*
X184629654Y-64477826D01*
X185010607Y-64439730D01*
X184972511Y-64477826D01*
X184934416Y-64554016D01*
X184934416Y-64744492D01*
X184972511Y-64820683D01*
X185010607Y-64858778D01*
X185086797Y-64896873D01*
X185277273Y-64896873D01*
X185353464Y-64858778D01*
X185391559Y-64820683D01*
X185429654Y-64744492D01*
X185429654Y-64554016D01*
X185391559Y-64477826D01*
X185353464Y-64439730D01*
X185429654Y-43865921D02*
X184629654Y-43865921D01*
X184629654Y-44056397D01*
X184667750Y-44170683D01*
X184743940Y-44246873D01*
X184820130Y-44284969D01*
X184972511Y-44323064D01*
X185086797Y-44323064D01*
X185239178Y-44284969D01*
X185315369Y-44246873D01*
X185391559Y-44170683D01*
X185429654Y-44056397D01*
X185429654Y-43865921D01*
X184629654Y-44589730D02*
X184629654Y-45084969D01*
X184934416Y-44818302D01*
X184934416Y-44932588D01*
X184972511Y-45008778D01*
X185010607Y-45046873D01*
X185086797Y-45084969D01*
X185277273Y-45084969D01*
X185353464Y-45046873D01*
X185391559Y-45008778D01*
X185429654Y-44932588D01*
X185429654Y-44704016D01*
X185391559Y-44627826D01*
X185353464Y-44589730D01*
X184896321Y-45770683D02*
X185429654Y-45770683D01*
X184591559Y-45580207D02*
X185162988Y-45389730D01*
X185162988Y-45884969D01*
X185429654Y-24815921D02*
X184629654Y-24815921D01*
X184629654Y-25006397D01*
X184667750Y-25120683D01*
X184743940Y-25196873D01*
X184820130Y-25234969D01*
X184972511Y-25273064D01*
X185086797Y-25273064D01*
X185239178Y-25234969D01*
X185315369Y-25196873D01*
X185391559Y-25120683D01*
X185429654Y-25006397D01*
X185429654Y-24815921D01*
X184629654Y-25539730D02*
X184629654Y-26034969D01*
X184934416Y-25768302D01*
X184934416Y-25882588D01*
X184972511Y-25958778D01*
X185010607Y-25996873D01*
X185086797Y-26034969D01*
X185277273Y-26034969D01*
X185353464Y-25996873D01*
X185391559Y-25958778D01*
X185429654Y-25882588D01*
X185429654Y-25654016D01*
X185391559Y-25577826D01*
X185353464Y-25539730D01*
X184629654Y-26301635D02*
X184629654Y-26796873D01*
X184934416Y-26530207D01*
X184934416Y-26644492D01*
X184972511Y-26720683D01*
X185010607Y-26758778D01*
X185086797Y-26796873D01*
X185277273Y-26796873D01*
X185353464Y-26758778D01*
X185391559Y-26720683D01*
X185429654Y-26644492D01*
X185429654Y-26415921D01*
X185391559Y-26339730D01*
X185353464Y-26301635D01*
X166379654Y-81965921D02*
X165579654Y-81965921D01*
X165579654Y-82156397D01*
X165617750Y-82270683D01*
X165693940Y-82346873D01*
X165770130Y-82384969D01*
X165922511Y-82423064D01*
X166036797Y-82423064D01*
X166189178Y-82384969D01*
X166265369Y-82346873D01*
X166341559Y-82270683D01*
X166379654Y-82156397D01*
X166379654Y-81965921D01*
X165579654Y-82689730D02*
X165579654Y-83184969D01*
X165884416Y-82918302D01*
X165884416Y-83032588D01*
X165922511Y-83108778D01*
X165960607Y-83146873D01*
X166036797Y-83184969D01*
X166227273Y-83184969D01*
X166303464Y-83146873D01*
X166341559Y-83108778D01*
X166379654Y-83032588D01*
X166379654Y-82804016D01*
X166341559Y-82727826D01*
X166303464Y-82689730D01*
X165655845Y-83489730D02*
X165617750Y-83527826D01*
X165579654Y-83604016D01*
X165579654Y-83794492D01*
X165617750Y-83870683D01*
X165655845Y-83908778D01*
X165732035Y-83946873D01*
X165808226Y-83946873D01*
X165922511Y-83908778D01*
X166379654Y-83451635D01*
X166379654Y-83946873D01*
X166379654Y-62915921D02*
X165579654Y-62915921D01*
X165579654Y-63106397D01*
X165617750Y-63220683D01*
X165693940Y-63296873D01*
X165770130Y-63334969D01*
X165922511Y-63373064D01*
X166036797Y-63373064D01*
X166189178Y-63334969D01*
X166265369Y-63296873D01*
X166341559Y-63220683D01*
X166379654Y-63106397D01*
X166379654Y-62915921D01*
X165579654Y-63639730D02*
X165579654Y-64134969D01*
X165884416Y-63868302D01*
X165884416Y-63982588D01*
X165922511Y-64058778D01*
X165960607Y-64096873D01*
X166036797Y-64134969D01*
X166227273Y-64134969D01*
X166303464Y-64096873D01*
X166341559Y-64058778D01*
X166379654Y-63982588D01*
X166379654Y-63754016D01*
X166341559Y-63677826D01*
X166303464Y-63639730D01*
X166379654Y-64896873D02*
X166379654Y-64439730D01*
X166379654Y-64668302D02*
X165579654Y-64668302D01*
X165693940Y-64592111D01*
X165770130Y-64515921D01*
X165808226Y-64439730D01*
X166379654Y-43865921D02*
X165579654Y-43865921D01*
X165579654Y-44056397D01*
X165617750Y-44170683D01*
X165693940Y-44246873D01*
X165770130Y-44284969D01*
X165922511Y-44323064D01*
X166036797Y-44323064D01*
X166189178Y-44284969D01*
X166265369Y-44246873D01*
X166341559Y-44170683D01*
X166379654Y-44056397D01*
X166379654Y-43865921D01*
X165579654Y-44589730D02*
X165579654Y-45084969D01*
X165884416Y-44818302D01*
X165884416Y-44932588D01*
X165922511Y-45008778D01*
X165960607Y-45046873D01*
X166036797Y-45084969D01*
X166227273Y-45084969D01*
X166303464Y-45046873D01*
X166341559Y-45008778D01*
X166379654Y-44932588D01*
X166379654Y-44704016D01*
X166341559Y-44627826D01*
X166303464Y-44589730D01*
X165579654Y-45580207D02*
X165579654Y-45656397D01*
X165617750Y-45732588D01*
X165655845Y-45770683D01*
X165732035Y-45808778D01*
X165884416Y-45846873D01*
X166074892Y-45846873D01*
X166227273Y-45808778D01*
X166303464Y-45770683D01*
X166341559Y-45732588D01*
X166379654Y-45656397D01*
X166379654Y-45580207D01*
X166341559Y-45504016D01*
X166303464Y-45465921D01*
X166227273Y-45427826D01*
X166074892Y-45389730D01*
X165884416Y-45389730D01*
X165732035Y-45427826D01*
X165655845Y-45465921D01*
X165617750Y-45504016D01*
X165579654Y-45580207D01*
X166379654Y-24815921D02*
X165579654Y-24815921D01*
X165579654Y-25006397D01*
X165617750Y-25120683D01*
X165693940Y-25196873D01*
X165770130Y-25234969D01*
X165922511Y-25273064D01*
X166036797Y-25273064D01*
X166189178Y-25234969D01*
X166265369Y-25196873D01*
X166341559Y-25120683D01*
X166379654Y-25006397D01*
X166379654Y-24815921D01*
X165655845Y-25577826D02*
X165617750Y-25615921D01*
X165579654Y-25692111D01*
X165579654Y-25882588D01*
X165617750Y-25958778D01*
X165655845Y-25996873D01*
X165732035Y-26034969D01*
X165808226Y-26034969D01*
X165922511Y-25996873D01*
X166379654Y-25539730D01*
X166379654Y-26034969D01*
X166379654Y-26415921D02*
X166379654Y-26568302D01*
X166341559Y-26644492D01*
X166303464Y-26682588D01*
X166189178Y-26758778D01*
X166036797Y-26796873D01*
X165732035Y-26796873D01*
X165655845Y-26758778D01*
X165617750Y-26720683D01*
X165579654Y-26644492D01*
X165579654Y-26492111D01*
X165617750Y-26415921D01*
X165655845Y-26377826D01*
X165732035Y-26339730D01*
X165922511Y-26339730D01*
X165998702Y-26377826D01*
X166036797Y-26415921D01*
X166074892Y-26492111D01*
X166074892Y-26644492D01*
X166036797Y-26720683D01*
X165998702Y-26758778D01*
X165922511Y-26796873D01*
X147329654Y-81965921D02*
X146529654Y-81965921D01*
X146529654Y-82156397D01*
X146567750Y-82270683D01*
X146643940Y-82346873D01*
X146720130Y-82384969D01*
X146872511Y-82423064D01*
X146986797Y-82423064D01*
X147139178Y-82384969D01*
X147215369Y-82346873D01*
X147291559Y-82270683D01*
X147329654Y-82156397D01*
X147329654Y-81965921D01*
X146605845Y-82727826D02*
X146567750Y-82765921D01*
X146529654Y-82842111D01*
X146529654Y-83032588D01*
X146567750Y-83108778D01*
X146605845Y-83146873D01*
X146682035Y-83184969D01*
X146758226Y-83184969D01*
X146872511Y-83146873D01*
X147329654Y-82689730D01*
X147329654Y-83184969D01*
X146872511Y-83642111D02*
X146834416Y-83565921D01*
X146796321Y-83527826D01*
X146720130Y-83489730D01*
X146682035Y-83489730D01*
X146605845Y-83527826D01*
X146567750Y-83565921D01*
X146529654Y-83642111D01*
X146529654Y-83794492D01*
X146567750Y-83870683D01*
X146605845Y-83908778D01*
X146682035Y-83946873D01*
X146720130Y-83946873D01*
X146796321Y-83908778D01*
X146834416Y-83870683D01*
X146872511Y-83794492D01*
X146872511Y-83642111D01*
X146910607Y-83565921D01*
X146948702Y-83527826D01*
X147024892Y-83489730D01*
X147177273Y-83489730D01*
X147253464Y-83527826D01*
X147291559Y-83565921D01*
X147329654Y-83642111D01*
X147329654Y-83794492D01*
X147291559Y-83870683D01*
X147253464Y-83908778D01*
X147177273Y-83946873D01*
X147024892Y-83946873D01*
X146948702Y-83908778D01*
X146910607Y-83870683D01*
X146872511Y-83794492D01*
X147329654Y-62915921D02*
X146529654Y-62915921D01*
X146529654Y-63106397D01*
X146567750Y-63220683D01*
X146643940Y-63296873D01*
X146720130Y-63334969D01*
X146872511Y-63373064D01*
X146986797Y-63373064D01*
X147139178Y-63334969D01*
X147215369Y-63296873D01*
X147291559Y-63220683D01*
X147329654Y-63106397D01*
X147329654Y-62915921D01*
X146605845Y-63677826D02*
X146567750Y-63715921D01*
X146529654Y-63792111D01*
X146529654Y-63982588D01*
X146567750Y-64058778D01*
X146605845Y-64096873D01*
X146682035Y-64134969D01*
X146758226Y-64134969D01*
X146872511Y-64096873D01*
X147329654Y-63639730D01*
X147329654Y-64134969D01*
X146529654Y-64401635D02*
X146529654Y-64934969D01*
X147329654Y-64592111D01*
X147329654Y-43865921D02*
X146529654Y-43865921D01*
X146529654Y-44056397D01*
X146567750Y-44170683D01*
X146643940Y-44246873D01*
X146720130Y-44284969D01*
X146872511Y-44323064D01*
X146986797Y-44323064D01*
X147139178Y-44284969D01*
X147215369Y-44246873D01*
X147291559Y-44170683D01*
X147329654Y-44056397D01*
X147329654Y-43865921D01*
X146605845Y-44627826D02*
X146567750Y-44665921D01*
X146529654Y-44742111D01*
X146529654Y-44932588D01*
X146567750Y-45008778D01*
X146605845Y-45046873D01*
X146682035Y-45084969D01*
X146758226Y-45084969D01*
X146872511Y-45046873D01*
X147329654Y-44589730D01*
X147329654Y-45084969D01*
X146529654Y-45770683D02*
X146529654Y-45618302D01*
X146567750Y-45542111D01*
X146605845Y-45504016D01*
X146720130Y-45427826D01*
X146872511Y-45389730D01*
X147177273Y-45389730D01*
X147253464Y-45427826D01*
X147291559Y-45465921D01*
X147329654Y-45542111D01*
X147329654Y-45694492D01*
X147291559Y-45770683D01*
X147253464Y-45808778D01*
X147177273Y-45846873D01*
X146986797Y-45846873D01*
X146910607Y-45808778D01*
X146872511Y-45770683D01*
X146834416Y-45694492D01*
X146834416Y-45542111D01*
X146872511Y-45465921D01*
X146910607Y-45427826D01*
X146986797Y-45389730D01*
X147329654Y-24815921D02*
X146529654Y-24815921D01*
X146529654Y-25006397D01*
X146567750Y-25120683D01*
X146643940Y-25196873D01*
X146720130Y-25234969D01*
X146872511Y-25273064D01*
X146986797Y-25273064D01*
X147139178Y-25234969D01*
X147215369Y-25196873D01*
X147291559Y-25120683D01*
X147329654Y-25006397D01*
X147329654Y-24815921D01*
X146605845Y-25577826D02*
X146567750Y-25615921D01*
X146529654Y-25692111D01*
X146529654Y-25882588D01*
X146567750Y-25958778D01*
X146605845Y-25996873D01*
X146682035Y-26034969D01*
X146758226Y-26034969D01*
X146872511Y-25996873D01*
X147329654Y-25539730D01*
X147329654Y-26034969D01*
X146529654Y-26758778D02*
X146529654Y-26377826D01*
X146910607Y-26339730D01*
X146872511Y-26377826D01*
X146834416Y-26454016D01*
X146834416Y-26644492D01*
X146872511Y-26720683D01*
X146910607Y-26758778D01*
X146986797Y-26796873D01*
X147177273Y-26796873D01*
X147253464Y-26758778D01*
X147291559Y-26720683D01*
X147329654Y-26644492D01*
X147329654Y-26454016D01*
X147291559Y-26377826D01*
X147253464Y-26339730D01*
X128279654Y-81965921D02*
X127479654Y-81965921D01*
X127479654Y-82156397D01*
X127517750Y-82270683D01*
X127593940Y-82346873D01*
X127670130Y-82384969D01*
X127822511Y-82423064D01*
X127936797Y-82423064D01*
X128089178Y-82384969D01*
X128165369Y-82346873D01*
X128241559Y-82270683D01*
X128279654Y-82156397D01*
X128279654Y-81965921D01*
X127555845Y-82727826D02*
X127517750Y-82765921D01*
X127479654Y-82842111D01*
X127479654Y-83032588D01*
X127517750Y-83108778D01*
X127555845Y-83146873D01*
X127632035Y-83184969D01*
X127708226Y-83184969D01*
X127822511Y-83146873D01*
X128279654Y-82689730D01*
X128279654Y-83184969D01*
X127746321Y-83870683D02*
X128279654Y-83870683D01*
X127441559Y-83680207D02*
X128012988Y-83489730D01*
X128012988Y-83984969D01*
X128279654Y-62915921D02*
X127479654Y-62915921D01*
X127479654Y-63106397D01*
X127517750Y-63220683D01*
X127593940Y-63296873D01*
X127670130Y-63334969D01*
X127822511Y-63373064D01*
X127936797Y-63373064D01*
X128089178Y-63334969D01*
X128165369Y-63296873D01*
X128241559Y-63220683D01*
X128279654Y-63106397D01*
X128279654Y-62915921D01*
X127555845Y-63677826D02*
X127517750Y-63715921D01*
X127479654Y-63792111D01*
X127479654Y-63982588D01*
X127517750Y-64058778D01*
X127555845Y-64096873D01*
X127632035Y-64134969D01*
X127708226Y-64134969D01*
X127822511Y-64096873D01*
X128279654Y-63639730D01*
X128279654Y-64134969D01*
X127479654Y-64401635D02*
X127479654Y-64896873D01*
X127784416Y-64630207D01*
X127784416Y-64744492D01*
X127822511Y-64820683D01*
X127860607Y-64858778D01*
X127936797Y-64896873D01*
X128127273Y-64896873D01*
X128203464Y-64858778D01*
X128241559Y-64820683D01*
X128279654Y-64744492D01*
X128279654Y-64515921D01*
X128241559Y-64439730D01*
X128203464Y-64401635D01*
X128279654Y-43865921D02*
X127479654Y-43865921D01*
X127479654Y-44056397D01*
X127517750Y-44170683D01*
X127593940Y-44246873D01*
X127670130Y-44284969D01*
X127822511Y-44323064D01*
X127936797Y-44323064D01*
X128089178Y-44284969D01*
X128165369Y-44246873D01*
X128241559Y-44170683D01*
X128279654Y-44056397D01*
X128279654Y-43865921D01*
X127555845Y-44627826D02*
X127517750Y-44665921D01*
X127479654Y-44742111D01*
X127479654Y-44932588D01*
X127517750Y-45008778D01*
X127555845Y-45046873D01*
X127632035Y-45084969D01*
X127708226Y-45084969D01*
X127822511Y-45046873D01*
X128279654Y-44589730D01*
X128279654Y-45084969D01*
X127555845Y-45389730D02*
X127517750Y-45427826D01*
X127479654Y-45504016D01*
X127479654Y-45694492D01*
X127517750Y-45770683D01*
X127555845Y-45808778D01*
X127632035Y-45846873D01*
X127708226Y-45846873D01*
X127822511Y-45808778D01*
X128279654Y-45351635D01*
X128279654Y-45846873D01*
X128279654Y-24815921D02*
X127479654Y-24815921D01*
X127479654Y-25006397D01*
X127517750Y-25120683D01*
X127593940Y-25196873D01*
X127670130Y-25234969D01*
X127822511Y-25273064D01*
X127936797Y-25273064D01*
X128089178Y-25234969D01*
X128165369Y-25196873D01*
X128241559Y-25120683D01*
X128279654Y-25006397D01*
X128279654Y-24815921D01*
X127555845Y-25577826D02*
X127517750Y-25615921D01*
X127479654Y-25692111D01*
X127479654Y-25882588D01*
X127517750Y-25958778D01*
X127555845Y-25996873D01*
X127632035Y-26034969D01*
X127708226Y-26034969D01*
X127822511Y-25996873D01*
X128279654Y-25539730D01*
X128279654Y-26034969D01*
X128279654Y-26796873D02*
X128279654Y-26339730D01*
X128279654Y-26568302D02*
X127479654Y-26568302D01*
X127593940Y-26492111D01*
X127670130Y-26415921D01*
X127708226Y-26339730D01*
X109229654Y-81965921D02*
X108429654Y-81965921D01*
X108429654Y-82156397D01*
X108467750Y-82270683D01*
X108543940Y-82346873D01*
X108620130Y-82384969D01*
X108772511Y-82423064D01*
X108886797Y-82423064D01*
X109039178Y-82384969D01*
X109115369Y-82346873D01*
X109191559Y-82270683D01*
X109229654Y-82156397D01*
X109229654Y-81965921D01*
X108505845Y-82727826D02*
X108467750Y-82765921D01*
X108429654Y-82842111D01*
X108429654Y-83032588D01*
X108467750Y-83108778D01*
X108505845Y-83146873D01*
X108582035Y-83184969D01*
X108658226Y-83184969D01*
X108772511Y-83146873D01*
X109229654Y-82689730D01*
X109229654Y-83184969D01*
X108429654Y-83680207D02*
X108429654Y-83756397D01*
X108467750Y-83832588D01*
X108505845Y-83870683D01*
X108582035Y-83908778D01*
X108734416Y-83946873D01*
X108924892Y-83946873D01*
X109077273Y-83908778D01*
X109153464Y-83870683D01*
X109191559Y-83832588D01*
X109229654Y-83756397D01*
X109229654Y-83680207D01*
X109191559Y-83604016D01*
X109153464Y-83565921D01*
X109077273Y-83527826D01*
X108924892Y-83489730D01*
X108734416Y-83489730D01*
X108582035Y-83527826D01*
X108505845Y-83565921D01*
X108467750Y-83604016D01*
X108429654Y-83680207D01*
X109229654Y-62915921D02*
X108429654Y-62915921D01*
X108429654Y-63106397D01*
X108467750Y-63220683D01*
X108543940Y-63296873D01*
X108620130Y-63334969D01*
X108772511Y-63373064D01*
X108886797Y-63373064D01*
X109039178Y-63334969D01*
X109115369Y-63296873D01*
X109191559Y-63220683D01*
X109229654Y-63106397D01*
X109229654Y-62915921D01*
X109229654Y-64134969D02*
X109229654Y-63677826D01*
X109229654Y-63906397D02*
X108429654Y-63906397D01*
X108543940Y-63830207D01*
X108620130Y-63754016D01*
X108658226Y-63677826D01*
X109229654Y-64515921D02*
X109229654Y-64668302D01*
X109191559Y-64744492D01*
X109153464Y-64782588D01*
X109039178Y-64858778D01*
X108886797Y-64896873D01*
X108582035Y-64896873D01*
X108505845Y-64858778D01*
X108467750Y-64820683D01*
X108429654Y-64744492D01*
X108429654Y-64592111D01*
X108467750Y-64515921D01*
X108505845Y-64477826D01*
X108582035Y-64439730D01*
X108772511Y-64439730D01*
X108848702Y-64477826D01*
X108886797Y-64515921D01*
X108924892Y-64592111D01*
X108924892Y-64744492D01*
X108886797Y-64820683D01*
X108848702Y-64858778D01*
X108772511Y-64896873D01*
X109229654Y-43865921D02*
X108429654Y-43865921D01*
X108429654Y-44056397D01*
X108467750Y-44170683D01*
X108543940Y-44246873D01*
X108620130Y-44284969D01*
X108772511Y-44323064D01*
X108886797Y-44323064D01*
X109039178Y-44284969D01*
X109115369Y-44246873D01*
X109191559Y-44170683D01*
X109229654Y-44056397D01*
X109229654Y-43865921D01*
X109229654Y-45084969D02*
X109229654Y-44627826D01*
X109229654Y-44856397D02*
X108429654Y-44856397D01*
X108543940Y-44780207D01*
X108620130Y-44704016D01*
X108658226Y-44627826D01*
X108772511Y-45542111D02*
X108734416Y-45465921D01*
X108696321Y-45427826D01*
X108620130Y-45389730D01*
X108582035Y-45389730D01*
X108505845Y-45427826D01*
X108467750Y-45465921D01*
X108429654Y-45542111D01*
X108429654Y-45694492D01*
X108467750Y-45770683D01*
X108505845Y-45808778D01*
X108582035Y-45846873D01*
X108620130Y-45846873D01*
X108696321Y-45808778D01*
X108734416Y-45770683D01*
X108772511Y-45694492D01*
X108772511Y-45542111D01*
X108810607Y-45465921D01*
X108848702Y-45427826D01*
X108924892Y-45389730D01*
X109077273Y-45389730D01*
X109153464Y-45427826D01*
X109191559Y-45465921D01*
X109229654Y-45542111D01*
X109229654Y-45694492D01*
X109191559Y-45770683D01*
X109153464Y-45808778D01*
X109077273Y-45846873D01*
X108924892Y-45846873D01*
X108848702Y-45808778D01*
X108810607Y-45770683D01*
X108772511Y-45694492D01*
X109229654Y-24815921D02*
X108429654Y-24815921D01*
X108429654Y-25006397D01*
X108467750Y-25120683D01*
X108543940Y-25196873D01*
X108620130Y-25234969D01*
X108772511Y-25273064D01*
X108886797Y-25273064D01*
X109039178Y-25234969D01*
X109115369Y-25196873D01*
X109191559Y-25120683D01*
X109229654Y-25006397D01*
X109229654Y-24815921D01*
X109229654Y-26034969D02*
X109229654Y-25577826D01*
X109229654Y-25806397D02*
X108429654Y-25806397D01*
X108543940Y-25730207D01*
X108620130Y-25654016D01*
X108658226Y-25577826D01*
X108429654Y-26301635D02*
X108429654Y-26834969D01*
X109229654Y-26492111D01*
X90179654Y-81965921D02*
X89379654Y-81965921D01*
X89379654Y-82156397D01*
X89417750Y-82270683D01*
X89493940Y-82346873D01*
X89570130Y-82384969D01*
X89722511Y-82423064D01*
X89836797Y-82423064D01*
X89989178Y-82384969D01*
X90065369Y-82346873D01*
X90141559Y-82270683D01*
X90179654Y-82156397D01*
X90179654Y-81965921D01*
X90179654Y-83184969D02*
X90179654Y-82727826D01*
X90179654Y-82956397D02*
X89379654Y-82956397D01*
X89493940Y-82880207D01*
X89570130Y-82804016D01*
X89608226Y-82727826D01*
X89379654Y-83870683D02*
X89379654Y-83718302D01*
X89417750Y-83642111D01*
X89455845Y-83604016D01*
X89570130Y-83527826D01*
X89722511Y-83489730D01*
X90027273Y-83489730D01*
X90103464Y-83527826D01*
X90141559Y-83565921D01*
X90179654Y-83642111D01*
X90179654Y-83794492D01*
X90141559Y-83870683D01*
X90103464Y-83908778D01*
X90027273Y-83946873D01*
X89836797Y-83946873D01*
X89760607Y-83908778D01*
X89722511Y-83870683D01*
X89684416Y-83794492D01*
X89684416Y-83642111D01*
X89722511Y-83565921D01*
X89760607Y-83527826D01*
X89836797Y-83489730D01*
X90179654Y-62915921D02*
X89379654Y-62915921D01*
X89379654Y-63106397D01*
X89417750Y-63220683D01*
X89493940Y-63296873D01*
X89570130Y-63334969D01*
X89722511Y-63373064D01*
X89836797Y-63373064D01*
X89989178Y-63334969D01*
X90065369Y-63296873D01*
X90141559Y-63220683D01*
X90179654Y-63106397D01*
X90179654Y-62915921D01*
X90179654Y-64134969D02*
X90179654Y-63677826D01*
X90179654Y-63906397D02*
X89379654Y-63906397D01*
X89493940Y-63830207D01*
X89570130Y-63754016D01*
X89608226Y-63677826D01*
X89379654Y-64858778D02*
X89379654Y-64477826D01*
X89760607Y-64439730D01*
X89722511Y-64477826D01*
X89684416Y-64554016D01*
X89684416Y-64744492D01*
X89722511Y-64820683D01*
X89760607Y-64858778D01*
X89836797Y-64896873D01*
X90027273Y-64896873D01*
X90103464Y-64858778D01*
X90141559Y-64820683D01*
X90179654Y-64744492D01*
X90179654Y-64554016D01*
X90141559Y-64477826D01*
X90103464Y-64439730D01*
X90179654Y-43865921D02*
X89379654Y-43865921D01*
X89379654Y-44056397D01*
X89417750Y-44170683D01*
X89493940Y-44246873D01*
X89570130Y-44284969D01*
X89722511Y-44323064D01*
X89836797Y-44323064D01*
X89989178Y-44284969D01*
X90065369Y-44246873D01*
X90141559Y-44170683D01*
X90179654Y-44056397D01*
X90179654Y-43865921D01*
X90179654Y-45084969D02*
X90179654Y-44627826D01*
X90179654Y-44856397D02*
X89379654Y-44856397D01*
X89493940Y-44780207D01*
X89570130Y-44704016D01*
X89608226Y-44627826D01*
X89646321Y-45770683D02*
X90179654Y-45770683D01*
X89341559Y-45580207D02*
X89912988Y-45389730D01*
X89912988Y-45884969D01*
X90179654Y-24815921D02*
X89379654Y-24815921D01*
X89379654Y-25006397D01*
X89417750Y-25120683D01*
X89493940Y-25196873D01*
X89570130Y-25234969D01*
X89722511Y-25273064D01*
X89836797Y-25273064D01*
X89989178Y-25234969D01*
X90065369Y-25196873D01*
X90141559Y-25120683D01*
X90179654Y-25006397D01*
X90179654Y-24815921D01*
X90179654Y-26034969D02*
X90179654Y-25577826D01*
X90179654Y-25806397D02*
X89379654Y-25806397D01*
X89493940Y-25730207D01*
X89570130Y-25654016D01*
X89608226Y-25577826D01*
X89379654Y-26301635D02*
X89379654Y-26796873D01*
X89684416Y-26530207D01*
X89684416Y-26644492D01*
X89722511Y-26720683D01*
X89760607Y-26758778D01*
X89836797Y-26796873D01*
X90027273Y-26796873D01*
X90103464Y-26758778D01*
X90141559Y-26720683D01*
X90179654Y-26644492D01*
X90179654Y-26415921D01*
X90141559Y-26339730D01*
X90103464Y-26301635D01*
X71129654Y-81965921D02*
X70329654Y-81965921D01*
X70329654Y-82156397D01*
X70367750Y-82270683D01*
X70443940Y-82346873D01*
X70520130Y-82384969D01*
X70672511Y-82423064D01*
X70786797Y-82423064D01*
X70939178Y-82384969D01*
X71015369Y-82346873D01*
X71091559Y-82270683D01*
X71129654Y-82156397D01*
X71129654Y-81965921D01*
X71129654Y-83184969D02*
X71129654Y-82727826D01*
X71129654Y-82956397D02*
X70329654Y-82956397D01*
X70443940Y-82880207D01*
X70520130Y-82804016D01*
X70558226Y-82727826D01*
X70405845Y-83489730D02*
X70367750Y-83527826D01*
X70329654Y-83604016D01*
X70329654Y-83794492D01*
X70367750Y-83870683D01*
X70405845Y-83908778D01*
X70482035Y-83946873D01*
X70558226Y-83946873D01*
X70672511Y-83908778D01*
X71129654Y-83451635D01*
X71129654Y-83946873D01*
X71129654Y-62915921D02*
X70329654Y-62915921D01*
X70329654Y-63106397D01*
X70367750Y-63220683D01*
X70443940Y-63296873D01*
X70520130Y-63334969D01*
X70672511Y-63373064D01*
X70786797Y-63373064D01*
X70939178Y-63334969D01*
X71015369Y-63296873D01*
X71091559Y-63220683D01*
X71129654Y-63106397D01*
X71129654Y-62915921D01*
X71129654Y-64134969D02*
X71129654Y-63677826D01*
X71129654Y-63906397D02*
X70329654Y-63906397D01*
X70443940Y-63830207D01*
X70520130Y-63754016D01*
X70558226Y-63677826D01*
X71129654Y-64896873D02*
X71129654Y-64439730D01*
X71129654Y-64668302D02*
X70329654Y-64668302D01*
X70443940Y-64592111D01*
X70520130Y-64515921D01*
X70558226Y-64439730D01*
X71129654Y-43865921D02*
X70329654Y-43865921D01*
X70329654Y-44056397D01*
X70367750Y-44170683D01*
X70443940Y-44246873D01*
X70520130Y-44284969D01*
X70672511Y-44323064D01*
X70786797Y-44323064D01*
X70939178Y-44284969D01*
X71015369Y-44246873D01*
X71091559Y-44170683D01*
X71129654Y-44056397D01*
X71129654Y-43865921D01*
X71129654Y-45084969D02*
X71129654Y-44627826D01*
X71129654Y-44856397D02*
X70329654Y-44856397D01*
X70443940Y-44780207D01*
X70520130Y-44704016D01*
X70558226Y-44627826D01*
X70329654Y-45580207D02*
X70329654Y-45656397D01*
X70367750Y-45732588D01*
X70405845Y-45770683D01*
X70482035Y-45808778D01*
X70634416Y-45846873D01*
X70824892Y-45846873D01*
X70977273Y-45808778D01*
X71053464Y-45770683D01*
X71091559Y-45732588D01*
X71129654Y-45656397D01*
X71129654Y-45580207D01*
X71091559Y-45504016D01*
X71053464Y-45465921D01*
X70977273Y-45427826D01*
X70824892Y-45389730D01*
X70634416Y-45389730D01*
X70482035Y-45427826D01*
X70405845Y-45465921D01*
X70367750Y-45504016D01*
X70329654Y-45580207D01*
X71129654Y-25196873D02*
X70329654Y-25196873D01*
X70329654Y-25387350D01*
X70367750Y-25501635D01*
X70443940Y-25577826D01*
X70520130Y-25615921D01*
X70672511Y-25654016D01*
X70786797Y-25654016D01*
X70939178Y-25615921D01*
X71015369Y-25577826D01*
X71091559Y-25501635D01*
X71129654Y-25387350D01*
X71129654Y-25196873D01*
X71129654Y-26034969D02*
X71129654Y-26187350D01*
X71091559Y-26263540D01*
X71053464Y-26301635D01*
X70939178Y-26377826D01*
X70786797Y-26415921D01*
X70482035Y-26415921D01*
X70405845Y-26377826D01*
X70367750Y-26339730D01*
X70329654Y-26263540D01*
X70329654Y-26111159D01*
X70367750Y-26034969D01*
X70405845Y-25996873D01*
X70482035Y-25958778D01*
X70672511Y-25958778D01*
X70748702Y-25996873D01*
X70786797Y-26034969D01*
X70824892Y-26111159D01*
X70824892Y-26263540D01*
X70786797Y-26339730D01*
X70748702Y-26377826D01*
X70672511Y-26415921D01*
X54873654Y-82346873D02*
X54073654Y-82346873D01*
X54073654Y-82537350D01*
X54111750Y-82651635D01*
X54187940Y-82727826D01*
X54264130Y-82765921D01*
X54416511Y-82804016D01*
X54530797Y-82804016D01*
X54683178Y-82765921D01*
X54759369Y-82727826D01*
X54835559Y-82651635D01*
X54873654Y-82537350D01*
X54873654Y-82346873D01*
X54416511Y-83261159D02*
X54378416Y-83184969D01*
X54340321Y-83146873D01*
X54264130Y-83108778D01*
X54226035Y-83108778D01*
X54149845Y-83146873D01*
X54111750Y-83184969D01*
X54073654Y-83261159D01*
X54073654Y-83413540D01*
X54111750Y-83489730D01*
X54149845Y-83527826D01*
X54226035Y-83565921D01*
X54264130Y-83565921D01*
X54340321Y-83527826D01*
X54378416Y-83489730D01*
X54416511Y-83413540D01*
X54416511Y-83261159D01*
X54454607Y-83184969D01*
X54492702Y-83146873D01*
X54568892Y-83108778D01*
X54721273Y-83108778D01*
X54797464Y-83146873D01*
X54835559Y-83184969D01*
X54873654Y-83261159D01*
X54873654Y-83413540D01*
X54835559Y-83489730D01*
X54797464Y-83527826D01*
X54721273Y-83565921D01*
X54568892Y-83565921D01*
X54492702Y-83527826D01*
X54454607Y-83489730D01*
X54416511Y-83413540D01*
X54873654Y-63296873D02*
X54073654Y-63296873D01*
X54073654Y-63487350D01*
X54111750Y-63601635D01*
X54187940Y-63677826D01*
X54264130Y-63715921D01*
X54416511Y-63754016D01*
X54530797Y-63754016D01*
X54683178Y-63715921D01*
X54759369Y-63677826D01*
X54835559Y-63601635D01*
X54873654Y-63487350D01*
X54873654Y-63296873D01*
X54073654Y-64020683D02*
X54073654Y-64554016D01*
X54873654Y-64211159D01*
X54873654Y-44246873D02*
X54073654Y-44246873D01*
X54073654Y-44437350D01*
X54111750Y-44551635D01*
X54187940Y-44627826D01*
X54264130Y-44665921D01*
X54416511Y-44704016D01*
X54530797Y-44704016D01*
X54683178Y-44665921D01*
X54759369Y-44627826D01*
X54835559Y-44551635D01*
X54873654Y-44437350D01*
X54873654Y-44246873D01*
X54073654Y-45389730D02*
X54073654Y-45237350D01*
X54111750Y-45161159D01*
X54149845Y-45123064D01*
X54264130Y-45046873D01*
X54416511Y-45008778D01*
X54721273Y-45008778D01*
X54797464Y-45046873D01*
X54835559Y-45084969D01*
X54873654Y-45161159D01*
X54873654Y-45313540D01*
X54835559Y-45389730D01*
X54797464Y-45427826D01*
X54721273Y-45465921D01*
X54530797Y-45465921D01*
X54454607Y-45427826D01*
X54416511Y-45389730D01*
X54378416Y-45313540D01*
X54378416Y-45161159D01*
X54416511Y-45084969D01*
X54454607Y-45046873D01*
X54530797Y-45008778D01*
X54873654Y-25196873D02*
X54073654Y-25196873D01*
X54073654Y-25387350D01*
X54111750Y-25501635D01*
X54187940Y-25577826D01*
X54264130Y-25615921D01*
X54416511Y-25654016D01*
X54530797Y-25654016D01*
X54683178Y-25615921D01*
X54759369Y-25577826D01*
X54835559Y-25501635D01*
X54873654Y-25387350D01*
X54873654Y-25196873D01*
X54073654Y-26377826D02*
X54073654Y-25996873D01*
X54454607Y-25958778D01*
X54416511Y-25996873D01*
X54378416Y-26073064D01*
X54378416Y-26263540D01*
X54416511Y-26339730D01*
X54454607Y-26377826D01*
X54530797Y-26415921D01*
X54721273Y-26415921D01*
X54797464Y-26377826D01*
X54835559Y-26339730D01*
X54873654Y-26263540D01*
X54873654Y-26073064D01*
X54835559Y-25996873D01*
X54797464Y-25958778D01*
X33029654Y-82346873D02*
X32229654Y-82346873D01*
X32229654Y-82537350D01*
X32267750Y-82651635D01*
X32343940Y-82727826D01*
X32420130Y-82765921D01*
X32572511Y-82804016D01*
X32686797Y-82804016D01*
X32839178Y-82765921D01*
X32915369Y-82727826D01*
X32991559Y-82651635D01*
X33029654Y-82537350D01*
X33029654Y-82346873D01*
X32496321Y-83489730D02*
X33029654Y-83489730D01*
X32191559Y-83299254D02*
X32762988Y-83108778D01*
X32762988Y-83604016D01*
X33029654Y-63296873D02*
X32229654Y-63296873D01*
X32229654Y-63487350D01*
X32267750Y-63601635D01*
X32343940Y-63677826D01*
X32420130Y-63715921D01*
X32572511Y-63754016D01*
X32686797Y-63754016D01*
X32839178Y-63715921D01*
X32915369Y-63677826D01*
X32991559Y-63601635D01*
X33029654Y-63487350D01*
X33029654Y-63296873D01*
X32229654Y-64020683D02*
X32229654Y-64515921D01*
X32534416Y-64249254D01*
X32534416Y-64363540D01*
X32572511Y-64439730D01*
X32610607Y-64477826D01*
X32686797Y-64515921D01*
X32877273Y-64515921D01*
X32953464Y-64477826D01*
X32991559Y-64439730D01*
X33029654Y-64363540D01*
X33029654Y-64134969D01*
X32991559Y-64058778D01*
X32953464Y-64020683D01*
X33029654Y-44246873D02*
X32229654Y-44246873D01*
X32229654Y-44437350D01*
X32267750Y-44551635D01*
X32343940Y-44627826D01*
X32420130Y-44665921D01*
X32572511Y-44704016D01*
X32686797Y-44704016D01*
X32839178Y-44665921D01*
X32915369Y-44627826D01*
X32991559Y-44551635D01*
X33029654Y-44437350D01*
X33029654Y-44246873D01*
X32305845Y-45008778D02*
X32267750Y-45046873D01*
X32229654Y-45123064D01*
X32229654Y-45313540D01*
X32267750Y-45389730D01*
X32305845Y-45427826D01*
X32382035Y-45465921D01*
X32458226Y-45465921D01*
X32572511Y-45427826D01*
X33029654Y-44970683D01*
X33029654Y-45465921D01*
X33029654Y-25196873D02*
X32229654Y-25196873D01*
X32229654Y-25387350D01*
X32267750Y-25501635D01*
X32343940Y-25577826D01*
X32420130Y-25615921D01*
X32572511Y-25654016D01*
X32686797Y-25654016D01*
X32839178Y-25615921D01*
X32915369Y-25577826D01*
X32991559Y-25501635D01*
X33029654Y-25387350D01*
X33029654Y-25196873D01*
X33029654Y-26415921D02*
X33029654Y-25958778D01*
X33029654Y-26187350D02*
X32229654Y-26187350D01*
X32343940Y-26111159D01*
X32420130Y-26034969D01*
X32458226Y-25958778D01*
%LPC*%
D12*
X111633000Y-54229000D03*
X187833000Y-35179000D03*
X187960000Y-73279000D03*
X35306000Y-73279000D03*
X33528000Y-35179000D03*
D13*
X199929750Y-77755750D03*
D14*
X197389750Y-82835750D03*
D13*
X193579750Y-80295750D03*
D15*
X192309750Y-82835750D03*
X202469750Y-82835750D03*
D13*
X199929750Y-58705750D03*
D14*
X197389750Y-63785750D03*
D13*
X193579750Y-61245750D03*
D15*
X192309750Y-63785750D03*
X202469750Y-63785750D03*
D13*
X199929750Y-39655750D03*
D14*
X197389750Y-44735750D03*
D13*
X193579750Y-42195750D03*
D15*
X192309750Y-44735750D03*
X202469750Y-44735750D03*
D13*
X199929750Y-20605750D03*
D14*
X197389750Y-25685750D03*
D13*
X193579750Y-23145750D03*
D15*
X192309750Y-25685750D03*
X202469750Y-25685750D03*
D13*
X180879750Y-77755750D03*
D14*
X178339750Y-82835750D03*
D13*
X174529750Y-80295750D03*
D15*
X173259750Y-82835750D03*
X183419750Y-82835750D03*
D13*
X180879750Y-58705750D03*
D14*
X178339750Y-63785750D03*
D13*
X174529750Y-61245750D03*
D15*
X173259750Y-63785750D03*
X183419750Y-63785750D03*
D13*
X180879750Y-39655750D03*
D14*
X178339750Y-44735750D03*
D13*
X174529750Y-42195750D03*
D15*
X173259750Y-44735750D03*
X183419750Y-44735750D03*
D13*
X180879750Y-20605750D03*
D14*
X178339750Y-25685750D03*
D13*
X174529750Y-23145750D03*
D15*
X173259750Y-25685750D03*
X183419750Y-25685750D03*
D13*
X161829750Y-77755750D03*
D14*
X159289750Y-82835750D03*
D13*
X155479750Y-80295750D03*
D15*
X154209750Y-82835750D03*
X164369750Y-82835750D03*
D13*
X161829750Y-58705750D03*
D14*
X159289750Y-63785750D03*
D13*
X155479750Y-61245750D03*
D15*
X154209750Y-63785750D03*
X164369750Y-63785750D03*
D13*
X161829750Y-39655750D03*
D14*
X159289750Y-44735750D03*
D13*
X155479750Y-42195750D03*
D15*
X154209750Y-44735750D03*
X164369750Y-44735750D03*
D13*
X161829750Y-20605750D03*
D14*
X159289750Y-25685750D03*
D13*
X155479750Y-23145750D03*
D15*
X154209750Y-25685750D03*
X164369750Y-25685750D03*
D13*
X142779750Y-77755750D03*
D14*
X140239750Y-82835750D03*
D13*
X136429750Y-80295750D03*
D15*
X135159750Y-82835750D03*
X145319750Y-82835750D03*
D13*
X142779750Y-58705750D03*
D14*
X140239750Y-63785750D03*
D13*
X136429750Y-61245750D03*
D15*
X135159750Y-63785750D03*
X145319750Y-63785750D03*
D13*
X142779750Y-39655750D03*
D14*
X140239750Y-44735750D03*
D13*
X136429750Y-42195750D03*
D15*
X135159750Y-44735750D03*
X145319750Y-44735750D03*
D13*
X142779750Y-20605750D03*
D14*
X140239750Y-25685750D03*
D13*
X136429750Y-23145750D03*
D15*
X135159750Y-25685750D03*
X145319750Y-25685750D03*
D13*
X123729750Y-77755750D03*
D14*
X121189750Y-82835750D03*
D13*
X117379750Y-80295750D03*
D15*
X116109750Y-82835750D03*
X126269750Y-82835750D03*
D13*
X123729750Y-58705750D03*
D14*
X121189750Y-63785750D03*
D13*
X117379750Y-61245750D03*
D15*
X116109750Y-63785750D03*
X126269750Y-63785750D03*
D13*
X123729750Y-39655750D03*
D14*
X121189750Y-44735750D03*
D13*
X117379750Y-42195750D03*
D15*
X116109750Y-44735750D03*
X126269750Y-44735750D03*
D13*
X123729750Y-20605750D03*
D14*
X121189750Y-25685750D03*
D13*
X117379750Y-23145750D03*
D15*
X116109750Y-25685750D03*
X126269750Y-25685750D03*
D13*
X104679750Y-77755750D03*
D14*
X102139750Y-82835750D03*
D13*
X98329750Y-80295750D03*
D15*
X97059750Y-82835750D03*
X107219750Y-82835750D03*
D13*
X104679750Y-58705750D03*
D14*
X102139750Y-63785750D03*
D13*
X98329750Y-61245750D03*
D15*
X97059750Y-63785750D03*
X107219750Y-63785750D03*
D13*
X104679750Y-39655750D03*
D14*
X102139750Y-44735750D03*
D13*
X98329750Y-42195750D03*
D15*
X97059750Y-44735750D03*
X107219750Y-44735750D03*
D13*
X104679750Y-20605750D03*
D14*
X102139750Y-25685750D03*
D13*
X98329750Y-23145750D03*
D15*
X97059750Y-25685750D03*
X107219750Y-25685750D03*
D13*
X85629750Y-77755750D03*
D14*
X83089750Y-82835750D03*
D13*
X79279750Y-80295750D03*
D15*
X78009750Y-82835750D03*
X88169750Y-82835750D03*
D13*
X85629750Y-58705750D03*
D14*
X83089750Y-63785750D03*
D13*
X79279750Y-61245750D03*
D15*
X78009750Y-63785750D03*
X88169750Y-63785750D03*
D13*
X85629750Y-39655750D03*
D14*
X83089750Y-44735750D03*
D13*
X79279750Y-42195750D03*
D15*
X78009750Y-44735750D03*
X88169750Y-44735750D03*
D13*
X85629750Y-20605750D03*
D14*
X83089750Y-25685750D03*
D13*
X79279750Y-23145750D03*
D15*
X78009750Y-25685750D03*
X88169750Y-25685750D03*
D13*
X66579750Y-77755750D03*
D14*
X64039750Y-82835750D03*
D13*
X60229750Y-80295750D03*
D15*
X58959750Y-82835750D03*
X69119750Y-82835750D03*
D13*
X66579750Y-58705750D03*
D14*
X64039750Y-63785750D03*
D13*
X60229750Y-61245750D03*
D15*
X58959750Y-63785750D03*
X69119750Y-63785750D03*
D13*
X66579750Y-39655750D03*
D14*
X64039750Y-44735750D03*
D13*
X60229750Y-42195750D03*
D15*
X58959750Y-44735750D03*
X69119750Y-44735750D03*
D13*
X66579750Y-20605750D03*
D14*
X64039750Y-25685750D03*
D13*
X60229750Y-23145750D03*
D15*
X58959750Y-25685750D03*
X69119750Y-25685750D03*
D13*
X47529750Y-77755750D03*
D14*
X44989750Y-82835750D03*
D13*
X41179750Y-80295750D03*
D15*
X39909750Y-82835750D03*
X50069750Y-82835750D03*
D13*
X47529750Y-58705750D03*
D14*
X44989750Y-63785750D03*
D13*
X41179750Y-61245750D03*
D15*
X39909750Y-63785750D03*
X50069750Y-63785750D03*
D13*
X47529750Y-39655750D03*
D14*
X44989750Y-44735750D03*
D13*
X41179750Y-42195750D03*
D15*
X39909750Y-44735750D03*
X50069750Y-44735750D03*
D13*
X47529750Y-20605750D03*
D14*
X44989750Y-25685750D03*
D13*
X41179750Y-23145750D03*
D15*
X39909750Y-25685750D03*
X50069750Y-25685750D03*
D13*
X28479750Y-77755750D03*
D14*
X25939750Y-82835750D03*
D13*
X22129750Y-80295750D03*
D15*
X20859750Y-82835750D03*
X31019750Y-82835750D03*
D13*
X28479750Y-58705750D03*
D14*
X25939750Y-63785750D03*
D13*
X22129750Y-61245750D03*
D15*
X20859750Y-63785750D03*
X31019750Y-63785750D03*
D13*
X28479750Y-39655750D03*
D14*
X25939750Y-44735750D03*
D13*
X22129750Y-42195750D03*
D15*
X20859750Y-44735750D03*
X31019750Y-44735750D03*
D13*
X28479750Y-20605750D03*
D14*
X25939750Y-25685750D03*
D13*
X22129750Y-23145750D03*
D15*
X20859750Y-25685750D03*
X31019750Y-25685750D03*
D16*
X52609750Y-21240750D03*
X37369750Y-49180750D03*
X52609750Y-23780750D03*
X52609750Y-26320750D03*
X52609750Y-28860750D03*
X52609750Y-31400750D03*
X52609750Y-33940750D03*
X52609750Y-36480750D03*
X52609750Y-39020750D03*
X52609750Y-41560750D03*
X52609750Y-44100750D03*
X52609750Y-46640750D03*
X52609750Y-49180750D03*
X37369750Y-46640750D03*
X37369750Y-44100750D03*
X37369750Y-41560750D03*
X37369750Y-39020750D03*
X37369750Y-36480750D03*
X37369750Y-33940750D03*
X37369750Y-31400750D03*
X37369750Y-28860750D03*
X37369750Y-26320750D03*
X37369750Y-23780750D03*
D17*
X37369750Y-21240750D03*
D18*
X189261750Y-86862750D03*
D19*
X189261750Y-79062750D03*
D20*
X189261750Y-84362750D03*
X189261750Y-81562750D03*
D18*
X189261750Y-67812750D03*
D19*
X189261750Y-60012750D03*
D20*
X189261750Y-65312750D03*
X189261750Y-62512750D03*
D18*
X189261750Y-48762750D03*
D19*
X189261750Y-40962750D03*
D20*
X189261750Y-46262750D03*
X189261750Y-43462750D03*
D18*
X189261750Y-29712750D03*
D19*
X189261750Y-21912750D03*
D20*
X189261750Y-27212750D03*
X189261750Y-24412750D03*
D18*
X186467750Y-86862750D03*
D19*
X186467750Y-79062750D03*
D20*
X186467750Y-84362750D03*
X186467750Y-81562750D03*
D18*
X186467750Y-67812750D03*
D19*
X186467750Y-60012750D03*
D20*
X186467750Y-65312750D03*
X186467750Y-62512750D03*
D18*
X186467750Y-48762750D03*
D19*
X186467750Y-40962750D03*
D20*
X186467750Y-46262750D03*
X186467750Y-43462750D03*
D18*
X186467750Y-29712750D03*
D19*
X186467750Y-21912750D03*
D20*
X186467750Y-27212750D03*
X186467750Y-24412750D03*
D18*
X167417750Y-86862750D03*
D19*
X167417750Y-79062750D03*
D20*
X167417750Y-84362750D03*
X167417750Y-81562750D03*
D18*
X167417750Y-67812750D03*
D19*
X167417750Y-60012750D03*
D20*
X167417750Y-65312750D03*
X167417750Y-62512750D03*
D18*
X167417750Y-48762750D03*
D19*
X167417750Y-40962750D03*
D20*
X167417750Y-46262750D03*
X167417750Y-43462750D03*
D18*
X167417750Y-29712750D03*
D19*
X167417750Y-21912750D03*
D20*
X167417750Y-27212750D03*
X167417750Y-24412750D03*
D18*
X148367750Y-86862750D03*
D19*
X148367750Y-79062750D03*
D20*
X148367750Y-84362750D03*
X148367750Y-81562750D03*
D18*
X148367750Y-67812750D03*
D19*
X148367750Y-60012750D03*
D20*
X148367750Y-65312750D03*
X148367750Y-62512750D03*
D18*
X148367750Y-48762750D03*
D19*
X148367750Y-40962750D03*
D20*
X148367750Y-46262750D03*
X148367750Y-43462750D03*
D18*
X148367750Y-29712750D03*
D19*
X148367750Y-21912750D03*
D20*
X148367750Y-27212750D03*
X148367750Y-24412750D03*
D18*
X129317750Y-86862750D03*
D19*
X129317750Y-79062750D03*
D20*
X129317750Y-84362750D03*
X129317750Y-81562750D03*
D18*
X129317750Y-67812750D03*
D19*
X129317750Y-60012750D03*
D20*
X129317750Y-65312750D03*
X129317750Y-62512750D03*
D18*
X129317750Y-48762750D03*
D19*
X129317750Y-40962750D03*
D20*
X129317750Y-46262750D03*
X129317750Y-43462750D03*
D18*
X129317750Y-29712750D03*
D19*
X129317750Y-21912750D03*
D20*
X129317750Y-27212750D03*
X129317750Y-24412750D03*
D18*
X110267750Y-86862750D03*
D19*
X110267750Y-79062750D03*
D20*
X110267750Y-84362750D03*
X110267750Y-81562750D03*
D18*
X110267750Y-67812750D03*
D19*
X110267750Y-60012750D03*
D20*
X110267750Y-65312750D03*
X110267750Y-62512750D03*
D18*
X110267750Y-48762750D03*
D19*
X110267750Y-40962750D03*
D20*
X110267750Y-46262750D03*
X110267750Y-43462750D03*
D18*
X110267750Y-29712750D03*
D19*
X110267750Y-21912750D03*
D20*
X110267750Y-27212750D03*
X110267750Y-24412750D03*
D18*
X91217750Y-86862750D03*
D19*
X91217750Y-79062750D03*
D20*
X91217750Y-84362750D03*
X91217750Y-81562750D03*
D18*
X91217750Y-67812750D03*
D19*
X91217750Y-60012750D03*
D20*
X91217750Y-65312750D03*
X91217750Y-62512750D03*
D18*
X91217750Y-48762750D03*
D19*
X91217750Y-40962750D03*
D20*
X91217750Y-46262750D03*
X91217750Y-43462750D03*
D18*
X91217750Y-29712750D03*
D19*
X91217750Y-21912750D03*
D20*
X91217750Y-27212750D03*
X91217750Y-24412750D03*
D18*
X72167750Y-86862750D03*
D19*
X72167750Y-79062750D03*
D20*
X72167750Y-84362750D03*
X72167750Y-81562750D03*
D18*
X72167750Y-67812750D03*
D19*
X72167750Y-60012750D03*
D20*
X72167750Y-65312750D03*
X72167750Y-62512750D03*
D18*
X72167750Y-48762750D03*
D19*
X72167750Y-40962750D03*
D20*
X72167750Y-46262750D03*
X72167750Y-43462750D03*
D18*
X72167750Y-29712750D03*
D19*
X72167750Y-21912750D03*
D20*
X72167750Y-27212750D03*
X72167750Y-24412750D03*
D18*
X55911750Y-86862750D03*
D19*
X55911750Y-79062750D03*
D20*
X55911750Y-84362750D03*
X55911750Y-81562750D03*
D18*
X55911750Y-67812750D03*
D19*
X55911750Y-60012750D03*
D20*
X55911750Y-65312750D03*
X55911750Y-62512750D03*
D18*
X55911750Y-48762750D03*
D19*
X55911750Y-40962750D03*
D20*
X55911750Y-46262750D03*
X55911750Y-43462750D03*
D18*
X55911750Y-29712750D03*
D19*
X55911750Y-21912750D03*
D20*
X55911750Y-27212750D03*
X55911750Y-24412750D03*
D18*
X34067750Y-86862750D03*
D19*
X34067750Y-79062750D03*
D20*
X34067750Y-84362750D03*
X34067750Y-81562750D03*
D18*
X34067750Y-67812750D03*
D19*
X34067750Y-60012750D03*
D20*
X34067750Y-65312750D03*
X34067750Y-62512750D03*
D18*
X34067750Y-48762750D03*
D19*
X34067750Y-40962750D03*
D20*
X34067750Y-46262750D03*
X34067750Y-43462750D03*
D18*
X34067750Y-29712750D03*
D19*
X34067750Y-21912750D03*
D20*
X34067750Y-27212750D03*
X34067750Y-24412750D03*
M02*
