G04 #@! TF.GenerationSoftware,KiCad,Pcbnew,(5.1.4-0)*
G04 #@! TF.CreationDate,2021-02-22T20:17:48-07:00*
G04 #@! TF.ProjectId,electrolyte,656c6563-7472-46f6-9c79-74652e6b6963,rev?*
G04 #@! TF.SameCoordinates,Original*
G04 #@! TF.FileFunction,Copper,L2,Bot*
G04 #@! TF.FilePolarity,Positive*
%FSLAX46Y46*%
G04 Gerber Fmt 4.6, Leading zero omitted, Abs format (unit mm)*
G04 Created by KiCad (PCBNEW (5.1.4-0)) date 2021-02-22 20:17:48*
%MOMM*%
%LPD*%
G04 APERTURE LIST*
%ADD10C,4.400000*%
%ADD11C,2.250000*%
%ADD12C,1.752600*%
%ADD13R,1.752600X1.752600*%
%ADD14R,1.600000X1.600000*%
%ADD15C,1.600000*%
%ADD16R,0.500000X2.900000*%
%ADD17R,1.200000X1.600000*%
%ADD18C,0.250000*%
G04 APERTURE END LIST*
D10*
X111633000Y-54229000D03*
X187833000Y-35179000D03*
X187960000Y-73279000D03*
X35306000Y-73279000D03*
X33528000Y-35179000D03*
D11*
X199929750Y-77755750D03*
X193579750Y-80295750D03*
X199929750Y-58705750D03*
X193579750Y-61245750D03*
X199929750Y-39655750D03*
X193579750Y-42195750D03*
X199929750Y-20605750D03*
X193579750Y-23145750D03*
X180879750Y-77755750D03*
X174529750Y-80295750D03*
X180879750Y-58705750D03*
X174529750Y-61245750D03*
X180879750Y-39655750D03*
X174529750Y-42195750D03*
X180879750Y-20605750D03*
X174529750Y-23145750D03*
X161829750Y-77755750D03*
X155479750Y-80295750D03*
X161829750Y-58705750D03*
X155479750Y-61245750D03*
X161829750Y-39655750D03*
X155479750Y-42195750D03*
X161829750Y-20605750D03*
X155479750Y-23145750D03*
X142779750Y-77755750D03*
X136429750Y-80295750D03*
X142779750Y-58705750D03*
X136429750Y-61245750D03*
X142779750Y-39655750D03*
X136429750Y-42195750D03*
X142779750Y-20605750D03*
X136429750Y-23145750D03*
X123729750Y-77755750D03*
X117379750Y-80295750D03*
X123729750Y-58705750D03*
X117379750Y-61245750D03*
X123729750Y-39655750D03*
X117379750Y-42195750D03*
X123729750Y-20605750D03*
X117379750Y-23145750D03*
X104679750Y-77755750D03*
X98329750Y-80295750D03*
X104679750Y-58705750D03*
X98329750Y-61245750D03*
X104679750Y-39655750D03*
X98329750Y-42195750D03*
X104679750Y-20605750D03*
X98329750Y-23145750D03*
X85629750Y-77755750D03*
X79279750Y-80295750D03*
X85629750Y-58705750D03*
X79279750Y-61245750D03*
X85629750Y-39655750D03*
X79279750Y-42195750D03*
X85629750Y-20605750D03*
X79279750Y-23145750D03*
X66579750Y-77755750D03*
X60229750Y-80295750D03*
X66579750Y-58705750D03*
X60229750Y-61245750D03*
X66579750Y-39655750D03*
X60229750Y-42195750D03*
X66579750Y-20605750D03*
X60229750Y-23145750D03*
X47529750Y-77755750D03*
X41179750Y-80295750D03*
X47529750Y-58705750D03*
X41179750Y-61245750D03*
X47529750Y-39655750D03*
X41179750Y-42195750D03*
X47529750Y-20605750D03*
X41179750Y-23145750D03*
X28479750Y-77755750D03*
X22129750Y-80295750D03*
X28479750Y-58705750D03*
X22129750Y-61245750D03*
X28479750Y-39655750D03*
X22129750Y-42195750D03*
X28479750Y-20605750D03*
X22129750Y-23145750D03*
D12*
X52609750Y-21240750D03*
X37369750Y-49180750D03*
X52609750Y-23780750D03*
X52609750Y-26320750D03*
X52609750Y-28860750D03*
X52609750Y-31400750D03*
X52609750Y-33940750D03*
X52609750Y-36480750D03*
X52609750Y-39020750D03*
X52609750Y-41560750D03*
X52609750Y-44100750D03*
X52609750Y-46640750D03*
X52609750Y-49180750D03*
X37369750Y-46640750D03*
X37369750Y-44100750D03*
X37369750Y-41560750D03*
X37369750Y-39020750D03*
X37369750Y-36480750D03*
X37369750Y-33940750D03*
X37369750Y-31400750D03*
X37369750Y-28860750D03*
X37369750Y-26320750D03*
X37369750Y-23780750D03*
D13*
X37369750Y-21240750D03*
D14*
X189261750Y-86862750D03*
D15*
X189261750Y-79062750D03*
D16*
X189261750Y-85462750D03*
D17*
X189261750Y-84362750D03*
X189261750Y-81562750D03*
D16*
X189261750Y-80462750D03*
D14*
X189261750Y-67812750D03*
D15*
X189261750Y-60012750D03*
D16*
X189261750Y-66412750D03*
D17*
X189261750Y-65312750D03*
X189261750Y-62512750D03*
D16*
X189261750Y-61412750D03*
D14*
X189261750Y-48762750D03*
D15*
X189261750Y-40962750D03*
D16*
X189261750Y-47362750D03*
D17*
X189261750Y-46262750D03*
X189261750Y-43462750D03*
D16*
X189261750Y-42362750D03*
D14*
X189261750Y-29712750D03*
D15*
X189261750Y-21912750D03*
D16*
X189261750Y-28312750D03*
D17*
X189261750Y-27212750D03*
X189261750Y-24412750D03*
D16*
X189261750Y-23312750D03*
D14*
X186467750Y-86862750D03*
D15*
X186467750Y-79062750D03*
D16*
X186467750Y-85462750D03*
D17*
X186467750Y-84362750D03*
X186467750Y-81562750D03*
D16*
X186467750Y-80462750D03*
D14*
X186467750Y-67812750D03*
D15*
X186467750Y-60012750D03*
D16*
X186467750Y-66412750D03*
D17*
X186467750Y-65312750D03*
X186467750Y-62512750D03*
D16*
X186467750Y-61412750D03*
D14*
X186467750Y-48762750D03*
D15*
X186467750Y-40962750D03*
D16*
X186467750Y-47362750D03*
D17*
X186467750Y-46262750D03*
X186467750Y-43462750D03*
D16*
X186467750Y-42362750D03*
D14*
X186467750Y-29712750D03*
D15*
X186467750Y-21912750D03*
D16*
X186467750Y-28312750D03*
D17*
X186467750Y-27212750D03*
X186467750Y-24412750D03*
D16*
X186467750Y-23312750D03*
D14*
X167417750Y-86862750D03*
D15*
X167417750Y-79062750D03*
D16*
X167417750Y-85462750D03*
D17*
X167417750Y-84362750D03*
X167417750Y-81562750D03*
D16*
X167417750Y-80462750D03*
D14*
X167417750Y-67812750D03*
D15*
X167417750Y-60012750D03*
D16*
X167417750Y-66412750D03*
D17*
X167417750Y-65312750D03*
X167417750Y-62512750D03*
D16*
X167417750Y-61412750D03*
D14*
X167417750Y-48762750D03*
D15*
X167417750Y-40962750D03*
D16*
X167417750Y-47362750D03*
D17*
X167417750Y-46262750D03*
X167417750Y-43462750D03*
D16*
X167417750Y-42362750D03*
D14*
X167417750Y-29712750D03*
D15*
X167417750Y-21912750D03*
D16*
X167417750Y-28312750D03*
D17*
X167417750Y-27212750D03*
X167417750Y-24412750D03*
D16*
X167417750Y-23312750D03*
D14*
X148367750Y-86862750D03*
D15*
X148367750Y-79062750D03*
D16*
X148367750Y-85462750D03*
D17*
X148367750Y-84362750D03*
X148367750Y-81562750D03*
D16*
X148367750Y-80462750D03*
D14*
X148367750Y-67812750D03*
D15*
X148367750Y-60012750D03*
D16*
X148367750Y-66412750D03*
D17*
X148367750Y-65312750D03*
X148367750Y-62512750D03*
D16*
X148367750Y-61412750D03*
D14*
X148367750Y-48762750D03*
D15*
X148367750Y-40962750D03*
D16*
X148367750Y-47362750D03*
D17*
X148367750Y-46262750D03*
X148367750Y-43462750D03*
D16*
X148367750Y-42362750D03*
D14*
X148367750Y-29712750D03*
D15*
X148367750Y-21912750D03*
D16*
X148367750Y-28312750D03*
D17*
X148367750Y-27212750D03*
X148367750Y-24412750D03*
D16*
X148367750Y-23312750D03*
D14*
X129317750Y-86862750D03*
D15*
X129317750Y-79062750D03*
D16*
X129317750Y-85462750D03*
D17*
X129317750Y-84362750D03*
X129317750Y-81562750D03*
D16*
X129317750Y-80462750D03*
D14*
X129317750Y-67812750D03*
D15*
X129317750Y-60012750D03*
D16*
X129317750Y-66412750D03*
D17*
X129317750Y-65312750D03*
X129317750Y-62512750D03*
D16*
X129317750Y-61412750D03*
D14*
X129317750Y-48762750D03*
D15*
X129317750Y-40962750D03*
D16*
X129317750Y-47362750D03*
D17*
X129317750Y-46262750D03*
X129317750Y-43462750D03*
D16*
X129317750Y-42362750D03*
D14*
X129317750Y-29712750D03*
D15*
X129317750Y-21912750D03*
D16*
X129317750Y-28312750D03*
D17*
X129317750Y-27212750D03*
X129317750Y-24412750D03*
D16*
X129317750Y-23312750D03*
D14*
X110267750Y-86862750D03*
D15*
X110267750Y-79062750D03*
D16*
X110267750Y-85462750D03*
D17*
X110267750Y-84362750D03*
X110267750Y-81562750D03*
D16*
X110267750Y-80462750D03*
D14*
X110267750Y-67812750D03*
D15*
X110267750Y-60012750D03*
D16*
X110267750Y-66412750D03*
D17*
X110267750Y-65312750D03*
X110267750Y-62512750D03*
D16*
X110267750Y-61412750D03*
D14*
X110267750Y-48762750D03*
D15*
X110267750Y-40962750D03*
D16*
X110267750Y-47362750D03*
D17*
X110267750Y-46262750D03*
X110267750Y-43462750D03*
D16*
X110267750Y-42362750D03*
D14*
X110267750Y-29712750D03*
D15*
X110267750Y-21912750D03*
D16*
X110267750Y-28312750D03*
D17*
X110267750Y-27212750D03*
X110267750Y-24412750D03*
D16*
X110267750Y-23312750D03*
D14*
X91217750Y-86862750D03*
D15*
X91217750Y-79062750D03*
D16*
X91217750Y-85462750D03*
D17*
X91217750Y-84362750D03*
X91217750Y-81562750D03*
D16*
X91217750Y-80462750D03*
D14*
X91217750Y-67812750D03*
D15*
X91217750Y-60012750D03*
D16*
X91217750Y-66412750D03*
D17*
X91217750Y-65312750D03*
X91217750Y-62512750D03*
D16*
X91217750Y-61412750D03*
D14*
X91217750Y-48762750D03*
D15*
X91217750Y-40962750D03*
D16*
X91217750Y-47362750D03*
D17*
X91217750Y-46262750D03*
X91217750Y-43462750D03*
D16*
X91217750Y-42362750D03*
D14*
X91217750Y-29712750D03*
D15*
X91217750Y-21912750D03*
D16*
X91217750Y-28312750D03*
D17*
X91217750Y-27212750D03*
X91217750Y-24412750D03*
D16*
X91217750Y-23312750D03*
D14*
X72167750Y-86862750D03*
D15*
X72167750Y-79062750D03*
D16*
X72167750Y-85462750D03*
D17*
X72167750Y-84362750D03*
X72167750Y-81562750D03*
D16*
X72167750Y-80462750D03*
D14*
X72167750Y-67812750D03*
D15*
X72167750Y-60012750D03*
D16*
X72167750Y-66412750D03*
D17*
X72167750Y-65312750D03*
X72167750Y-62512750D03*
D16*
X72167750Y-61412750D03*
D14*
X72167750Y-48762750D03*
D15*
X72167750Y-40962750D03*
D16*
X72167750Y-47362750D03*
D17*
X72167750Y-46262750D03*
X72167750Y-43462750D03*
D16*
X72167750Y-42362750D03*
D14*
X72167750Y-29712750D03*
D15*
X72167750Y-21912750D03*
D16*
X72167750Y-28312750D03*
D17*
X72167750Y-27212750D03*
X72167750Y-24412750D03*
D16*
X72167750Y-23312750D03*
D14*
X55911750Y-86862750D03*
D15*
X55911750Y-79062750D03*
D16*
X55911750Y-85462750D03*
D17*
X55911750Y-84362750D03*
X55911750Y-81562750D03*
D16*
X55911750Y-80462750D03*
D14*
X55911750Y-67812750D03*
D15*
X55911750Y-60012750D03*
D16*
X55911750Y-66412750D03*
D17*
X55911750Y-65312750D03*
X55911750Y-62512750D03*
D16*
X55911750Y-61412750D03*
D14*
X55911750Y-48762750D03*
D15*
X55911750Y-40962750D03*
D16*
X55911750Y-47362750D03*
D17*
X55911750Y-46262750D03*
X55911750Y-43462750D03*
D16*
X55911750Y-42362750D03*
D14*
X55911750Y-29712750D03*
D15*
X55911750Y-21912750D03*
D16*
X55911750Y-28312750D03*
D17*
X55911750Y-27212750D03*
X55911750Y-24412750D03*
D16*
X55911750Y-23312750D03*
D14*
X34067750Y-86862750D03*
D15*
X34067750Y-79062750D03*
D16*
X34067750Y-85462750D03*
D17*
X34067750Y-84362750D03*
X34067750Y-81562750D03*
D16*
X34067750Y-80462750D03*
D14*
X34067750Y-67812750D03*
D15*
X34067750Y-60012750D03*
D16*
X34067750Y-66412750D03*
D17*
X34067750Y-65312750D03*
X34067750Y-62512750D03*
D16*
X34067750Y-61412750D03*
D14*
X34067750Y-48762750D03*
D15*
X34067750Y-40962750D03*
D16*
X34067750Y-47362750D03*
D17*
X34067750Y-46262750D03*
X34067750Y-43462750D03*
D16*
X34067750Y-42362750D03*
D14*
X34067750Y-29712750D03*
D15*
X34067750Y-21912750D03*
D16*
X34067750Y-28312750D03*
D17*
X34067750Y-27212750D03*
X34067750Y-24412750D03*
D16*
X34067750Y-23312750D03*
D18*
X38609025Y-36480750D02*
X42487724Y-32602051D01*
X55911750Y-30762750D02*
X55911750Y-29712750D01*
X54072449Y-32602051D02*
X55911750Y-30762750D01*
X42487724Y-32602051D02*
X54072449Y-32602051D01*
X37369750Y-36480750D02*
X38609025Y-36480750D01*
X56961750Y-29712750D02*
X189261750Y-29712750D01*
X55911750Y-29712750D02*
X56961750Y-29712750D01*
X36168449Y-35279449D02*
X36493451Y-35604451D01*
X36493451Y-35604451D02*
X37369750Y-36480750D01*
X34067750Y-30762750D02*
X36168449Y-32863449D01*
X36168449Y-32863449D02*
X36168449Y-35279449D01*
X34067750Y-29712750D02*
X34067750Y-30762750D01*
X32760750Y-20605750D02*
X33267751Y-21112751D01*
X33267751Y-21112751D02*
X34067750Y-21912750D01*
X28479750Y-20605750D02*
X32760750Y-20605750D01*
X34067750Y-49812750D02*
X34637051Y-50382051D01*
X54861750Y-48762750D02*
X55911750Y-48762750D01*
X53242449Y-50382051D02*
X54861750Y-48762750D01*
X34637051Y-50382051D02*
X53242449Y-50382051D01*
X34067750Y-48762750D02*
X34067750Y-49812750D01*
X56961750Y-48762750D02*
X129317750Y-48762750D01*
X55911750Y-48762750D02*
X56961750Y-48762750D01*
X129317750Y-48762750D02*
X189261750Y-48762750D01*
X36951750Y-48762750D02*
X37369750Y-49180750D01*
X34067750Y-48762750D02*
X36951750Y-48762750D01*
X32760750Y-39655750D02*
X34067750Y-40962750D01*
X28479750Y-39655750D02*
X32760750Y-39655750D01*
X34067750Y-67812750D02*
X189261750Y-67812750D01*
X32760750Y-58705750D02*
X34067750Y-60012750D01*
X28479750Y-58705750D02*
X32760750Y-58705750D01*
X35117750Y-86862750D02*
X55911750Y-86862750D01*
X34067750Y-86862750D02*
X35117750Y-86862750D01*
X56961750Y-86862750D02*
X72167750Y-86862750D01*
X55911750Y-86862750D02*
X56961750Y-86862750D01*
X72167750Y-86862750D02*
X110267750Y-86862750D01*
X110267750Y-86862750D02*
X148367750Y-86862750D01*
X148367750Y-86862750D02*
X189261750Y-86862750D01*
X32760750Y-77755750D02*
X34067750Y-79062750D01*
X28479750Y-77755750D02*
X32760750Y-77755750D01*
X53479751Y-19480751D02*
X55111751Y-21112751D01*
X48654749Y-19480751D02*
X53479751Y-19480751D01*
X55111751Y-21112751D02*
X55911750Y-21912750D01*
X47529750Y-20605750D02*
X48654749Y-19480751D01*
X54604750Y-58705750D02*
X55911750Y-60012750D01*
X47529750Y-58705750D02*
X54604750Y-58705750D01*
X54604750Y-77755750D02*
X55911750Y-79062750D01*
X47529750Y-77755750D02*
X54604750Y-77755750D01*
X70860750Y-20605750D02*
X72167750Y-21912750D01*
X66579750Y-20605750D02*
X70860750Y-20605750D01*
X70860750Y-39655750D02*
X72167750Y-40962750D01*
X66579750Y-39655750D02*
X70860750Y-39655750D01*
X70860750Y-58705750D02*
X72167750Y-60012750D01*
X66579750Y-58705750D02*
X70860750Y-58705750D01*
X70860750Y-77755750D02*
X72167750Y-79062750D01*
X66579750Y-77755750D02*
X70860750Y-77755750D01*
X89910750Y-20605750D02*
X91217750Y-21912750D01*
X85629750Y-20605750D02*
X89910750Y-20605750D01*
X89910750Y-39655750D02*
X91217750Y-40962750D01*
X85629750Y-39655750D02*
X89910750Y-39655750D01*
X89910750Y-58705750D02*
X91217750Y-60012750D01*
X85629750Y-58705750D02*
X89910750Y-58705750D01*
X89910750Y-77755750D02*
X91217750Y-79062750D01*
X85629750Y-77755750D02*
X89910750Y-77755750D01*
X108960750Y-20605750D02*
X110267750Y-21912750D01*
X104679750Y-20605750D02*
X108960750Y-20605750D01*
X108960750Y-39655750D02*
X110267750Y-40962750D01*
X104679750Y-39655750D02*
X108960750Y-39655750D01*
X108960750Y-58705750D02*
X110267750Y-60012750D01*
X104679750Y-58705750D02*
X108960750Y-58705750D01*
X108960750Y-77755750D02*
X110267750Y-79062750D01*
X104679750Y-77755750D02*
X108960750Y-77755750D01*
X128010750Y-20605750D02*
X129317750Y-21912750D01*
X123729750Y-20605750D02*
X128010750Y-20605750D01*
X128010750Y-39655750D02*
X129317750Y-40962750D01*
X123729750Y-39655750D02*
X128010750Y-39655750D01*
X128010750Y-58705750D02*
X129317750Y-60012750D01*
X123729750Y-58705750D02*
X128010750Y-58705750D01*
X129317750Y-79262750D02*
X129317750Y-80462750D01*
X127810750Y-77755750D02*
X129317750Y-79262750D01*
X123729750Y-77755750D02*
X127810750Y-77755750D01*
X147060750Y-20605750D02*
X148367750Y-21912750D01*
X142779750Y-20605750D02*
X147060750Y-20605750D01*
X147060750Y-39655750D02*
X148367750Y-40962750D01*
X142779750Y-39655750D02*
X147060750Y-39655750D01*
X147060750Y-58705750D02*
X148367750Y-60012750D01*
X142779750Y-58705750D02*
X147060750Y-58705750D01*
X147060750Y-77755750D02*
X148367750Y-79062750D01*
X142779750Y-77755750D02*
X147060750Y-77755750D01*
X166110750Y-20605750D02*
X167417750Y-21912750D01*
X161829750Y-20605750D02*
X166110750Y-20605750D01*
X166110750Y-39655750D02*
X167417750Y-40962750D01*
X161829750Y-39655750D02*
X166110750Y-39655750D01*
X166110750Y-58705750D02*
X167417750Y-60012750D01*
X161829750Y-58705750D02*
X166110750Y-58705750D01*
X166617751Y-78262751D02*
X167417750Y-79062750D01*
X166110750Y-77755750D02*
X166617751Y-78262751D01*
X161829750Y-77755750D02*
X166110750Y-77755750D01*
X185160750Y-20605750D02*
X186467750Y-21912750D01*
X180879750Y-20605750D02*
X185160750Y-20605750D01*
X185160750Y-39655750D02*
X186467750Y-40962750D01*
X180879750Y-39655750D02*
X185160750Y-39655750D01*
X185160750Y-58705750D02*
X186467750Y-60012750D01*
X180879750Y-58705750D02*
X185160750Y-58705750D01*
X185160750Y-77755750D02*
X186467750Y-79062750D01*
X180879750Y-77755750D02*
X185160750Y-77755750D01*
X190568750Y-20605750D02*
X189261750Y-21912750D01*
X199929750Y-20605750D02*
X190568750Y-20605750D01*
X190568750Y-39655750D02*
X189261750Y-40962750D01*
X199929750Y-39655750D02*
X190568750Y-39655750D01*
X190568750Y-58705750D02*
X189261750Y-60012750D01*
X199929750Y-58705750D02*
X190568750Y-58705750D01*
X190568750Y-77755750D02*
X189261750Y-79062750D01*
X199929750Y-77755750D02*
X190568750Y-77755750D01*
X36493451Y-38144451D02*
X37369750Y-39020750D01*
X26181049Y-38144451D02*
X36493451Y-38144451D01*
X22129750Y-42195750D02*
X26181049Y-38144451D01*
X38004750Y-42195750D02*
X37369750Y-41560750D01*
X41179750Y-42195750D02*
X38004750Y-42195750D01*
X59104751Y-24270749D02*
X60229750Y-23145750D01*
X55051749Y-26087749D02*
X56781749Y-26087749D01*
X54910675Y-26228823D02*
X55051749Y-26087749D01*
X54910675Y-28337751D02*
X54910675Y-26228823D01*
X52609750Y-30638676D02*
X54910675Y-28337751D01*
X58598749Y-24270749D02*
X59104751Y-24270749D01*
X56781749Y-26087749D02*
X58598749Y-24270749D01*
X52609750Y-31400750D02*
X52609750Y-30638676D01*
X53486049Y-48304451D02*
X52609750Y-49180750D01*
X53811051Y-47979449D02*
X53486049Y-48304451D01*
X56771751Y-45137749D02*
X55051749Y-45137749D01*
X53811051Y-46378447D02*
X53811051Y-47979449D01*
X55051749Y-45137749D02*
X53811051Y-46378447D01*
X59259002Y-47625000D02*
X56771751Y-45137749D01*
X68006502Y-47625000D02*
X59259002Y-47625000D01*
X70493753Y-45137749D02*
X68006502Y-47625000D01*
X75639251Y-45137749D02*
X70493753Y-45137749D01*
X77456251Y-43320749D02*
X75639251Y-45137749D01*
X78154751Y-43320749D02*
X77456251Y-43320749D01*
X79279750Y-42195750D02*
X78154751Y-43320749D01*
X56958151Y-44687739D02*
X54562761Y-44687739D01*
X54562761Y-44687739D02*
X53486049Y-45764451D01*
X59325063Y-47054651D02*
X56958151Y-44687739D01*
X53486049Y-45764451D02*
X52609750Y-46640750D01*
X65024847Y-47054651D02*
X59325063Y-47054651D01*
X69695751Y-43535749D02*
X68543749Y-43535749D01*
X70847741Y-44687739D02*
X69695751Y-43535749D01*
X68543749Y-43535749D02*
X65024847Y-47054651D01*
X78583749Y-40745749D02*
X74641759Y-44687739D01*
X82267753Y-40745749D02*
X78583749Y-40745749D01*
X83021753Y-41499749D02*
X82267753Y-40745749D01*
X86709751Y-41499749D02*
X83021753Y-41499749D01*
X89797753Y-44587751D02*
X86709751Y-41499749D01*
X94346759Y-44587751D02*
X89797753Y-44587751D01*
X96738760Y-42195750D02*
X94346759Y-44587751D01*
X74641759Y-44687739D02*
X70847741Y-44687739D01*
X98329750Y-42195750D02*
X96738760Y-42195750D01*
X53811051Y-41398447D02*
X53811051Y-42899449D01*
X57003749Y-38205749D02*
X53811051Y-41398447D01*
X105535002Y-41275000D02*
X99555002Y-41275000D01*
X99555002Y-41275000D02*
X96485751Y-38205749D01*
X108964002Y-44704000D02*
X105535002Y-41275000D01*
X53811051Y-42899449D02*
X53486049Y-43224451D01*
X113760250Y-42195750D02*
X111252000Y-44704000D01*
X53486049Y-43224451D02*
X52609750Y-44100750D01*
X96485751Y-38205749D02*
X57003749Y-38205749D01*
X111252000Y-44704000D02*
X108964002Y-44704000D01*
X117379750Y-42195750D02*
X113760250Y-42195750D01*
X53486049Y-40684451D02*
X52609750Y-41560750D01*
X56414761Y-37755739D02*
X53486049Y-40684451D01*
X131989739Y-37755739D02*
X56414761Y-37755739D01*
X136429750Y-42195750D02*
X131989739Y-37755739D01*
X53486049Y-38144451D02*
X52609750Y-39020750D01*
X150589729Y-37305729D02*
X54324771Y-37305729D01*
X54324771Y-37305729D02*
X53486049Y-38144451D01*
X155479750Y-42195750D02*
X150589729Y-37305729D01*
X53849025Y-36480750D02*
X52609750Y-36480750D01*
X150401160Y-36480750D02*
X53849025Y-36480750D01*
X170539749Y-38205749D02*
X152126159Y-38205749D01*
X152126159Y-38205749D02*
X150401160Y-36480750D01*
X174529750Y-42195750D02*
X170539749Y-38205749D01*
X53849025Y-33940750D02*
X52609750Y-33940750D01*
X168420752Y-33940750D02*
X53849025Y-33940750D01*
X175585753Y-41105751D02*
X168420752Y-33940750D01*
X181565753Y-41105751D02*
X175585753Y-41105751D01*
X185047753Y-44587751D02*
X181565753Y-41105751D01*
X190121751Y-44587751D02*
X185047753Y-44587751D01*
X192513752Y-42195750D02*
X190121751Y-44587751D01*
X193579750Y-42195750D02*
X192513752Y-42195750D01*
M02*
