G04 #@! TF.GenerationSoftware,KiCad,Pcbnew,(5.1.4-0)*
G04 #@! TF.CreationDate,2021-02-22T20:17:48-07:00*
G04 #@! TF.ProjectId,electrolyte,656c6563-7472-46f6-9c79-74652e6b6963,rev?*
G04 #@! TF.SameCoordinates,Original*
G04 #@! TF.FileFunction,Legend,Top*
G04 #@! TF.FilePolarity,Positive*
%FSLAX46Y46*%
G04 Gerber Fmt 4.6, Leading zero omitted, Abs format (unit mm)*
G04 Created by KiCad (PCBNEW (5.1.4-0)) date 2021-02-22 20:17:48*
%MOMM*%
%LPD*%
G04 APERTURE LIST*
%ADD10C,0.381000*%
%ADD11C,0.150000*%
%ADD12C,4.502000*%
%ADD13C,4.089800*%
%ADD14C,1.852000*%
%ADD15C,1.854600*%
%ADD16R,1.854600X1.854600*%
%ADD17R,1.702000X1.702000*%
%ADD18C,1.702000*%
G04 APERTURE END LIST*
D10*
X38639750Y-19970750D02*
X36099750Y-19970750D01*
X36099750Y-17430750D02*
X36099750Y-19970750D01*
X53879750Y-17430750D02*
X36099750Y-17430750D01*
X53879750Y-19970750D02*
X53879750Y-17430750D01*
D11*
G36*
X49921318Y-26450110D02*
G01*
X49921318Y-26650110D01*
X49821318Y-26650110D01*
X49821318Y-26450110D01*
X49921318Y-26450110D01*
G37*
X49921318Y-26450110D02*
X49921318Y-26650110D01*
X49821318Y-26650110D01*
X49821318Y-26450110D01*
X49921318Y-26450110D01*
G36*
X49521318Y-25850110D02*
G01*
X49521318Y-26650110D01*
X49421318Y-26650110D01*
X49421318Y-25850110D01*
X49521318Y-25850110D01*
G37*
X49521318Y-25850110D02*
X49521318Y-26650110D01*
X49421318Y-26650110D01*
X49421318Y-25850110D01*
X49521318Y-25850110D01*
G36*
X49921318Y-25850110D02*
G01*
X49921318Y-25950110D01*
X49421318Y-25950110D01*
X49421318Y-25850110D01*
X49921318Y-25850110D01*
G37*
X49921318Y-25850110D02*
X49921318Y-25950110D01*
X49421318Y-25950110D01*
X49421318Y-25850110D01*
X49921318Y-25850110D01*
G36*
X49721318Y-26250110D02*
G01*
X49721318Y-26350110D01*
X49621318Y-26350110D01*
X49621318Y-26250110D01*
X49721318Y-26250110D01*
G37*
X49721318Y-26250110D02*
X49721318Y-26350110D01*
X49621318Y-26350110D01*
X49621318Y-26250110D01*
X49721318Y-26250110D01*
G36*
X49921318Y-25850110D02*
G01*
X49921318Y-26150110D01*
X49821318Y-26150110D01*
X49821318Y-25850110D01*
X49921318Y-25850110D01*
G37*
X49921318Y-25850110D02*
X49921318Y-26150110D01*
X49821318Y-26150110D01*
X49821318Y-25850110D01*
X49921318Y-25850110D01*
D10*
X38639750Y-22510750D02*
X36099750Y-22510750D01*
X38639750Y-19970750D02*
X38639750Y-22510750D01*
X53879750Y-50450750D02*
X53879750Y-19970750D01*
X36099750Y-50450750D02*
X53879750Y-50450750D01*
X36099750Y-19970750D02*
X36099750Y-50450750D01*
D11*
X39227401Y-20802654D02*
X39684544Y-20802654D01*
X39455973Y-21602654D02*
X39455973Y-20802654D01*
X39875020Y-20802654D02*
X40408354Y-21602654D01*
X40408354Y-20802654D02*
X39875020Y-21602654D01*
X40865497Y-20802654D02*
X40941687Y-20802654D01*
X41017878Y-20840750D01*
X41055973Y-20878845D01*
X41094068Y-20955035D01*
X41132163Y-21107416D01*
X41132163Y-21297892D01*
X41094068Y-21450273D01*
X41055973Y-21526464D01*
X41017878Y-21564559D01*
X40941687Y-21602654D01*
X40865497Y-21602654D01*
X40789306Y-21564559D01*
X40751211Y-21526464D01*
X40713116Y-21450273D01*
X40675020Y-21297892D01*
X40675020Y-21107416D01*
X40713116Y-20955035D01*
X40751211Y-20878845D01*
X40789306Y-20840750D01*
X40865497Y-20802654D01*
X42046449Y-20764559D02*
X41360735Y-21793130D01*
X42313116Y-21602654D02*
X42313116Y-20802654D01*
X42503592Y-20802654D01*
X42617878Y-20840750D01*
X42694068Y-20916940D01*
X42732163Y-20993130D01*
X42770258Y-21145511D01*
X42770258Y-21259797D01*
X42732163Y-21412178D01*
X42694068Y-21488369D01*
X42617878Y-21564559D01*
X42503592Y-21602654D01*
X42313116Y-21602654D01*
X43036925Y-20802654D02*
X43532163Y-20802654D01*
X43265497Y-21107416D01*
X43379782Y-21107416D01*
X43455973Y-21145511D01*
X43494068Y-21183607D01*
X43532163Y-21259797D01*
X43532163Y-21450273D01*
X43494068Y-21526464D01*
X43455973Y-21564559D01*
X43379782Y-21602654D01*
X43151211Y-21602654D01*
X43075020Y-21564559D01*
X43036925Y-21526464D01*
X38938273Y-24142654D02*
X38938273Y-23342654D01*
X39128750Y-23342654D01*
X39243035Y-23380750D01*
X39319226Y-23456940D01*
X39357321Y-23533130D01*
X39395416Y-23685511D01*
X39395416Y-23799797D01*
X39357321Y-23952178D01*
X39319226Y-24028369D01*
X39243035Y-24104559D01*
X39128750Y-24142654D01*
X38938273Y-24142654D01*
X39700178Y-23418845D02*
X39738273Y-23380750D01*
X39814464Y-23342654D01*
X40004940Y-23342654D01*
X40081130Y-23380750D01*
X40119226Y-23418845D01*
X40157321Y-23495035D01*
X40157321Y-23571226D01*
X40119226Y-23685511D01*
X39662083Y-24142654D01*
X40157321Y-24142654D01*
X38938273Y-34302654D02*
X38938273Y-33502654D01*
X39128750Y-33502654D01*
X39243035Y-33540750D01*
X39319226Y-33616940D01*
X39357321Y-33693130D01*
X39395416Y-33845511D01*
X39395416Y-33959797D01*
X39357321Y-34112178D01*
X39319226Y-34188369D01*
X39243035Y-34264559D01*
X39128750Y-34302654D01*
X38938273Y-34302654D01*
X39890654Y-33502654D02*
X39966845Y-33502654D01*
X40043035Y-33540750D01*
X40081130Y-33578845D01*
X40119226Y-33655035D01*
X40157321Y-33807416D01*
X40157321Y-33997892D01*
X40119226Y-34150273D01*
X40081130Y-34226464D01*
X40043035Y-34264559D01*
X39966845Y-34302654D01*
X39890654Y-34302654D01*
X39814464Y-34264559D01*
X39776369Y-34226464D01*
X39738273Y-34150273D01*
X39700178Y-33997892D01*
X39700178Y-33807416D01*
X39738273Y-33655035D01*
X39776369Y-33578845D01*
X39814464Y-33540750D01*
X39890654Y-33502654D01*
X38938273Y-31762654D02*
X38938273Y-30962654D01*
X39128750Y-30962654D01*
X39243035Y-31000750D01*
X39319226Y-31076940D01*
X39357321Y-31153130D01*
X39395416Y-31305511D01*
X39395416Y-31419797D01*
X39357321Y-31572178D01*
X39319226Y-31648369D01*
X39243035Y-31724559D01*
X39128750Y-31762654D01*
X38938273Y-31762654D01*
X40157321Y-31762654D02*
X39700178Y-31762654D01*
X39928750Y-31762654D02*
X39928750Y-30962654D01*
X39852559Y-31076940D01*
X39776369Y-31153130D01*
X39700178Y-31191226D01*
X38919226Y-28460750D02*
X38843035Y-28422654D01*
X38728750Y-28422654D01*
X38614464Y-28460750D01*
X38538273Y-28536940D01*
X38500178Y-28613130D01*
X38462083Y-28765511D01*
X38462083Y-28879797D01*
X38500178Y-29032178D01*
X38538273Y-29108369D01*
X38614464Y-29184559D01*
X38728750Y-29222654D01*
X38804940Y-29222654D01*
X38919226Y-29184559D01*
X38957321Y-29146464D01*
X38957321Y-28879797D01*
X38804940Y-28879797D01*
X39300178Y-29222654D02*
X39300178Y-28422654D01*
X39757321Y-29222654D01*
X39757321Y-28422654D01*
X40138273Y-29222654D02*
X40138273Y-28422654D01*
X40328750Y-28422654D01*
X40443035Y-28460750D01*
X40519226Y-28536940D01*
X40557321Y-28613130D01*
X40595416Y-28765511D01*
X40595416Y-28879797D01*
X40557321Y-29032178D01*
X40519226Y-29108369D01*
X40443035Y-29184559D01*
X40328750Y-29222654D01*
X40138273Y-29222654D01*
X38919226Y-25920750D02*
X38843035Y-25882654D01*
X38728750Y-25882654D01*
X38614464Y-25920750D01*
X38538273Y-25996940D01*
X38500178Y-26073130D01*
X38462083Y-26225511D01*
X38462083Y-26339797D01*
X38500178Y-26492178D01*
X38538273Y-26568369D01*
X38614464Y-26644559D01*
X38728750Y-26682654D01*
X38804940Y-26682654D01*
X38919226Y-26644559D01*
X38957321Y-26606464D01*
X38957321Y-26339797D01*
X38804940Y-26339797D01*
X39300178Y-26682654D02*
X39300178Y-25882654D01*
X39757321Y-26682654D01*
X39757321Y-25882654D01*
X40138273Y-26682654D02*
X40138273Y-25882654D01*
X40328750Y-25882654D01*
X40443035Y-25920750D01*
X40519226Y-25996940D01*
X40557321Y-26073130D01*
X40595416Y-26225511D01*
X40595416Y-26339797D01*
X40557321Y-26492178D01*
X40519226Y-26568369D01*
X40443035Y-26644559D01*
X40328750Y-26682654D01*
X40138273Y-26682654D01*
X38938273Y-36842654D02*
X38938273Y-36042654D01*
X39128750Y-36042654D01*
X39243035Y-36080750D01*
X39319226Y-36156940D01*
X39357321Y-36233130D01*
X39395416Y-36385511D01*
X39395416Y-36499797D01*
X39357321Y-36652178D01*
X39319226Y-36728369D01*
X39243035Y-36804559D01*
X39128750Y-36842654D01*
X38938273Y-36842654D01*
X40081130Y-36309321D02*
X40081130Y-36842654D01*
X39890654Y-36004559D02*
X39700178Y-36575988D01*
X40195416Y-36575988D01*
X39395416Y-39306464D02*
X39357321Y-39344559D01*
X39243035Y-39382654D01*
X39166845Y-39382654D01*
X39052559Y-39344559D01*
X38976369Y-39268369D01*
X38938273Y-39192178D01*
X38900178Y-39039797D01*
X38900178Y-38925511D01*
X38938273Y-38773130D01*
X38976369Y-38696940D01*
X39052559Y-38620750D01*
X39166845Y-38582654D01*
X39243035Y-38582654D01*
X39357321Y-38620750D01*
X39395416Y-38658845D01*
X40081130Y-38582654D02*
X39928750Y-38582654D01*
X39852559Y-38620750D01*
X39814464Y-38658845D01*
X39738273Y-38773130D01*
X39700178Y-38925511D01*
X39700178Y-39230273D01*
X39738273Y-39306464D01*
X39776369Y-39344559D01*
X39852559Y-39382654D01*
X40004940Y-39382654D01*
X40081130Y-39344559D01*
X40119226Y-39306464D01*
X40157321Y-39230273D01*
X40157321Y-39039797D01*
X40119226Y-38963607D01*
X40081130Y-38925511D01*
X40004940Y-38887416D01*
X39852559Y-38887416D01*
X39776369Y-38925511D01*
X39738273Y-38963607D01*
X39700178Y-39039797D01*
X38938273Y-41922654D02*
X38938273Y-41122654D01*
X39128750Y-41122654D01*
X39243035Y-41160750D01*
X39319226Y-41236940D01*
X39357321Y-41313130D01*
X39395416Y-41465511D01*
X39395416Y-41579797D01*
X39357321Y-41732178D01*
X39319226Y-41808369D01*
X39243035Y-41884559D01*
X39128750Y-41922654D01*
X38938273Y-41922654D01*
X39662083Y-41122654D02*
X40195416Y-41122654D01*
X39852559Y-41922654D01*
X38976369Y-44043607D02*
X39243035Y-44043607D01*
X39357321Y-44462654D02*
X38976369Y-44462654D01*
X38976369Y-43662654D01*
X39357321Y-43662654D01*
X40043035Y-43662654D02*
X39890654Y-43662654D01*
X39814464Y-43700750D01*
X39776369Y-43738845D01*
X39700178Y-43853130D01*
X39662083Y-44005511D01*
X39662083Y-44310273D01*
X39700178Y-44386464D01*
X39738273Y-44424559D01*
X39814464Y-44462654D01*
X39966845Y-44462654D01*
X40043035Y-44424559D01*
X40081130Y-44386464D01*
X40119226Y-44310273D01*
X40119226Y-44119797D01*
X40081130Y-44043607D01*
X40043035Y-44005511D01*
X39966845Y-43967416D01*
X39814464Y-43967416D01*
X39738273Y-44005511D01*
X39700178Y-44043607D01*
X39662083Y-44119797D01*
X39204940Y-46583607D02*
X39319226Y-46621702D01*
X39357321Y-46659797D01*
X39395416Y-46735988D01*
X39395416Y-46850273D01*
X39357321Y-46926464D01*
X39319226Y-46964559D01*
X39243035Y-47002654D01*
X38938273Y-47002654D01*
X38938273Y-46202654D01*
X39204940Y-46202654D01*
X39281130Y-46240750D01*
X39319226Y-46278845D01*
X39357321Y-46355035D01*
X39357321Y-46431226D01*
X39319226Y-46507416D01*
X39281130Y-46545511D01*
X39204940Y-46583607D01*
X38938273Y-46583607D01*
X40081130Y-46469321D02*
X40081130Y-47002654D01*
X39890654Y-46164559D02*
X39700178Y-46735988D01*
X40195416Y-46735988D01*
X39204940Y-49123607D02*
X39319226Y-49161702D01*
X39357321Y-49199797D01*
X39395416Y-49275988D01*
X39395416Y-49390273D01*
X39357321Y-49466464D01*
X39319226Y-49504559D01*
X39243035Y-49542654D01*
X38938273Y-49542654D01*
X38938273Y-48742654D01*
X39204940Y-48742654D01*
X39281130Y-48780750D01*
X39319226Y-48818845D01*
X39357321Y-48895035D01*
X39357321Y-48971226D01*
X39319226Y-49047416D01*
X39281130Y-49085511D01*
X39204940Y-49123607D01*
X38938273Y-49123607D01*
X40119226Y-48742654D02*
X39738273Y-48742654D01*
X39700178Y-49123607D01*
X39738273Y-49085511D01*
X39814464Y-49047416D01*
X40004940Y-49047416D01*
X40081130Y-49085511D01*
X40119226Y-49123607D01*
X40157321Y-49199797D01*
X40157321Y-49390273D01*
X40119226Y-49466464D01*
X40081130Y-49504559D01*
X40004940Y-49542654D01*
X39814464Y-49542654D01*
X39738273Y-49504559D01*
X39700178Y-49466464D01*
X50126940Y-49123607D02*
X50241226Y-49161702D01*
X50279321Y-49199797D01*
X50317416Y-49275988D01*
X50317416Y-49390273D01*
X50279321Y-49466464D01*
X50241226Y-49504559D01*
X50165035Y-49542654D01*
X49860273Y-49542654D01*
X49860273Y-48742654D01*
X50126940Y-48742654D01*
X50203130Y-48780750D01*
X50241226Y-48818845D01*
X50279321Y-48895035D01*
X50279321Y-48971226D01*
X50241226Y-49047416D01*
X50203130Y-49085511D01*
X50126940Y-49123607D01*
X49860273Y-49123607D01*
X51003130Y-48742654D02*
X50850750Y-48742654D01*
X50774559Y-48780750D01*
X50736464Y-48818845D01*
X50660273Y-48933130D01*
X50622178Y-49085511D01*
X50622178Y-49390273D01*
X50660273Y-49466464D01*
X50698369Y-49504559D01*
X50774559Y-49542654D01*
X50926940Y-49542654D01*
X51003130Y-49504559D01*
X51041226Y-49466464D01*
X51079321Y-49390273D01*
X51079321Y-49199797D01*
X51041226Y-49123607D01*
X51003130Y-49085511D01*
X50926940Y-49047416D01*
X50774559Y-49047416D01*
X50698369Y-49085511D01*
X50660273Y-49123607D01*
X50622178Y-49199797D01*
X50126940Y-44043607D02*
X50241226Y-44081702D01*
X50279321Y-44119797D01*
X50317416Y-44195988D01*
X50317416Y-44310273D01*
X50279321Y-44386464D01*
X50241226Y-44424559D01*
X50165035Y-44462654D01*
X49860273Y-44462654D01*
X49860273Y-43662654D01*
X50126940Y-43662654D01*
X50203130Y-43700750D01*
X50241226Y-43738845D01*
X50279321Y-43815035D01*
X50279321Y-43891226D01*
X50241226Y-43967416D01*
X50203130Y-44005511D01*
X50126940Y-44043607D01*
X49860273Y-44043607D01*
X50584083Y-43662654D02*
X51079321Y-43662654D01*
X50812654Y-43967416D01*
X50926940Y-43967416D01*
X51003130Y-44005511D01*
X51041226Y-44043607D01*
X51079321Y-44119797D01*
X51079321Y-44310273D01*
X51041226Y-44386464D01*
X51003130Y-44424559D01*
X50926940Y-44462654D01*
X50698369Y-44462654D01*
X50622178Y-44424559D01*
X50584083Y-44386464D01*
X50126940Y-41503607D02*
X50241226Y-41541702D01*
X50279321Y-41579797D01*
X50317416Y-41655988D01*
X50317416Y-41770273D01*
X50279321Y-41846464D01*
X50241226Y-41884559D01*
X50165035Y-41922654D01*
X49860273Y-41922654D01*
X49860273Y-41122654D01*
X50126940Y-41122654D01*
X50203130Y-41160750D01*
X50241226Y-41198845D01*
X50279321Y-41275035D01*
X50279321Y-41351226D01*
X50241226Y-41427416D01*
X50203130Y-41465511D01*
X50126940Y-41503607D01*
X49860273Y-41503607D01*
X51079321Y-41922654D02*
X50622178Y-41922654D01*
X50850750Y-41922654D02*
X50850750Y-41122654D01*
X50774559Y-41236940D01*
X50698369Y-41313130D01*
X50622178Y-41351226D01*
X50184083Y-31343607D02*
X49917416Y-31343607D01*
X49917416Y-31762654D02*
X49917416Y-30962654D01*
X50298369Y-30962654D01*
X50945988Y-31229321D02*
X50945988Y-31762654D01*
X50755511Y-30924559D02*
X50565035Y-31495988D01*
X51060273Y-31495988D01*
X49384083Y-28422654D02*
X49650750Y-29222654D01*
X49917416Y-28422654D01*
X50641226Y-29146464D02*
X50603130Y-29184559D01*
X50488845Y-29222654D01*
X50412654Y-29222654D01*
X50298369Y-29184559D01*
X50222178Y-29108369D01*
X50184083Y-29032178D01*
X50145988Y-28879797D01*
X50145988Y-28765511D01*
X50184083Y-28613130D01*
X50222178Y-28536940D01*
X50298369Y-28460750D01*
X50412654Y-28422654D01*
X50488845Y-28422654D01*
X50603130Y-28460750D01*
X50641226Y-28498845D01*
X51441226Y-29146464D02*
X51403130Y-29184559D01*
X51288845Y-29222654D01*
X51212654Y-29222654D01*
X51098369Y-29184559D01*
X51022178Y-29108369D01*
X50984083Y-29032178D01*
X50945988Y-28879797D01*
X50945988Y-28765511D01*
X50984083Y-28613130D01*
X51022178Y-28536940D01*
X51098369Y-28460750D01*
X51212654Y-28422654D01*
X51288845Y-28422654D01*
X51403130Y-28460750D01*
X51441226Y-28498845D01*
X50189536Y-26614559D02*
X50303822Y-26652654D01*
X50494298Y-26652654D01*
X50570489Y-26614559D01*
X50608584Y-26576464D01*
X50646679Y-26500273D01*
X50646679Y-26424083D01*
X50608584Y-26347892D01*
X50570489Y-26309797D01*
X50494298Y-26271702D01*
X50341917Y-26233607D01*
X50265727Y-26195511D01*
X50227631Y-26157416D01*
X50189536Y-26081226D01*
X50189536Y-26005035D01*
X50227631Y-25928845D01*
X50265727Y-25890750D01*
X50341917Y-25852654D01*
X50532393Y-25852654D01*
X50646679Y-25890750D01*
X50875250Y-25852654D02*
X51332393Y-25852654D01*
X51103822Y-26652654D02*
X51103822Y-25852654D01*
X49841226Y-23380750D02*
X49765035Y-23342654D01*
X49650750Y-23342654D01*
X49536464Y-23380750D01*
X49460273Y-23456940D01*
X49422178Y-23533130D01*
X49384083Y-23685511D01*
X49384083Y-23799797D01*
X49422178Y-23952178D01*
X49460273Y-24028369D01*
X49536464Y-24104559D01*
X49650750Y-24142654D01*
X49726940Y-24142654D01*
X49841226Y-24104559D01*
X49879321Y-24066464D01*
X49879321Y-23799797D01*
X49726940Y-23799797D01*
X50222178Y-24142654D02*
X50222178Y-23342654D01*
X50679321Y-24142654D01*
X50679321Y-23342654D01*
X51060273Y-24142654D02*
X51060273Y-23342654D01*
X51250750Y-23342654D01*
X51365035Y-23380750D01*
X51441226Y-23456940D01*
X51479321Y-23533130D01*
X51517416Y-23685511D01*
X51517416Y-23799797D01*
X51479321Y-23952178D01*
X51441226Y-24028369D01*
X51365035Y-24104559D01*
X51250750Y-24142654D01*
X51060273Y-24142654D01*
X49898369Y-21602654D02*
X49631702Y-21221702D01*
X49441226Y-21602654D02*
X49441226Y-20802654D01*
X49745988Y-20802654D01*
X49822178Y-20840750D01*
X49860273Y-20878845D01*
X49898369Y-20955035D01*
X49898369Y-21069321D01*
X49860273Y-21145511D01*
X49822178Y-21183607D01*
X49745988Y-21221702D01*
X49441226Y-21221702D01*
X50203130Y-21374083D02*
X50584083Y-21374083D01*
X50126940Y-21602654D02*
X50393607Y-20802654D01*
X50660273Y-21602654D01*
X50850750Y-20802654D02*
X51041226Y-21602654D01*
X51193607Y-21031226D01*
X51345988Y-21602654D01*
X51536464Y-20802654D01*
X50184083Y-33883607D02*
X49917416Y-33883607D01*
X49917416Y-34302654D02*
X49917416Y-33502654D01*
X50298369Y-33502654D01*
X50984083Y-33502654D02*
X50603130Y-33502654D01*
X50565035Y-33883607D01*
X50603130Y-33845511D01*
X50679321Y-33807416D01*
X50869797Y-33807416D01*
X50945988Y-33845511D01*
X50984083Y-33883607D01*
X51022178Y-33959797D01*
X51022178Y-34150273D01*
X50984083Y-34226464D01*
X50945988Y-34264559D01*
X50869797Y-34302654D01*
X50679321Y-34302654D01*
X50603130Y-34264559D01*
X50565035Y-34226464D01*
X50184083Y-36423607D02*
X49917416Y-36423607D01*
X49917416Y-36842654D02*
X49917416Y-36042654D01*
X50298369Y-36042654D01*
X50945988Y-36042654D02*
X50793607Y-36042654D01*
X50717416Y-36080750D01*
X50679321Y-36118845D01*
X50603130Y-36233130D01*
X50565035Y-36385511D01*
X50565035Y-36690273D01*
X50603130Y-36766464D01*
X50641226Y-36804559D01*
X50717416Y-36842654D01*
X50869797Y-36842654D01*
X50945988Y-36804559D01*
X50984083Y-36766464D01*
X51022178Y-36690273D01*
X51022178Y-36499797D01*
X50984083Y-36423607D01*
X50945988Y-36385511D01*
X50869797Y-36347416D01*
X50717416Y-36347416D01*
X50641226Y-36385511D01*
X50603130Y-36423607D01*
X50565035Y-36499797D01*
X50184083Y-38963607D02*
X49917416Y-38963607D01*
X49917416Y-39382654D02*
X49917416Y-38582654D01*
X50298369Y-38582654D01*
X50526940Y-38582654D02*
X51060273Y-38582654D01*
X50717416Y-39382654D01*
X50126940Y-46583607D02*
X50241226Y-46621702D01*
X50279321Y-46659797D01*
X50317416Y-46735988D01*
X50317416Y-46850273D01*
X50279321Y-46926464D01*
X50241226Y-46964559D01*
X50165035Y-47002654D01*
X49860273Y-47002654D01*
X49860273Y-46202654D01*
X50126940Y-46202654D01*
X50203130Y-46240750D01*
X50241226Y-46278845D01*
X50279321Y-46355035D01*
X50279321Y-46431226D01*
X50241226Y-46507416D01*
X50203130Y-46545511D01*
X50126940Y-46583607D01*
X49860273Y-46583607D01*
X50622178Y-46278845D02*
X50660273Y-46240750D01*
X50736464Y-46202654D01*
X50926940Y-46202654D01*
X51003130Y-46240750D01*
X51041226Y-46278845D01*
X51079321Y-46355035D01*
X51079321Y-46431226D01*
X51041226Y-46545511D01*
X50584083Y-47002654D01*
X51079321Y-47002654D01*
%LPC*%
D12*
X111633000Y-54229000D03*
X187833000Y-35179000D03*
X187960000Y-73279000D03*
X35306000Y-73279000D03*
X33528000Y-35179000D03*
D13*
X197389750Y-82835750D03*
D14*
X192309750Y-82835750D03*
X202469750Y-82835750D03*
D13*
X197389750Y-63785750D03*
D14*
X192309750Y-63785750D03*
X202469750Y-63785750D03*
D13*
X197389750Y-44735750D03*
D14*
X192309750Y-44735750D03*
X202469750Y-44735750D03*
D13*
X197389750Y-25685750D03*
D14*
X192309750Y-25685750D03*
X202469750Y-25685750D03*
D13*
X178339750Y-82835750D03*
D14*
X173259750Y-82835750D03*
X183419750Y-82835750D03*
D13*
X178339750Y-63785750D03*
D14*
X173259750Y-63785750D03*
X183419750Y-63785750D03*
D13*
X178339750Y-44735750D03*
D14*
X173259750Y-44735750D03*
X183419750Y-44735750D03*
D13*
X178339750Y-25685750D03*
D14*
X173259750Y-25685750D03*
X183419750Y-25685750D03*
D13*
X159289750Y-82835750D03*
D14*
X154209750Y-82835750D03*
X164369750Y-82835750D03*
D13*
X159289750Y-63785750D03*
D14*
X154209750Y-63785750D03*
X164369750Y-63785750D03*
D13*
X159289750Y-44735750D03*
D14*
X154209750Y-44735750D03*
X164369750Y-44735750D03*
D13*
X159289750Y-25685750D03*
D14*
X154209750Y-25685750D03*
X164369750Y-25685750D03*
D13*
X140239750Y-82835750D03*
D14*
X135159750Y-82835750D03*
X145319750Y-82835750D03*
D13*
X140239750Y-63785750D03*
D14*
X135159750Y-63785750D03*
X145319750Y-63785750D03*
D13*
X140239750Y-44735750D03*
D14*
X135159750Y-44735750D03*
X145319750Y-44735750D03*
D13*
X140239750Y-25685750D03*
D14*
X135159750Y-25685750D03*
X145319750Y-25685750D03*
D13*
X121189750Y-82835750D03*
D14*
X116109750Y-82835750D03*
X126269750Y-82835750D03*
D13*
X121189750Y-63785750D03*
D14*
X116109750Y-63785750D03*
X126269750Y-63785750D03*
D13*
X121189750Y-44735750D03*
D14*
X116109750Y-44735750D03*
X126269750Y-44735750D03*
D13*
X121189750Y-25685750D03*
D14*
X116109750Y-25685750D03*
X126269750Y-25685750D03*
D13*
X102139750Y-82835750D03*
D14*
X97059750Y-82835750D03*
X107219750Y-82835750D03*
D13*
X102139750Y-63785750D03*
D14*
X97059750Y-63785750D03*
X107219750Y-63785750D03*
D13*
X102139750Y-44735750D03*
D14*
X97059750Y-44735750D03*
X107219750Y-44735750D03*
D13*
X102139750Y-25685750D03*
D14*
X97059750Y-25685750D03*
X107219750Y-25685750D03*
D13*
X83089750Y-82835750D03*
D14*
X78009750Y-82835750D03*
X88169750Y-82835750D03*
D13*
X83089750Y-63785750D03*
D14*
X78009750Y-63785750D03*
X88169750Y-63785750D03*
D13*
X83089750Y-44735750D03*
D14*
X78009750Y-44735750D03*
X88169750Y-44735750D03*
D13*
X83089750Y-25685750D03*
D14*
X78009750Y-25685750D03*
X88169750Y-25685750D03*
D13*
X64039750Y-82835750D03*
D14*
X58959750Y-82835750D03*
X69119750Y-82835750D03*
D13*
X64039750Y-63785750D03*
D14*
X58959750Y-63785750D03*
X69119750Y-63785750D03*
D13*
X64039750Y-44735750D03*
D14*
X58959750Y-44735750D03*
X69119750Y-44735750D03*
D13*
X64039750Y-25685750D03*
D14*
X58959750Y-25685750D03*
X69119750Y-25685750D03*
D13*
X44989750Y-82835750D03*
D14*
X39909750Y-82835750D03*
X50069750Y-82835750D03*
D13*
X44989750Y-63785750D03*
D14*
X39909750Y-63785750D03*
X50069750Y-63785750D03*
D13*
X44989750Y-44735750D03*
D14*
X39909750Y-44735750D03*
X50069750Y-44735750D03*
D13*
X44989750Y-25685750D03*
D14*
X39909750Y-25685750D03*
X50069750Y-25685750D03*
D13*
X25939750Y-82835750D03*
D14*
X20859750Y-82835750D03*
X31019750Y-82835750D03*
D13*
X25939750Y-63785750D03*
D14*
X20859750Y-63785750D03*
X31019750Y-63785750D03*
D13*
X25939750Y-44735750D03*
D14*
X20859750Y-44735750D03*
X31019750Y-44735750D03*
D13*
X25939750Y-25685750D03*
D14*
X20859750Y-25685750D03*
X31019750Y-25685750D03*
D15*
X52609750Y-21240750D03*
X37369750Y-49180750D03*
X52609750Y-23780750D03*
X52609750Y-26320750D03*
X52609750Y-28860750D03*
X52609750Y-31400750D03*
X52609750Y-33940750D03*
X52609750Y-36480750D03*
X52609750Y-39020750D03*
X52609750Y-41560750D03*
X52609750Y-44100750D03*
X52609750Y-46640750D03*
X52609750Y-49180750D03*
X37369750Y-46640750D03*
X37369750Y-44100750D03*
X37369750Y-41560750D03*
X37369750Y-39020750D03*
X37369750Y-36480750D03*
X37369750Y-33940750D03*
X37369750Y-31400750D03*
X37369750Y-28860750D03*
X37369750Y-26320750D03*
X37369750Y-23780750D03*
D16*
X37369750Y-21240750D03*
D17*
X189261750Y-86862750D03*
D18*
X189261750Y-79062750D03*
D17*
X189261750Y-67812750D03*
D18*
X189261750Y-60012750D03*
D17*
X189261750Y-48762750D03*
D18*
X189261750Y-40962750D03*
D17*
X189261750Y-29712750D03*
D18*
X189261750Y-21912750D03*
D17*
X186467750Y-86862750D03*
D18*
X186467750Y-79062750D03*
D17*
X186467750Y-67812750D03*
D18*
X186467750Y-60012750D03*
D17*
X186467750Y-48762750D03*
D18*
X186467750Y-40962750D03*
D17*
X186467750Y-29712750D03*
D18*
X186467750Y-21912750D03*
D17*
X167417750Y-86862750D03*
D18*
X167417750Y-79062750D03*
D17*
X167417750Y-67812750D03*
D18*
X167417750Y-60012750D03*
D17*
X167417750Y-48762750D03*
D18*
X167417750Y-40962750D03*
D17*
X167417750Y-29712750D03*
D18*
X167417750Y-21912750D03*
D17*
X148367750Y-86862750D03*
D18*
X148367750Y-79062750D03*
D17*
X148367750Y-67812750D03*
D18*
X148367750Y-60012750D03*
D17*
X148367750Y-48762750D03*
D18*
X148367750Y-40962750D03*
D17*
X148367750Y-29712750D03*
D18*
X148367750Y-21912750D03*
D17*
X129317750Y-86862750D03*
D18*
X129317750Y-79062750D03*
D17*
X129317750Y-67812750D03*
D18*
X129317750Y-60012750D03*
D17*
X129317750Y-48762750D03*
D18*
X129317750Y-40962750D03*
D17*
X129317750Y-29712750D03*
D18*
X129317750Y-21912750D03*
D17*
X110267750Y-86862750D03*
D18*
X110267750Y-79062750D03*
D17*
X110267750Y-67812750D03*
D18*
X110267750Y-60012750D03*
D17*
X110267750Y-48762750D03*
D18*
X110267750Y-40962750D03*
D17*
X110267750Y-29712750D03*
D18*
X110267750Y-21912750D03*
D17*
X91217750Y-86862750D03*
D18*
X91217750Y-79062750D03*
D17*
X91217750Y-67812750D03*
D18*
X91217750Y-60012750D03*
D17*
X91217750Y-48762750D03*
D18*
X91217750Y-40962750D03*
D17*
X91217750Y-29712750D03*
D18*
X91217750Y-21912750D03*
D17*
X72167750Y-86862750D03*
D18*
X72167750Y-79062750D03*
D17*
X72167750Y-67812750D03*
D18*
X72167750Y-60012750D03*
D17*
X72167750Y-48762750D03*
D18*
X72167750Y-40962750D03*
D17*
X72167750Y-29712750D03*
D18*
X72167750Y-21912750D03*
D17*
X55911750Y-86862750D03*
D18*
X55911750Y-79062750D03*
D17*
X55911750Y-67812750D03*
D18*
X55911750Y-60012750D03*
D17*
X55911750Y-48762750D03*
D18*
X55911750Y-40962750D03*
D17*
X55911750Y-29712750D03*
D18*
X55911750Y-21912750D03*
D17*
X34067750Y-86862750D03*
D18*
X34067750Y-79062750D03*
D17*
X34067750Y-67812750D03*
D18*
X34067750Y-60012750D03*
D17*
X34067750Y-48762750D03*
D18*
X34067750Y-40962750D03*
D17*
X34067750Y-29712750D03*
D18*
X34067750Y-21912750D03*
M02*
